<?xml version="1.0" standalone="no"?>
<!DOCTYPE svg PUBLIC "-//W3C//DTD SVG 20010904//EN"
 "http://www.w3.org/TR/2001/REC-SVG-20010904/DTD/svg10.dtd">
<svg version="1.0" xmlns="http://www.w3.org/2000/svg"
 width="768.000000pt" height="768.000000pt" viewBox="0 0 768.000000 768.000000"
 preserveAspectRatio="xMidYMid meet">
<metadata>
Created by potrace 1.10, written by Peter Selinger 2001-2011
</metadata>
<g transform="translate(0.000000,768.000000) scale(0.100000,-0.100000)"
fill="#f2d7d9" stroke="none">
<path d="M1055 7621 c-62 -21 -108 -45 -179 -93 -59 -41 -166 -153 -166 -175
0 -7 -3 -13 -8 -13 -13 0 -67 -117 -96 -205 -15 -46 -16 -336 -16 -3305 0
-2969 1 -3259 16 -3305 46 -142 111 -252 196 -330 74 -69 194 -145 228 -145 9
0 22 -6 29 -12 15 -16 178 -15 193 0 7 7 1 15 -19 25 -16 9 -35 23 -42 31 -8
9 -22 16 -33 16 -11 0 -32 8 -46 19 -15 10 -37 21 -49 25 -87 27 -282 227
-299 306 -3 14 -12 39 -19 55 -34 75 -36 136 -33 780 2 420 6 639 13 638 6 -2
12 -231 15 -650 3 -357 8 -653 13 -660 4 -6 12 -35 17 -64 6 -29 19 -62 29
-73 10 -12 24 -32 31 -46 24 -50 75 -120 87 -120 7 0 20 -11 29 -25 10 -15 52
-42 103 -66 68 -32 107 -43 186 -53 137 -18 5160 -12 5245 6 88 18 260 112
260 142 0 7 12 21 28 33 16 12 48 62 77 119 l49 99 5 190 c3 105 5 1549 5
3210 -1 2379 -3 3031 -13 3070 -7 28 -13 63 -14 79 -1 16 -8 31 -15 34 -6 2
-12 16 -12 30 0 16 -8 32 -20 40 -11 7 -20 18 -20 25 0 19 -145 153 -182 167
-18 7 -40 18 -48 25 -19 14 -57 31 -90 40 -34 10 -5143 15 -5252 5 -65 -5
-102 -15 -145 -35 -32 -16 -73 -36 -92 -44 -18 -9 -40 -26 -48 -38 -8 -12 -20
-23 -27 -25 -21 -5 -96 -97 -96 -118 0 -10 -11 -31 -24 -47 -14 -16 -33 -61
-43 -99 -16 -62 -18 -136 -23 -714 -3 -422 -8 -644 -15 -642 -7 1 -10 238 -10
685 0 672 0 683 21 717 11 19 28 57 37 83 34 100 153 219 282 283 83 41 215
118 215 125 0 7 -90 19 -135 18 -16 0 -52 -8 -80 -18z m5441 -207 c98 -39 133
-62 195 -123 38 -39 75 -87 88 -116 12 -27 29 -63 36 -78 13 -25 15 -456 15
-3262 0 -2920 -2 -3236 -16 -3271 -39 -98 -62 -133 -123 -195 -36 -36 -86 -74
-111 -85 -25 -12 -62 -28 -83 -37 -35 -16 -234 -17 -2677 -17 -1529 0 -2641 4
-2644 9 -3 5 -18 12 -33 15 -66 16 -107 42 -187 122 -58 58 -70 76 -113 169
-17 38 -18 166 -18 3285 0 3119 1 3247 18 3285 10 22 26 55 35 74 17 33 93
118 142 156 33 26 113 65 133 65 9 0 19 5 22 10 4 7 896 10 2644 10 2379 0
2642 -2 2677 -16z"/>
<path d="M1705 6943 c-144 -34 -240 -117 -287 -248 -17 -45 -18 -98 -18 -632
0 -565 1 -584 21 -635 45 -114 129 -193 241 -229 62 -19 96 -19 2175 -17 1673
2 2115 6 2125 16 6 6 22 12 34 12 12 0 27 7 34 15 7 8 18 15 24 15 15 0 116
102 116 118 0 7 4 12 9 12 4 0 18 28 30 63 20 62 21 78 21 638 0 490 -2 578
-15 603 -8 15 -15 36 -15 44 0 50 -122 172 -207 207 -47 20 -74 20 -2158 21
-1160 1 -2119 0 -2130 -3z m4275 -89 c75 -35 148 -118 174 -200 14 -42 15
-123 13 -604 l-2 -555 -28 -55 c-34 -66 -72 -111 -126 -144 -51 -33 -126 -52
-144 -38 -8 7 -18 7 -27 2 -15 -9 -3976 -3 -4117 6 -77 5 -86 8 -131 45 -27
21 -62 56 -78 76 -27 35 -29 45 -31 136 -1 54 -7 105 -13 112 -8 9 -8 15 0 20
5 3 10 19 10 35 0 16 -5 32 -10 35 -8 5 -8 11 -1 19 16 20 16 529 -1 555 -10
17 -10 25 0 41 15 24 16 96 1 106 -8 4 -8 9 0 17 14 14 14 94 1 102 -6 4 -7
12 -3 18 5 7 8 28 9 47 1 48 31 107 80 157 56 55 95 74 168 80 34 3 63 7 65 9
3 3 937 3 2075 2 l2071 -3 45 -21z"/>
<path d="M1683 6781 c-24 -16 -62 -48 -85 -72 l-43 -44 0 -585 c0 -525 2 -588
16 -615 17 -30 42 -57 94 -105 l28 -25 2061 -2 c1134 -1 2088 2 2121 6 52 5
68 13 113 50 29 24 52 49 52 56 0 7 7 26 16 44 10 20 18 66 20 119 2 48 9 97
15 109 9 17 9 26 0 37 -9 10 -12 84 -12 263 0 136 0 264 0 283 0 19 0 95 1
169 0 73 -3 138 -8 145 -5 6 -12 26 -15 44 -8 38 -62 94 -122 126 l-40 21
-2085 2 -2085 1 -42 -27z m4271 -104 l36 -33 0 -579 0 -579 -36 -33 -37 -33
-2104 0 -2104 0 -34 32 -35 31 0 581 0 581 32 32 33 32 2106 0 2106 1 37 -33z"/>
<path d="M1724 4655 c-10 -8 -27 -15 -36 -15 -28 0 -102 -83 -121 -136 -15
-43 -17 -90 -17 -380 0 -313 1 -334 21 -378 26 -59 76 -109 135 -135 45 -20
64 -21 458 -21 345 0 416 3 440 15 15 8 34 15 41 15 8 0 34 21 59 46 25 25 46
51 46 59 0 7 7 26 15 41 12 24 15 86 15 359 0 289 -2 336 -17 379 -18 50 -93
136 -118 136 -7 0 -26 7 -41 15 -43 22 -850 22 -880 0z m871 -75 c9 -8 27 -19
38 -25 34 -17 65 -72 72 -128 4 -29 5 -182 3 -342 -3 -319 -4 -325 -68 -379
-54 -45 -85 -48 -499 -44 l-388 3 -49 30 c-78 49 -82 70 -83 422 -1 342 4 377
59 427 22 20 52 38 67 42 16 3 33 7 38 9 6 2 186 3 401 2 326 -2 394 -4 409
-17z"/>
<path d="M1830 4520 c-43 -10 -115 -86 -124 -131 -3 -17 -6 -143 -6 -279 l0
-247 36 -46 c62 -79 68 -81 404 -87 346 -6 368 -2 437 70 24 24 45 58 49 75 3
16 4 143 2 282 l-3 251 -31 38 c-67 83 -46 79 -407 81 -177 1 -338 -2 -357 -7z
m712 -390 l0 -301 -377 0 -377 0 1 300 c0 166 0 302 1 304 0 1 169 1 376 0
l376 -2 0 -301z"/>
<path d="M3380 4655 c-14 -8 -32 -15 -40 -15 -34 -1 -94 -74 -117 -140 -18
-50 -18 -691 0 -740 22 -63 84 -139 113 -140 7 0 25 -7 40 -15 24 -12 94 -15
434 -15 361 0 410 2 454 17 50 18 136 93 136 118 0 7 7 26 15 41 22 43 22 685
0 728 -8 15 -15 35 -15 43 0 19 -88 103 -109 103 -9 0 -25 7 -35 15 -29 22
-838 22 -876 0z m905 -95 c71 -68 70 -59 73 -427 3 -284 1 -336 -12 -360 -24
-43 -49 -69 -87 -89 -32 -18 -62 -19 -445 -19 l-411 0 -42 29 c-79 55 -80 61
-81 423 -1 370 4 401 67 442 21 14 52 28 68 32 17 5 211 7 432 6 l402 -2 36
-35z"/>
<path d="M3474 4521 c-30 -13 -113 -99 -119 -124 -4 -12 -5 -140 -3 -284 l3
-262 45 -47 c72 -74 67 -73 428 -73 313 0 322 1 353 22 18 12 46 39 63 60 l31
39 3 273 3 272 -33 43 c-68 89 -46 85 -421 87 -183 1 -341 -2 -353 -6z m718
-391 l0 -301 -376 -2 c-207 -1 -376 1 -376 6 -3 84 0 589 4 595 2 4 171 6 376
5 l372 -2 0 -301z"/>
<path d="M5060 4655 c-14 -8 -32 -15 -40 -15 -33 -1 -93 -74 -117 -140 -18
-50 -18 -690 0 -740 22 -63 84 -139 113 -140 7 0 25 -7 40 -15 43 -22 835 -22
878 0 15 8 34 15 41 15 25 0 100 86 118 136 15 43 17 89 17 374 0 285 -2 331
-17 374 -18 50 -93 136 -118 136 -7 0 -26 7 -41 15 -42 22 -836 22 -874 0z
m888 -75 c13 -8 37 -37 55 -65 l32 -50 0 -335 0 -335 -28 -46 c-50 -84 -49
-84 -518 -84 l-406 0 -42 29 c-80 56 -81 61 -81 429 0 408 3 421 118 463 56
21 837 15 870 -6z"/>
<path d="M5154 4520 c-37 -15 -113 -99 -119 -133 -3 -18 -5 -145 -3 -284 l3
-252 49 -50 c32 -32 62 -53 90 -60 27 -8 147 -10 353 -9 349 3 331 -1 397 82
l31 38 3 241 c2 133 1 261 -3 284 -8 55 -69 125 -123 141 -46 14 -644 16 -678
2z m718 -390 l0 -301 -372 0 c-205 0 -374 2 -377 4 -5 6 -5 585 1 595 2 4 171
6 376 5 l372 -2 0 -301z"/>
<path d="M5075 3240 c-3 -5 -15 -10 -26 -10 -25 0 -83 -43 -110 -82 -48 -67
-48 -72 -48 -1223 0 -1151 0 -1156 48 -1223 27 -38 85 -82 108 -82 11 0 24 -5
29 -10 12 -12 820 -8 872 5 47 11 123 90 145 151 16 46 17 126 17 1159 0 1033
-1 1113 -17 1159 -23 64 -95 137 -151 154 -53 15 -857 18 -867 2z m896 -108
c40 -37 53 -56 60 -92 11 -60 11 -2187 0 -2228 -5 -17 -20 -50 -32 -72 -19
-33 -31 -42 -78 -57 -50 -16 -100 -18 -436 -18 -373 0 -381 0 -415 22 -50 31
-82 67 -97 111 -17 48 -19 2194 -2 2254 12 47 42 80 94 107 38 20 54 21 447
20 l408 0 51 -47z"/>
<path d="M5171 3075 c-59 -19 -89 -50 -107 -113 -14 -48 -15 -164 -10 -1060 5
-687 10 -1018 18 -1041 30 -96 108 -114 473 -109 228 3 275 6 300 20 48 26 81
69 94 120 8 33 11 332 11 1036 0 1084 1 1058 -59 1116 -17 17 -48 32 -73 37
-75 14 -597 10 -647 -6z m700 -1152 c0 -980 -2 -1098 -16 -1097 -8 0 -177 1
-375 2 l-360 2 0 1093 c0 602 2 1096 4 1098 2 2 171 3 375 2 l372 -2 0 -1098z"/>
<path d="M1724 3215 c-10 -8 -27 -15 -36 -15 -28 0 -102 -83 -121 -136 -15
-43 -17 -90 -17 -380 0 -313 1 -334 21 -378 26 -59 76 -109 135 -135 45 -20
64 -21 458 -21 345 0 416 3 440 15 15 8 34 15 41 15 8 0 34 21 59 46 25 25 46
51 46 59 0 7 7 26 15 41 12 24 15 86 15 359 0 289 -2 336 -17 379 -18 50 -93
136 -118 136 -7 0 -26 7 -41 15 -43 22 -850 22 -880 0z m871 -75 c9 -8 27 -19
38 -25 34 -17 65 -72 72 -128 4 -29 5 -182 3 -342 -3 -319 -4 -325 -68 -379
-54 -45 -85 -48 -499 -44 l-388 3 -49 30 c-78 49 -82 70 -83 422 -1 342 4 377
59 427 22 20 52 38 67 42 16 3 33 7 38 9 6 2 186 3 401 2 326 -2 394 -4 409
-17z"/>
<path d="M1830 3080 c-43 -10 -115 -86 -124 -131 -3 -17 -6 -143 -6 -279 l0
-247 36 -46 c62 -79 68 -81 404 -87 346 -6 368 -2 437 70 24 24 45 58 49 75 3
16 4 143 2 282 l-3 251 -31 38 c-67 83 -46 79 -407 81 -177 1 -338 -2 -357 -7z
m712 -390 l0 -301 -377 0 -377 0 1 300 c0 166 0 302 1 304 0 1 169 1 376 0
l376 -2 0 -301z"/>
<path d="M3380 3215 c-14 -8 -32 -15 -40 -15 -34 -1 -94 -74 -117 -140 -18
-50 -18 -691 0 -740 22 -63 84 -139 113 -140 7 0 25 -7 40 -15 24 -12 94 -15
434 -15 361 0 410 2 454 17 50 18 136 93 136 118 0 7 7 26 15 41 22 43 22 685
0 728 -8 15 -15 35 -15 43 0 19 -88 103 -109 103 -9 0 -25 7 -35 15 -29 22
-838 22 -876 0z m905 -95 c71 -68 70 -59 73 -427 3 -284 1 -336 -12 -360 -24
-43 -49 -69 -87 -89 -32 -18 -62 -19 -445 -19 l-411 0 -42 29 c-79 55 -80 61
-81 423 -1 370 4 401 67 442 21 14 52 28 68 32 17 4 211 7 432 6 l402 -2 36
-35z"/>
<path d="M3474 3081 c-30 -13 -113 -99 -119 -124 -4 -12 -5 -140 -3 -284 l3
-262 45 -47 c72 -74 67 -73 428 -73 313 0 322 1 353 22 18 12 46 39 63 60 l31
39 3 273 3 272 -33 43 c-68 89 -46 85 -421 87 -183 1 -341 -2 -353 -6z m718
-391 l0 -301 -376 -2 c-207 -1 -376 1 -376 6 -3 84 0 589 4 595 2 4 171 6 376
5 l372 -2 0 -301z"/>
<path d="M1724 1775 c-10 -8 -27 -15 -36 -15 -28 0 -102 -83 -121 -136 -15
-43 -17 -90 -17 -380 0 -313 1 -334 21 -378 26 -59 76 -109 135 -135 45 -20
64 -21 458 -21 345 0 416 3 440 15 15 8 34 15 41 15 17 0 105 88 105 105 0 7
7 26 15 41 12 24 15 86 15 359 0 289 -2 336 -17 379 -18 50 -93 136 -118 136
-7 0 -26 7 -41 15 -43 22 -850 22 -880 0z m871 -75 c9 -8 27 -19 38 -25 34
-17 65 -72 72 -128 4 -29 5 -182 3 -342 -3 -319 -4 -325 -68 -379 -54 -45 -85
-48 -499 -44 l-388 3 -49 30 c-78 49 -82 70 -83 422 -1 342 4 377 59 427 22
20 52 38 67 42 16 3 33 7 38 9 6 2 186 3 401 2 326 -2 394 -4 409 -17z"/>
<path d="M1830 1640 c-43 -10 -115 -86 -124 -131 -3 -17 -6 -143 -6 -279 l0
-247 36 -46 c62 -79 68 -81 404 -87 346 -6 368 -2 437 70 24 24 45 58 49 75 3
16 4 143 2 282 l-3 251 -31 38 c-67 83 -46 79 -407 81 -177 1 -338 -2 -357 -7z
m712 -390 l0 -301 -377 0 -377 0 1 300 c0 166 0 302 1 304 0 1 169 1 376 0
l376 -2 0 -301z"/>
<path d="M3380 1775 c-14 -8 -32 -15 -40 -15 -34 -1 -94 -74 -117 -140 -18
-50 -18 -691 0 -740 22 -63 84 -139 113 -140 7 0 25 -7 40 -15 24 -12 94 -15
434 -15 361 0 410 2 454 17 50 18 136 93 136 118 0 7 7 26 15 41 22 43 22 685
0 728 -8 15 -15 35 -15 43 0 17 -87 103 -105 103 -7 0 -26 7 -41 15 -42 22
-836 22 -874 0z m704 -59 l169 -5 34 -33 c69 -66 68 -58 71 -425 3 -284 1
-336 -12 -360 -24 -43 -49 -69 -87 -89 -32 -18 -62 -19 -445 -19 l-411 0 -42
29 c-79 55 -80 61 -81 423 -1 381 2 401 77 448 l48 30 200 5 c110 3 225 4 255
3 30 -1 131 -5 224 -7z"/>
<path d="M3474 1641 c-30 -13 -113 -99 -119 -124 -4 -12 -5 -140 -3 -284 l3
-262 45 -47 c72 -74 67 -73 428 -73 313 0 322 1 353 22 18 12 46 39 63 60 l31
39 3 273 3 272 -33 43 c-68 89 -46 85 -421 87 -183 1 -341 -2 -353 -6z m718
-391 l0 -301 -376 -2 c-207 -1 -376 1 -376 6 -3 84 0 589 4 595 2 4 171 6 376
5 l372 -2 0 -301z"/>
<path d="M6418 7633 c-16 -2 -28 -7 -28 -10 0 -7 44 -42 54 -43 4 0 29 -15 55
-33 25 -19 62 -40 81 -47 19 -8 53 -26 75 -41 22 -15 50 -30 63 -33 12 -4 22
-11 22 -16 0 -5 17 -27 38 -49 73 -77 134 -183 152 -263 6 -30 10 -851 10
-2412 0 -1302 3 -2714 6 -3139 3 -466 2 -814 -4 -877 -13 -135 -52 -240 -122
-328 -54 -66 -195 -178 -239 -189 -14 -3 -39 -16 -56 -28 -16 -13 -54 -35 -82
-49 -50 -25 -68 -45 -40 -47 6 0 40 -2 75 -5 68 -5 147 15 213 56 19 11 44 24
56 30 29 12 186 169 204 203 61 113 83 167 103 249 15 60 16 360 16 3268 0
2908 -1 3208 -16 3268 -20 82 -42 136 -103 249 -18 34 -175 191 -204 203 -12
6 -37 19 -55 30 -81 49 -177 68 -274 53z"/>
</g>
</svg>
