<?xml version="1.0" standalone="no"?>
<!DOCTYPE svg PUBLIC "-//W3C//DTD SVG 20010904//EN"
 "http://www.w3.org/TR/2001/REC-SVG-20010904/DTD/svg10.dtd">
<svg version="1.0" xmlns="http://www.w3.org/2000/svg"
 width="300.000000pt" height="213.000000pt" viewBox="0 0 300.000000 213.000000"
 preserveAspectRatio="xMidYMid meet">
<metadata>
Created by potrace 1.10, written by Peter Selinger 2001-2011
</metadata>
<g transform="translate(0.000000,213.000000) scale(0.050000,-0.050000)"
fill="#f2d7d9" stroke="none">
<path d="M2969 4179 c-7 -12 -26 -17 -41 -11 -54 21 -148 -11 -148 -50 0 -54
71 -85 139 -62 32 12 67 13 83 2 69 -43 218 6 218 73 0 41 -82 55 -151 27 -32
-13 -71 -22 -86 -20 -16 3 -21 -5 -13 -19 11 -17 4 -17 -28 0 -24 13 -53 17
-66 9 -14 -9 -17 -5 -7 10 8 14 28 20 43 14 38 -14 122 17 93 35 -12 8 -28 4
-36 -8z m199 -31 c59 -23 32 -48 -53 -50 -80 -3 -81 -4 -25 -18 46 -12 50 -16
17 -18 -92 -5 -114 20 -53 61 62 41 69 42 114 25z m-317 -26 c10 -10 37 -23
59 -29 22 -5 9 -8 -28 -7 -38 2 -73 15 -77 29 -10 29 18 33 46 7z"/>
<path d="M397 4125 c-41 -4 -85 -20 -98 -36 -13 -16 -34 -29 -46 -29 -13 0
-10 9 6 19 38 24 13 50 -31 33 -31 -12 -31 -15 -1 -49 39 -43 43 -83 8 -84
-14 0 2 -13 35 -28 33 -15 49 -28 35 -29 -14 -1 -25 -20 -25 -42 0 -27 -13
-40 -42 -40 -30 0 -39 9 -30 31 6 18 3 26 -8 19 -34 -21 -22 -50 30 -70 50
-19 69 -60 29 -60 -88 0 -132 82 -86 160 35 58 9 136 -35 109 -26 -16 -22 -69
4 -69 13 0 17 15 9 35 -11 28 -8 30 11 10 20 -19 18 -32 -10 -63 -48 -53 -51
-308 -4 -360 18 -19 32 -43 32 -54 0 -10 -9 -5 -19 12 -13 20 -26 23 -39 10
-41 -41 11 -83 53 -44 21 19 53 34 71 34 17 0 41 16 52 35 13 22 21 25 21 9 1
-15 10 -21 20 -15 45 28 -37 129 -105 130 -42 1 -68 -53 -39 -82 15 -15 20
-10 18 16 -2 21 10 37 27 37 49 0 36 -79 -14 -86 -56 -8 -96 60 -67 113 11 21
15 43 9 49 -6 6 21 3 60 -6 40 -9 72 -10 73 -3 0 7 9 -3 21 -22 24 -43 61 -47
45 -5 -8 21 2 30 32 30 26 0 38 9 30 22 -7 12 -34 16 -59 10 -97 -25 -106 44
-17 126 85 79 92 165 13 160 -34 -3 -34 -3 0 -12 48 -13 35 -76 -16 -76 -26 0
-42 16 -46 44 -8 56 60 96 113 67 21 -11 41 -16 46 -11 5 4 7 -24 6 -63 -1
-45 -15 -79 -36 -91 -19 -10 -29 -27 -22 -38 6 -10 19 -14 28 -9 9 6 23 -10
31 -34 12 -38 16 -40 24 -10 5 19 22 35 37 35 16 0 29 14 29 30 0 17 -12 30
-26 30 -33 0 -42 116 -12 152 55 67 167 -1 122 -73 -32 -52 13 -78 49 -28 17
23 20 41 7 49 -12 8 -8 27 11 51 18 22 25 26 18 9 -12 -24 -10 -25 12 -5 34
32 -4 78 -44 53 -24 -14 -115 -15 -197 0 -16 2 -63 1 -103 -3z"/>
<path d="M867 4115 c-5 -8 -2 -15 7 -16 128 -7 1785 3 1781 11 -8 17 -1778 22
-1788 5z"/>
<path d="M3327 4115 c-5 -8 -7 -15 -3 -15 218 -8 1794 1 1791 10 -7 19 -1777
24 -1788 5z"/>
<path d="M5249 4119 c-7 -12 1 -37 19 -57 18 -19 32 -50 32 -69 0 -19 14 -40
32 -46 25 -10 26 -16 5 -29 -22 -14 -21 -17 4 -18 16 0 51 15 76 32 34 24 52
27 69 10 16 -16 13 -22 -12 -22 -19 0 -34 -13 -34 -30 0 -16 14 -30 30 -30 17
0 30 -15 30 -33 0 -19 7 -27 15 -19 26 26 17 152 -10 152 -15 0 -35 23 -45 50
-19 49 -67 67 -89 32 -6 -9 5 -16 24 -15 45 4 46 -54 1 -63 -55 -11 -82 64
-37 105 50 45 113 25 138 -45 11 -30 21 -40 21 -22 4 76 162 131 162 55 0 -10
9 -14 20 -7 11 7 20 -6 20 -28 0 -22 -10 -46 -23 -54 -16 -10 -18 -5 -6 14 14
24 12 24 -16 1 -38 -30 -75 -15 -75 30 0 20 11 27 31 19 18 -6 26 -3 19 8 -20
33 -50 23 -67 -23 -13 -34 0 -58 65 -120 88 -84 157 -95 169 -27 7 40 7 40
-24 0 -36 -47 -87 -16 -66 40 28 72 103 27 105 -62 l2 -83 -67 16 c-47 10 -64
8 -56 -8 6 -13 -4 -3 -23 22 -37 51 -73 60 -55 15 8 -21 -2 -30 -31 -30 -23 0
-42 -9 -42 -20 0 -11 18 -20 39 -20 27 0 36 -10 28 -30 -15 -41 26 -38 49 3
14 25 22 26 34 7 10 -16 3 -36 -17 -50 -18 -14 -33 -46 -33 -72 1 -45 3 -44
42 17 46 72 90 84 104 30 9 -33 9 -33 12 0 1 21 -19 44 -48 55 -55 21 -68 60
-20 60 75 0 125 -91 83 -150 -27 -37 -96 -61 -87 -30 2 9 -5 17 -16 18 -38 4
-20 -48 20 -55 22 -4 56 -21 75 -39 45 -40 100 -1 58 41 -20 20 -29 19 -44 -5
-10 -17 -19 -22 -19 -12 0 11 14 34 31 53 46 51 44 309 -3 361 -28 31 -30 44
-10 63 19 20 22 18 11 -10 -8 -20 -4 -35 9 -35 27 0 29 53 3 70 -11 6 -31 -6
-44 -27 -28 -45 -77 -35 -77 16 0 84 -300 153 -399 92 -10 -7 -24 -3 -31 9
-16 26 -44 26 -61 -1z"/>
<path d="M542 4015 c-18 -48 52 -115 118 -115 17 1 1 19 -35 42 -72 46 -84 90
-30 104 33 9 33 10 -1 12 -20 1 -43 -18 -52 -43z"/>
<path d="M2855 3767 c-194 -144 -93 -428 152 -426 163 1 269 152 218 309 -49
148 -243 210 -370 117z"/>
<path d="M138 3366 c-8 -37 10 -604 18 -586 3 6 6 143 6 306 2 276 -6 366 -24
280z"/>
<path d="M5840 3380 c-7 -87 0 -586 8 -595 16 -15 24 553 8 591 -10 27 -14 28
-16 4z"/>
<path d="M1726 3160 c-107 -43 -130 -187 -39 -250 55 -39 161 -38 193 0 36 43
9 62 -30 22 -90 -89 -212 79 -130 178 32 39 118 39 133 0 12 -33 47 -41 47
-11 0 63 -90 95 -174 61z"/>
<path d="M2453 3135 c-10 -37 17 -48 37 -15 7 11 25 20 41 20 37 0 41 -200 5
-236 -19 -19 -7 -24 54 -24 61 0 73 5 54 24 -43 43 -31 236 14 236 21 0 43
-11 49 -25 6 -15 10 -11 11 9 1 22 13 31 32 23 37 -14 42 -207 6 -243 -19 -19
-7 -24 54 -24 61 0 73 5 54 24 -32 32 -32 230 1 243 26 10 -16 13 -259 19
-122 3 -145 -1 -153 -31z"/>
<path d="M3389 3161 c-103 -42 -131 -179 -50 -244 55 -45 167 -48 201 -7 36
43 9 62 -30 22 -87 -86 -209 55 -140 161 35 53 125 64 143 17 15 -38 47 -39
47 -1 0 57 -91 84 -171 52z"/>
<path d="M3729 3164 c-12 -8 -38 -54 -57 -104 -19 -49 -48 -110 -64 -135 -28
-43 -27 -45 34 -45 53 0 59 5 39 29 -30 36 -11 71 39 71 50 0 69 -35 39 -71
-20 -25 -12 -29 52 -29 70 0 73 2 44 35 -17 19 -48 86 -68 149 -23 71 -45 109
-58 100z"/>
<path d="M3860 3131 c0 -30 5 -34 24 -15 13 13 36 24 50 24 34 0 36 -202 2
-236 -19 -19 -7 -24 54 -24 61 0 73 5 54 24 -44 44 -31 236 16 236 22 0 40
-11 40 -25 1 -17 7 -15 20 5 31 48 27 50 -120 50 -125 0 -140 -4 -140 -39z"/>
<path d="M1956 3136 c31 -31 31 -201 0 -232 -19 -19 -1 -24 78 -24 74 0 105 9
114 32 18 48 14 58 -12 32 -46 -46 -116 -29 -116 28 0 45 7 51 47 41 33 -9 46
-3 46 17 0 20 -13 26 -46 17 -40 -10 -47 -4 -47 41 0 57 52 72 96 28 19 -19
24 -16 24 10 0 28 -19 34 -104 34 -81 0 -99 -5 -80 -24z"/>
<path d="M2195 3147 c33 -13 33 -211 1 -243 -19 -19 -9 -24 44 -24 53 0 63 5
44 24 -32 32 -32 118 1 105 14 -5 40 -36 59 -69 33 -58 136 -88 136 -40 0 11
-12 20 -27 20 -59 0 -121 95 -85 130 64 65 18 111 -107 108 -50 0 -80 -6 -66
-11z m135 -58 c0 -21 -16 -41 -35 -45 -35 -7 -51 54 -21 83 23 24 56 1 56 -38z"/>
<path d="M2915 3147 c33 -13 33 -211 1 -243 -19 -19 -6 -24 55 -24 43 0 68 7
56 16 -57 35 -56 130 0 120 34 -7 53 -2 53 14 0 16 -19 21 -52 15 -45 -9 -51
-4 -45 37 8 54 73 77 99 35 14 -21 17 -19 18 8 0 29 -18 35 -105 33 -58 0 -94
-6 -80 -11z"/>
<path d="M3135 3147 c33 -13 33 -211 1 -243 -19 -19 -7 -24 54 -24 61 0 73 5
54 24 -32 32 -32 230 1 243 14 5 -11 10 -55 10 -44 0 -69 -5 -55 -10z"/>
<path d="M4177 3037 c5 -87 -1 -127 -20 -139 -17 -11 16 -18 86 -18 107 0 168
38 125 78 -8 7 -17 1 -22 -13 -18 -50 -106 -29 -106 25 0 52 48 70 67 25 5
-14 11 -6 11 18 2 34 -7 41 -38 33 -32 -9 -40 -1 -40 42 0 57 52 72 96 28 19
-19 24 -16 24 10 0 27 -19 34 -95 34 l-95 0 7 -123z"/>
<path d="M112 2728 c-23 -59 -14 -232 11 -216 15 9 18 5 9 -9 -8 -13 -4 -72 9
-132 22 -97 21 -112 -11 -143 -33 -34 -33 -36 3 -50 20 -9 26 -16 12 -17 -33
-1 -33 -115 0 -126 19 -6 19 -33 -3 -127 -55 -232 -47 -438 16 -399 28 17 29
85 0 95 -15 5 -11 45 12 127 53 185 58 262 21 339 -29 63 -30 75 -2 129 42 79
39 137 -13 316 -33 112 -38 154 -20 160 33 11 30 85 -4 85 -15 0 -33 -14 -40
-32z"/>
<path d="M1901 2721 c-42 -77 42 -162 119 -121 44 24 53 99 16 136 -37 37
-112 29 -135 -15z m115 -46 c5 -44 -1 -55 -35 -55 -32 0 -41 13 -41 61 0 81
67 76 76 -6z"/>
<path d="M2090 2680 c0 -62 8 -80 34 -80 23 0 31 11 23 30 -7 19 1 30 21 30
18 0 32 10 32 22 0 12 -13 17 -30 11 -19 -7 -30 0 -30 20 0 20 11 27 30 20 17
-7 30 -3 30 8 0 10 -25 19 -55 19 -51 0 -55 -6 -55 -80z"/>
<path d="M2305 2680 c-38 -77 -38 -80 -3 -80 26 0 33 10 24 33 -9 22 -4 29 16
22 15 -5 26 -20 23 -32 -3 -13 12 -23 34 -23 36 0 37 4 10 55 -16 30 -29 66
-29 80 0 50 -37 23 -75 -55z"/>
<path d="M2464 2736 c-58 -58 25 -174 103 -144 51 19 39 40 -22 39 -46 -1 -55
8 -55 49 0 41 9 50 55 49 30 0 55 7 55 15 0 25 -109 19 -136 -8z"/>
<path d="M2630 2680 c0 -62 8 -80 34 -80 23 0 31 11 23 30 -8 21 2 30 33 30
31 0 41 -9 33 -30 -7 -17 -1 -30 13 -30 15 0 24 30 24 80 0 47 -10 80 -23 80
-12 0 -21 -15 -20 -34 2 -19 -14 -38 -35 -42 -30 -6 -35 1 -27 34 8 30 2 42
-22 42 -25 0 -33 -19 -33 -80z"/>
<path d="M2830 2680 c0 -58 8 -80 30 -80 22 0 30 22 30 80 0 58 -8 80 -30 80
-22 0 -30 -22 -30 -80z"/>
<path d="M2930 2680 c0 -74 4 -80 55 -80 30 0 55 9 55 19 0 11 -13 15 -30 8
-16 -6 -30 -1 -30 11 0 12 9 22 20 22 11 0 20 10 20 21 0 12 -9 16 -20 9 -11
-7 -20 3 -20 21 0 21 11 29 30 22 17 -7 30 -3 30 8 0 10 -25 19 -55 19 -51 0
-55 -6 -55 -80z"/>
<path d="M3090 2686 c42 -101 42 -101 87 -8 31 65 34 82 11 82 -15 0 -28 -18
-28 -40 0 -22 -9 -40 -20 -40 -11 0 -20 18 -20 40 0 22 -13 40 -30 40 -27 0
-27 -8 0 -74z"/>
<path d="M3240 2680 c0 -76 3 -80 60 -80 33 0 60 8 60 18 0 10 -18 14 -40 8
-22 -6 -40 -1 -40 12 0 12 14 22 30 22 17 0 30 9 30 20 0 11 -10 18 -22 15
-13 -3 -28 8 -33 23 -8 20 1 25 32 17 24 -6 43 -3 43 7 0 10 -27 18 -60 18
-57 0 -60 -4 -60 -80z"/>
<path d="M3390 2680 c0 -83 29 -115 31 -35 l2 45 18 -46 c20 -49 59 -43 59 8
0 17 -8 25 -18 19 -10 -6 -23 12 -30 39 -20 81 -62 60 -62 -30z"/>
<path d="M3514 2734 c-15 -41 8 -134 33 -134 13 0 23 34 23 80 0 77 -34 110
-56 54z"/>
<path d="M3610 2680 c0 -77 3 -80 65 -80 36 0 65 8 65 18 0 10 -18 14 -40 8
-22 -6 -40 -1 -40 12 0 12 9 22 20 22 11 0 20 10 20 21 0 12 -9 16 -20 9 -11
-7 -20 3 -20 21 0 21 11 29 30 22 17 -7 30 -3 30 8 0 10 -25 19 -55 19 -51 0
-55 -6 -55 -80z"/>
<path d="M3757 2680 c4 -44 14 -80 22 -80 9 0 11 25 6 55 l-10 55 58 -55 c76
-71 87 -69 87 11 0 52 8 66 42 69 37 2 41 -6 34 -65 -6 -51 1 -70 26 -76 29
-8 32 3 23 72 -10 69 -6 79 21 68 18 -7 38 -4 45 7 7 11 -39 19 -112 19 l-123
0 13 -55 14 -55 -58 55 c-78 75 -97 69 -88 -25z"/>
<path d="M5820 2722 c0 -21 11 -42 24 -47 18 -6 13 -48 -20 -160 -57 -197 -46
-383 20 -342 11 6 -1 -27 -24 -74 -49 -95 -47 -172 9 -368 24 -82 28 -122 13
-127 -29 -10 -28 -78 0 -95 63 -39 71 167 16 399 -22 94 -22 121 -3 127 33 11
34 199 1 210 -19 6 -18 33 1 121 14 62 19 124 11 137 -9 14 -6 18 9 9 25 -16
34 157 11 216 -17 45 -68 40 -68 -6z"/>
<path d="M2075 2250 c5 -27 17 -45 26 -39 10 6 12 23 6 40 -6 16 -1 29 11 29
12 0 23 -20 24 -45 0 -25 5 -36 10 -24 5 11 40 17 78 13 60 -7 70 -3 70 34 0
48 -108 63 -127 17 -8 -20 -10 -20 -11 0 -1 14 -23 25 -49 25 -40 0 -46 -8
-38 -50z"/>
<path d="M2420 2250 c0 -41 8 -48 45 -41 25 4 52 9 61 10 9 0 11 9 5 20 -6 10
-3 23 7 30 11 6 23 -9 28 -34 l9 -45 2 45 c4 54 43 61 43 8 0 -20 14 -36 30
-36 17 0 30 7 30 16 0 9 11 12 25 7 68 -24 135 -26 135 -4 1 16 6 17 15 3 24
-33 70 -22 87 21 14 38 15 38 17 -5 1 -46 29 -60 50 -26 6 10 2 24 -11 32 -16
10 -14 19 5 31 18 12 2 17 -47 18 -63 0 -73 -6 -63 -35 11 -30 8 -30 -17 3
-27 34 -31 34 -42 5 -14 -37 -74 -45 -74 -11 0 12 14 17 30 11 17 -7 30 -4 30
5 0 35 -157 21 -166 -14 -9 -31 -10 -31 -12 1 -3 45 -162 45 -162 1 0 -16 -9
-23 -20 -16 -12 7 -15 21 -9 31 6 11 2 19 -10 19 -11 0 -21 -22 -21 -50z"/>
<path d="M3040 2252 c0 -38 8 -46 40 -38 22 6 40 27 40 48 0 25 -14 38 -40 38
-29 0 -40 -13 -40 -48z"/>
<path d="M3160 2245 c0 -51 1 -51 29 -14 23 30 30 32 30 9 1 -30 16 -31 276
-22 26 1 45 15 45 32 0 17 10 30 22 30 12 0 17 -13 11 -29 -6 -17 -3 -35 8
-42 10 -6 20 9 20 35 2 45 2 45 19 4 12 -31 31 -41 70 -37 66 7 78 19 63 58
-15 40 -233 45 -233 6 -1 -19 -5 -18 -17 1 -23 36 -155 24 -148 -12 4 -15 -3
-21 -15 -14 -11 7 -15 21 -9 31 6 11 2 19 -10 19 -11 0 -21 -13 -21 -30 0 -16
-9 -30 -20 -30 -11 0 -18 11 -15 24 3 13 -20 26 -50 29 -47 4 -55 -3 -55 -48z"/>
<path d="M3794 2260 c16 -59 46 -70 47 -16 l2 46 18 -45 c20 -51 85 -41 75 12
-4 21 -31 34 -79 38 -65 5 -72 1 -63 -35z"/>
<path d="M2204 1936 c-14 -14 -65 -26 -113 -27 -91 0 -151 -34 -151 -84 0 -20
13 -26 39 -19 37 9 37 7 7 -39 -44 -68 -106 -99 -127 -65 -9 15 -23 21 -30 14
-22 -22 11 -56 55 -56 42 0 196 143 196 182 0 11 -9 15 -20 8 -11 -7 -20 -4
-20 6 0 10 27 19 60 20 66 2 66 -3 -14 -112 -65 -86 -50 -122 17 -44 30 33 49
60 43 60 -6 0 13 32 43 71 54 70 65 135 15 85z"/>
<path d="M2658 1875 c-34 -47 -71 -82 -83 -79 -11 3 -42 -14 -68 -39 l-47 -44
0 44 c0 59 -32 54 -113 -17 -78 -68 -119 -79 -83 -21 13 21 32 37 42 35 11 -2
23 7 28 21 16 43 -31 27 -90 -30 -31 -30 -52 -53 -47 -50 5 2 21 -5 35 -17 17
-14 37 -14 64 0 26 14 45 13 60 -2 16 -16 31 -15 53 3 21 18 39 20 56 6 39
-32 121 -20 126 19 3 18 37 76 77 127 67 88 87 129 62 129 -5 0 -38 -38 -72
-85z"/>
<path d="M3450 1825 c-101 -153 -114 -205 -26 -104 29 32 48 59 42 59 -6 0 13
32 43 71 30 38 50 81 46 94 -5 14 -52 -41 -105 -120z"/>
<path d="M3895 1823 c-90 -117 -107 -211 -25 -143 23 19 37 21 47 6 21 -35
179 -18 218 23 19 20 24 30 10 23 -17 -10 -25 3 -25 41 0 67 -44 35 -48 -35
-1 -25 -13 -47 -27 -50 -15 -3 -17 0 -5 5 11 6 20 19 20 30 0 11 -20 5 -44
-12 -50 -35 -76 -39 -76 -14 0 9 24 27 53 41 40 18 47 30 30 47 -17 17 -34 12
-68 -17 -142 -125 -142 -114 1 81 98 134 46 111 -61 -26z"/>
<path d="M3220 1900 c-39 -24 -45 -197 -8 -249 16 -22 28 -29 28 -15 0 14 22
35 50 47 65 30 84 92 38 126 -32 24 -31 28 19 61 30 19 59 30 65 24 7 -6 -14
-25 -45 -42 -34 -18 -44 -31 -25 -31 38 -1 104 66 85 86 -24 24 -60 14 -137
-38 -84 -57 -126 -47 -53 13 49 39 37 52 -17 18z m76 -174 c-25 -27 -48 -39
-52 -27 -4 12 -17 15 -29 8 -14 -8 -15 -3 -5 15 35 61 53 73 92 63 39 -10 39
-11 -6 -59z"/>
<path d="M2793 1775 c-11 -42 -13 -42 -38 -9 -31 43 -86 28 -117 -31 -34 -63
6 -82 89 -42 40 19 73 42 73 51 0 9 10 16 23 16 14 0 9 -16 -11 -38 -25 -27
-28 -42 -12 -52 13 -8 34 -3 47 11 18 19 16 21 -7 8 -20 -10 -17 -2 7 27 34
38 35 45 7 73 -41 41 -47 39 -61 -14z"/>
<path d="M3740 1793 c0 -15 -18 -43 -40 -63 -22 -20 -40 -26 -40 -14 0 12 9
27 20 34 38 23 20 46 -31 41 -28 -3 -74 -27 -102 -53 l-50 -48 14 55 c8 35 5
55 -9 55 -12 0 -20 -7 -18 -15 3 -8 -6 -35 -20 -59 -16 -28 -17 -48 -4 -56 11
-7 20 -4 20 5 0 10 14 18 30 18 17 0 30 -6 30 -14 0 -8 22 -13 50 -12 27 2 50
11 50 21 0 10 6 13 13 5 8 -7 32 3 54 22 37 33 39 33 27 1 -14 -40 21 -69 49
-41 13 13 7 32 -17 56 -32 33 -33 35 -2 24 50 -19 61 13 15 41 -31 20 -39 19
-39 -3z"/>
<path d="M2154 1748 c-20 -27 -30 -58 -23 -70 8 -12 25 2 42 34 38 73 26 96
-19 36z"/>
<path d="M2912 1758 c-54 -43 -44 -98 18 -98 32 0 128 78 97 79 -12 1 -33 -12
-47 -29 -27 -33 -60 -40 -60 -13 0 9 23 27 51 40 28 13 46 32 39 43 -18 29
-39 25 -98 -22z"/>
<path d="M2385 1525 c338 -3 892 -3 1230 0 338 3 62 6 -615 6 -676 0 -953 -3
-615 -6z"/>
<path d="M136 1198 c-3 -155 1 -292 9 -305 8 -13 15 -14 15 -3 9 204 7 590 -4
590 -8 0 -17 -127 -20 -282z"/>
<path d="M5834 1205 c5 -358 4 -339 21 -312 19 29 8 587 -11 587 -8 0 -12
-124 -10 -275z"/>
<path d="M1049 1279 c0 -45 12 -49 50 -14 22 20 24 20 12 -1 -11 -20 24 -25
167 -22 171 3 182 5 182 45 -1 32 -5 36 -18 16 -10 -16 -22 -19 -29 -8 -18 29
-164 20 -158 -10 3 -14 -4 -25 -15 -25 -11 0 -20 14 -20 30 0 17 -9 30 -20 30
-11 0 -20 -14 -20 -31 0 -17 -9 -26 -20 -19 -12 7 -16 20 -11 28 5 9 -15 17
-45 18 -42 1 -55 -8 -55 -37z"/>
<path d="M1502 1285 c-23 -44 -21 -45 87 -42 67 1 111 11 111 25 0 12 8 10 18
-5 14 -23 22 -21 39 10 20 34 22 34 22 2 1 -19 16 -35 33 -35 26 0 28 6 10 28
-18 22 -18 31 2 39 14 6 -39 10 -119 9 -119 -1 -145 -7 -146 -34 -1 -24 -6
-23 -17 8 -15 38 -16 38 -40 -5z"/>
<path d="M1860 1283 c0 -31 18 -37 109 -40 98 -4 108 0 106 37 -2 22 -16 40
-31 40 -18 0 -24 -13 -16 -35 11 -32 9 -32 -16 1 -28 36 -29 36 -50 0 -20 -34
-21 -34 -22 4 0 33 -4 35 -20 10 -13 -20 -19 -22 -20 -5 0 14 -9 25 -20 25
-11 0 -20 -17 -20 -37z"/>
<path d="M2100 1282 c0 -46 243 -60 295 -18 17 15 25 14 25 -2 0 -12 27 -22
59 -22 45 0 57 7 48 30 -6 17 -2 30 9 30 12 0 25 -16 30 -35 9 -33 9 -33 12 0
3 43 42 47 42 4 0 -23 17 -30 65 -25 130 12 79 65 -70 72 -111 5 -135 0 -135
-25 0 -17 -9 -31 -20 -31 -11 0 -20 12 -20 26 0 39 -80 38 -81 -2 -2 -28 -5
-27 -19 6 -9 22 -18 28 -19 13 -1 -19 -9 -22 -26 -9 -54 41 -195 33 -195 -12z"/>
<path d="M2796 1275 c10 -37 14 -38 20 -10 4 19 16 35 28 35 11 0 16 -12 10
-27 -7 -19 12 -27 70 -30 67 -2 77 2 58 25 -18 22 -18 31 2 38 17 7 15 11 -8
12 -18 1 -37 -14 -42 -33 -8 -30 -10 -29 -12 5 -2 33 -6 35 -22 10 -13 -20
-19 -22 -20 -5 0 14 -22 25 -48 25 -40 0 -46 -7 -36 -45z"/>
<path d="M3020 1283 c0 -33 22 -36 239 -39 220 -3 238 -1 236 33 -3 30 -22 38
-102 40 -92 4 -97 1 -71 -32 26 -33 25 -33 -14 0 -52 44 -168 47 -168 5 0 -16
-10 -30 -22 -30 -12 0 -17 14 -11 30 9 22 -2 30 -38 30 -34 0 -49 -11 -49 -37z"/>
<path d="M3529 1282 c0 -36 18 -38 265 -41 265 -3 266 -2 266 43 -1 34 -5 39
-18 19 -14 -22 -20 -22 -33 -1 -12 19 -20 16 -31 -13 -13 -34 -15 -35 -17 -4
-1 43 -41 47 -41 5 0 -16 -9 -30 -20 -30 -11 0 -20 13 -20 30 0 43 -194 37
-220 -8 -17 -29 -19 -29 -19 3 -1 25 -17 35 -57 35 -41 0 -55 -10 -55 -38z"/>
<path d="M4100 1281 c0 -30 13 -38 60 -37 57 2 95 76 39 76 -12 0 -15 -11 -7
-25 11 -20 8 -20 -13 0 -40 37 -79 30 -79 -14z"/>
<path d="M4246 1278 c2 -37 19 -38 363 -36 199 2 350 7 336 12 -14 5 -25 21
-25 36 0 43 -275 36 -287 -7 -7 -28 -9 -28 -11 2 -3 43 -42 47 -42 5 0 -16
-10 -30 -22 -30 -12 0 -17 13 -11 29 9 24 -17 29 -147 29 -144 0 -157 -4 -154
-40z"/>
<path d="M3725 817 c-14 -14 -25 -36 -25 -50 0 -14 -19 -43 -42 -64 -41 -39
-41 -39 75 -40 64 0 161 -7 215 -15 72 -10 94 -8 84 9 -8 13 -43 24 -78 25
-81 3 -157 24 -155 43 3 42 -3 41 -38 -5 -49 -63 -75 -40 -31 28 38 58 34 108
-5 69z"/>
<path d="M3594 709 c-40 -82 -42 -95 -12 -85 11 4 20 14 19 22 -1 8 12 41 29
74 17 33 23 60 14 60 -9 0 -32 -32 -50 -71z"/>
<path d="M109 739 c-7 -11 -3 -32 9 -47 12 -14 17 -31 10 -37 -27 -28 -11
-318 20 -353 18 -19 32 -43 32 -54 0 -10 -9 -5 -19 11 -24 39 -50 13 -33 -32
13 -32 16 -32 47 0 28 28 30 41 10 73 -42 67 -31 139 25 160 65 25 64 47 -1
35 -28 -5 -46 -5 -40 0 5 6 1 27 -10 48 -26 48 9 117 60 117 38 0 69 -50 50
-82 -23 -37 -74 -19 -63 22 6 22 2 35 -8 29 -29 -18 -21 -69 13 -82 54 -21
129 34 127 91 0 29 -6 41 -11 28 -6 -16 -22 -11 -49 16 -22 22 -47 35 -56 29
-10 -6 -29 3 -42 19 -29 35 -53 38 -71 9z"/>
<path d="M5813 730 c-7 -16 -30 -30 -51 -30 -22 0 -49 -16 -60 -35 -13 -22
-21 -25 -21 -9 -1 15 -9 21 -19 15 -56 -35 50 -143 119 -121 40 13 53 59 21
79 -9 6 -16 -5 -15 -24 4 -45 -54 -46 -63 -1 -12 61 70 84 106 29 60 -91 4
-136 -161 -127 -44 2 -80 -5 -80 -16 1 -11 47 -18 106 -16 90 4 109 -1 135
-42 31 -46 23 -112 -14 -112 -10 0 -16 -20 -12 -45 7 -51 76 -75 76 -26 0 17
-9 31 -20 31 -11 0 -20 -11 -20 -23 0 -13 -6 -18 -13 -10 -7 7 2 30 21 51 33
37 52 328 23 357 -6 6 -1 23 11 37 12 15 16 36 9 47 -19 31 -65 26 -78 -9z"/>
<path d="M1896 685 l-8 -55 161 7 c89 4 168 18 177 30 10 14 14 7 10 -17 -6
-37 -26 -41 -266 -51 -164 -7 -47 -11 320 -11 433 0 501 3 266 11 -273 10
-312 15 -296 41 11 17 20 37 20 45 0 26 -136 16 -147 -10 -8 -20 -10 -20 -11
0 -2 32 -122 33 -122 2 0 -13 -17 -4 -37 20 -49 56 -57 54 -67 -12z"/>
<path d="M2329 680 c0 -31 13 -40 62 -40 42 0 62 10 62 30 0 36 -66 40 -80 5
-6 -15 -10 -11 -11 10 -3 49 -33 44 -33 -5z"/>
<path d="M2527 679 c61 -48 73 -49 73 -2 0 27 -16 37 -61 39 l-61 1 49 -38z"/>
<path d="M2625 680 c-2 -27 10 -40 36 -40 20 0 47 18 59 40 19 36 15 40 -35
40 -42 0 -57 -10 -60 -40z"/>
<path d="M3340 599 l-210 -11 173 -4 c174 -4 211 -25 199 -109 -1 -8 15 -15
37 -15 21 0 44 -9 52 -21 8 -14 20 -14 37 -1 13 11 84 22 158 24 174 5 196 58
24 58 -75 0 -110 -8 -110 -25 -1 -18 -6 -17 -18 3 -11 16 -35 23 -60 17 -23
-6 -42 -3 -42 7 0 10 -15 18 -34 18 -22 0 -27 7 -14 20 10 10 183 22 389 25
l369 5 -370 10 c-203 6 -464 5 -580 -1z"/>
<path d="M327 530 c-6 -16 -19 -25 -28 -19 -9 5 -15 -8 -14 -30 2 -28 10 -33
27 -19 17 14 23 10 21 -14 -2 -19 10 -38 25 -44 19 -6 24 1 17 21 -8 21 3 35
31 44 l44 13 -46 19 c-26 10 -41 28 -34 39 7 11 3 20 -9 20 -12 0 -27 -13 -34
-30z"/>
<path d="M2180 500 c0 -35 13 -40 110 -40 84 0 110 7 110 30 0 36 -72 40 -87
5 -8 -19 -10 -19 -11 1 -1 15 -11 21 -22 14 -11 -7 -20 -3 -20 9 0 11 -18 21
-40 21 -27 0 -40 -13 -40 -40z"/>
<path d="M471 421 c-8 -12 -8 -38 -2 -58 26 -83 -44 -92 -118 -15 -70 71 -136
92 -162 50 -7 -12 -3 -32 10 -45 18 -17 20 -14 9 14 -11 29 -6 35 24 30 47 -9
59 -63 22 -100 -23 -24 -24 -32 -1 -53 18 -17 27 -18 27 -4 0 12 8 17 19 11
10 -6 24 -3 31 9 22 36 70 21 70 -22 0 -30 -9 -39 -31 -30 -18 6 -26 3 -19 -8
21 -34 50 -22 70 30 11 28 35 50 56 50 30 0 36 13 31 73 -6 81 -17 100 -36 68z"/>
<path d="M5500 400 c0 -31 -9 -41 -30 -33 -16 7 -30 3 -30 -8 0 -11 13 -25 30
-32 16 -6 25 -19 19 -29 -17 -27 7 -22 62 14 54 36 67 79 18 60 -17 -6 -26 -4
-20 6 6 10 -3 29 -19 42 -25 21 -30 18 -30 -20z"/>
<path d="M5655 356 c-75 -77 -95 -141 -53 -167 12 -7 32 -3 45 10 17 18 16 22
-6 17 -16 -3 -32 10 -36 29 -10 46 66 48 92 2 15 -28 22 -29 48 -5 26 24 26
31 -3 54 -24 20 -25 23 -2 13 24 -12 25 -10 5 12 -38 41 -30 79 17 79 32 0 39
-9 29 -35 -11 -28 -8 -30 12 -10 19 19 20 30 1 49 -42 42 -72 32 -149 -48z"/>
<path d="M618 347 c-59 -16 -91 -103 -52 -142 25 -24 40 -27 56 -11 16 16 13
21 -13 19 -47 -4 -61 44 -18 60 22 8 44 1 59 -20 30 -41 50 -42 50 -4 0 16
-16 38 -35 49 -19 12 -24 21 -10 21 14 1 25 10 25 21 0 21 -7 21 -62 7z"/>
<path d="M5340 320 c19 -12 21 -20 6 -20 -14 0 -35 -19 -47 -42 -16 -30 -16
-39 -1 -29 40 24 23 -12 -23 -49 -35 -29 -40 -42 -21 -62 18 -18 31 -19 52 -1
15 12 33 18 39 11 34 -34 321 -11 362 30 23 23 31 42 19 42 -13 0 -29 -9 -36
-21 -24 -37 -166 -17 -155 22 4 19 -1 41 -13 48 -13 8 -22 -3 -22 -27 0 -55
-68 -90 -120 -62 -22 12 -40 38 -40 59 0 38 50 69 82 50 30 -19 20 -66 -17
-75 -33 -9 -33 -10 1 -12 48 -3 65 50 33 109 -17 33 -43 49 -77 49 -41 -1 -46
-5 -22 -20z"/>
<path d="M482 245 c-5 -71 -162 -132 -162 -63 0 29 -73 20 -100 -12 -20 -24
-18 -32 9 -42 44 -17 68 9 30 33 -16 10 -21 19 -11 19 11 0 34 -14 53 -31 53
-48 334 -44 370 5 22 30 31 31 53 10 21 -22 20 -24 -9 -13 -20 8 -35 4 -35 -9
0 -12 18 -22 40 -22 22 0 40 13 40 29 0 43 -74 58 -121 24 -56 -39 -113 -20
-136 44 -11 29 -21 42 -21 28z"/>
<path d="M2966 215 c-9 -14 -52 -25 -96 -25 -67 0 -81 -7 -86 -44 -7 -49 62
-79 137 -60 22 6 71 2 109 -9 84 -23 196 25 186 79 -7 39 -98 56 -149 28 -25
-15 -16 -19 39 -17 40 2 71 -6 68 -17 -5 -22 -51 -22 -152 1 -52 12 -65 9 -53
-10 12 -20 7 -20 -27 -2 -48 25 -57 51 -13 34 17 -6 35 -2 42 8 6 11 20 15 30
8 10 -6 13 3 7 20 -15 38 -21 38 -42 6z m-78 -112 c-58 -7 -100 22 -80 54 8
13 34 9 72 -13 l60 -34 -52 -7z"/>
<path d="M870 160 c-8 -12 -10 -27 -4 -33 21 -20 1784 -7 1791 13 4 14 -264
21 -832 19 -461 -1 -862 4 -890 11 -30 8 -56 4 -65 -10z"/>
<path d="M5057 170 c-7 -7 -396 -11 -866 -11 -556 0 -852 -6 -848 -19 11 -33
1787 -29 1787 4 0 27 -54 46 -73 26z"/>
</g>
</svg>
