<?xml version="1.0" standalone="no"?>
<!DOCTYPE svg PUBLIC "-//W3C//DTD SVG 20010904//EN"
 "http://www.w3.org/TR/2001/REC-SVG-20010904/DTD/svg10.dtd">
<svg version="1.0" xmlns="http://www.w3.org/2000/svg"
 width="300.000000pt" height="300.000000pt" viewBox="0 0 300.000000 300.000000"
 preserveAspectRatio="xMidYMid meet">
<metadata>
Created by potrace 1.10, written by Peter Selinger 2001-2011
</metadata>
<g transform="translate(0.000000,300.000000) scale(0.050000,-0.050000)"
fill="#f2d7d9" stroke="none">
<path d="M3570 5960 c-315 -72 -909 -337 -895 -399 4 -13 -3 -18 -15 -11 -51
32 -481 -376 -635 -602 -103 -153 -190 -325 -125 -248 37 44 36 38 -9 -54 -77
-157 -147 -423 -136 -514 6 -42 2 -73 -7 -67 -10 6 -18 -64 -18 -157 0 -92 8
-168 18 -168 9 0 12 -27 5 -59 -6 -33 -2 -65 9 -72 11 -7 15 -40 8 -76 -8 -41
-6 -54 6 -36 14 20 22 16 33 -20 7 -26 18 -37 23 -25 5 13 -3 60 -19 105 -16
46 -22 83 -14 83 13 0 41 -81 74 -210 8 -33 6 -34 -11 -10 -12 17 -22 22 -22
13 0 -10 -14 -7 -30 7 -32 27 -39 7 -17 -50 10 -27 16 -28 31 -7 13 19 15 14
6 -16 -8 -32 5 -61 49 -106 34 -34 61 -69 60 -77 0 -8 -13 3 -30 25 -16 21
-29 28 -29 16 0 -25 35 -52 75 -58 14 -2 19 6 12 18 -8 13 -4 15 13 5 19 -12
23 -8 15 12 -35 87 -35 101 1 46 22 -34 63 -80 91 -102 28 -22 46 -47 38 -54
-7 -8 7 -19 31 -25 24 -6 39 -19 34 -27 -5 -9 4 -21 21 -28 21 -8 26 -4 16 13
-10 17 -3 16 19 -2 19 -16 34 -22 34 -15 0 7 23 -2 51 -20 27 -18 46 -38 40
-44 -6 -6 -28 5 -49 24 -23 21 -43 27 -50 15 -7 -11 33 -44 89 -72 110 -55
166 -70 72 -19 -79 43 -53 57 37 19 90 -37 97 -38 77 -6 -11 19 -8 20 14 3 33
-26 119 -49 215 -58 79 -7 103 -26 65 -49 -33 -21 -85 -4 -70 21 6 10 3 18 -8
18 -10 0 -24 -13 -30 -30 -8 -19 0 -30 23 -30 29 -1 30 -3 4 -20 -19 -12 -32
-12 -37 1 -3 10 -27 19 -51 19 -62 0 -311 79 -371 118 -42 27 -46 27 -31 2 11
-16 20 -36 20 -43 0 -8 8 -21 18 -30 11 -10 12 -7 4 8 -17 30 6 32 48 5 25
-16 23 -19 -10 -20 -30 0 -33 -5 -13 -18 17 -10 20 -22 7 -29 -11 -7 -25 1
-31 17 -7 17 -28 31 -47 31 -44 2 -210 120 -222 158 -9 26 13 13 159 -99 l53
-40 -3 54 c-2 35 -21 64 -56 84 -29 16 -78 68 -110 116 -52 77 -87 107 -87 73
0 -7 32 -52 71 -100 92 -112 57 -113 -49 -2 -89 93 -112 96 -33 4 31 -36 42
-62 29 -70 -12 -8 -20 -21 -18 -31 5 -31 65 -88 81 -78 8 6 19 -2 25 -17 16
-42 207 -134 246 -119 23 9 30 5 20 -10 -9 -16 -3 -19 17 -12 17 7 31 4 31 -6
0 -11 29 -17 65 -13 36 3 47 0 25 -6 -22 -6 -44 -18 -50 -27 -5 -8 -59 -20
-120 -27 -74 -8 -93 -6 -60 6 49 17 43 20 -60 30 -84 8 -395 190 -327 191 10
0 -5 12 -32 25 -27 14 -79 64 -115 112 -36 47 -66 80 -66 72 0 -8 -25 13 -55
46 -81 91 -94 111 -102 155 -4 22 -20 63 -36 90 -28 47 -24 21 8 -58 8 -19 4
-23 -14 -13 -20 13 -20 7 -1 -28 13 -25 18 -49 12 -56 -30 -30 -188 500 -167
559 6 14 17 -10 25 -54 8 -44 24 -91 34 -104 11 -13 14 -34 7 -45 -8 -12 -3
-21 10 -21 13 0 18 -13 12 -30 -7 -16 -3 -30 8 -30 25 0 24 6 -9 193 -42 230
-59 487 -33 487 20 0 24 -30 33 -260 5 -140 27 -240 53 -240 12 0 14 26 6 65
-28 130 -13 353 38 585 13 57 12 58 -18 21 -17 -21 -32 -62 -32 -90 -5 -158
-39 -268 -39 -123 0 47 -10 104 -23 128 -22 40 -21 42 11 15 33 -27 34 -23 23
50 -8 58 -6 68 7 39 19 -40 19 -40 20 0 1 22 -7 54 -18 70 -16 25 -19 25 -20
2 0 -16 -5 -24 -10 -18 -6 5 -3 31 6 57 l17 46 15 -48 c13 -43 21 -32 61 84
26 74 84 205 129 291 45 87 82 169 82 183 0 56 -53 5 -114 -108 -54 -100 -80
-116 -68 -44 1 8 -7 15 -17 15 -27 0 -70 -87 -109 -218 -17 -59 -45 -117 -62
-130 -71 -52 -135 -637 -93 -852 36 -183 41 -203 74 -304 18 -54 27 -111 21
-128 -7 -18 -3 -25 10 -17 11 7 19 1 17 -14 -7 -49 1 -80 17 -70 8 6 17 -12
20 -40 2 -33 -4 -44 -19 -35 -14 9 -18 5 -9 -8 7 -12 24 -19 38 -14 26 9 148
-133 137 -160 -3 -8 6 -23 20 -32 21 -14 19 -17 -7 -18 -38 0 -67 33 -38 43
10 4 -10 37 -46 73 -42 42 -65 55 -65 36 0 -17 7 -26 16 -20 15 9 25 -19 20
-56 -1 -7 24 -35 56 -62 32 -27 53 -56 45 -64 -8 -9 6 -5 30 7 63 33 77 28 39
-14 -30 -33 -31 -40 -4 -63 26 -21 31 -18 31 15 0 47 50 97 69 67 6 -10 3 -25
-9 -32 -29 -18 -25 -55 5 -38 14 8 18 7 10 -2 -8 -9 -5 -28 8 -43 27 -33 -6
-36 -39 -3 -13 13 -24 18 -24 10 0 -24 245 -175 279 -172 61 5 83 -2 69 -25
-8 -13 -3 -19 13 -13 56 18 40 59 -38 92 -67 28 -80 42 -74 79 5 24 -2 50 -13
58 -13 8 -16 4 -8 -10 8 -13 5 -23 -6 -23 -11 0 -25 9 -32 20 -8 13 -25 13
-51 -1 -22 -11 -40 -18 -40 -15 -21 79 -18 100 11 76 17 -14 36 -21 42 -15 6
6 -17 30 -50 54 -34 24 -59 53 -57 65 3 11 -7 25 -21 30 -14 6 -23 -1 -20 -15
3 -13 -7 -29 -24 -34 -16 -6 -24 -4 -16 5 8 8 -22 57 -67 108 -45 50 -96 121
-113 156 -17 35 -45 67 -62 71 -28 5 -28 8 2 20 26 10 49 -11 95 -87 38 -61
71 -94 84 -86 13 8 18 5 11 -6 -7 -11 2 -40 19 -65 24 -33 36 -38 48 -20 8 14
30 19 48 12 19 -7 29 -20 23 -30 -13 -20 89 -118 195 -188 44 -30 67 -56 55
-64 -68 -42 -4 -67 245 -99 20 -3 42 -14 50 -24 7 -11 49 -22 93 -26 44 -3 85
-10 90 -16 6 -6 -37 -7 -95 -3 -58 4 -105 0 -105 -8 0 -8 -10 -15 -22 -15 -17
0 -17 8 0 28 19 22 12 29 -36 36 -37 5 -55 1 -48 -11 8 -12 -1 -14 -22 -7 -20
8 -29 6 -22 -6 7 -11 3 -20 -9 -20 -11 0 -21 -10 -21 -21 0 -12 9 -16 20 -9
45 28 98 27 87 -1 -9 -23 12 -29 102 -29 70 0 109 -8 101 -20 -17 -27 6 -25
122 10 113 34 144 38 117 13 -27 -25 -193 -63 -283 -65 -67 -2 -70 -4 -26 -18
38 -12 22 -16 -67 -18 -97 -2 -115 3 -106 28 8 20 -1 30 -28 30 -42 0 -56 -39
-14 -42 14 0 -6 -13 -45 -27 -38 -14 -68 -36 -65 -49 11 -50 -240 8 -417 96
-69 34 -136 62 -150 62 -14 0 -32 11 -40 23 -10 16 -4 20 19 11 47 -18 42 31
-7 76 -22 20 -40 28 -40 19 0 -10 -14 3 -32 28 -53 75 -19 70 71 -11 46 -41
95 -76 108 -76 12 0 23 -9 24 -20 0 -11 -14 -17 -30 -13 -17 4 -26 3 -21 -1 6
-4 27 -21 49 -37 21 -16 32 -18 25 -5 -8 13 -6 29 6 36 11 7 20 3 20 -9 0 -11
7 -19 16 -16 22 7 164 -71 164 -90 0 -8 16 -15 36 -15 20 0 46 -10 59 -23 12
-12 38 -16 58 -9 28 11 30 18 9 31 -15 9 -21 27 -13 39 11 19 -34 28 -101 21
-6 -1 -25 15 -41 35 -17 20 -24 24 -16 9 8 -15 -27 -3 -78 26 -51 30 -93 48
-93 39 0 -9 -13 2 -29 23 -17 22 -30 31 -30 21 -1 -9 -20 6 -43 35 -22 30 -48
49 -57 44 -8 -5 -37 14 -63 43 -26 29 -34 45 -18 36 18 -10 23 -9 13 2 -9 10
-27 18 -40 18 -12 0 -23 19 -23 42 0 75 -110 212 -148 184 -27 -20 -28 -20 -7
4 14 15 25 42 25 59 -1 27 -3 28 -22 1 -19 -26 -20 -26 -12 2 6 18 -25 97 -68
176 -94 175 -104 239 -11 77 37 -63 74 -108 83 -100 9 8 11 -1 3 -21 -7 -22
-5 -31 7 -24 11 7 21 1 22 -14 2 -14 4 -37 5 -50 2 -13 19 -36 39 -51 20 -14
38 -40 41 -56 2 -17 24 -58 49 -93 24 -34 44 -71 44 -82 0 -27 51 -66 66 -51
7 6 -9 40 -34 74 -26 35 -43 73 -39 85 5 12 -5 33 -22 47 -17 14 -31 38 -31
52 0 14 -8 29 -18 32 -11 4 -61 88 -112 187 -52 99 -101 189 -110 200 -8 11
-21 43 -29 70 -10 38 -9 43 7 20 15 -21 21 -23 22 -4 0 14 -14 31 -32 37 -25
10 -28 31 -17 112 8 63 6 96 -6 88 -11 -7 -15 10 -9 43 l11 54 17 -60 c9 -33
12 -88 6 -123 -8 -45 -2 -66 20 -74 16 -6 31 -32 31 -57 2 -38 4 -40 16 -11 9
25 24 -3 51 -95 20 -71 44 -125 52 -120 15 9 75 -49 65 -63 -14 -19 -2 -48 15
-37 11 7 20 3 20 -9 0 -44 -43 -19 -67 39 -14 34 -31 55 -38 48 -27 -26 172
-343 264 -421 28 -24 44 -50 36 -58 -8 -9 -33 1 -55 21 -22 20 -40 27 -40 17
0 -11 32 -48 70 -82 64 -56 96 -103 51 -76 -10 6 -24 3 -30 -8 -12 -18 37 -55
79 -59 11 -1 20 -13 20 -27 0 -14 11 -26 25 -27 14 -2 35 -4 46 -5 12 -2 15
-14 7 -26 -10 -16 -4 -20 20 -11 19 8 69 -4 115 -27 67 -35 85 -37 114 -15 30
24 30 23 3 -12 -28 -37 -27 -38 30 -25 47 11 53 9 30 -8 -24 -17 -18 -20 27
-10 37 8 52 5 43 -8 -7 -12 -3 -21 8 -21 11 0 26 10 33 21 8 13 48 18 96 12
l83 -11 -90 20 c-49 11 -132 37 -184 57 -67 26 -97 30 -103 14 -6 -13 -11 -10
-11 7 -2 29 -82 80 -168 108 -20 6 -31 20 -25 30 6 11 1 26 -12 34 -14 9 -18
6 -9 -9 8 -13 3 -23 -12 -22 -34 0 -164 118 -148 134 7 7 42 -14 77 -46 62
-56 62 -55 -7 21 -131 147 -201 249 -186 273 9 15 5 18 -12 7 -20 -12 -23 -7
-14 18 8 20 6 29 -6 22 -18 -11 -29 16 -22 56 2 10 -8 10 -21 2 -16 -10 -20
-4 -11 20 8 19 0 60 -16 92 -23 44 -24 59 -5 65 20 7 19 15 -1 40 -23 28 -35
93 -42 224 -3 64 -44 5 -46 -66 -3 -83 -21 -80 -48 7 -12 39 -14 70 -5 70 30
0 18 81 -13 93 -17 6 -30 20 -30 30 0 11 9 14 21 7 13 -9 16 51 6 183 -20 291
-19 305 8 457 32 178 31 210 -3 210 -31 0 -43 -38 -63 -195 -8 -57 -21 -100
-29 -95 -23 14 -40 -98 -40 -261 0 -90 -9 -152 -23 -161 -16 -10 -20 -4 -11
20 8 20 6 29 -6 22 -11 -7 -20 -25 -20 -41 0 -16 -9 -29 -21 -29 -27 0 -16
-260 11 -260 11 0 7 -9 -8 -18 -35 -23 49 -312 140 -482 33 -61 50 -113 39
-116 -11 -4 7 -48 41 -97 34 -49 67 -85 73 -78 14 14 105 -68 105 -95 0 -10
-14 -7 -31 7 -49 41 -29 -16 26 -73 52 -53 60 -98 14 -80 -19 7 -26 3 -18 -10
7 -11 26 -16 42 -10 18 7 24 3 15 -11 -9 -15 -5 -18 12 -7 17 10 21 8 13 -6
-16 -26 155 -149 178 -128 8 8 10 4 3 -7 -15 -27 117 -77 149 -57 14 8 18 5
10 -7 -13 -21 95 -71 113 -52 6 5 48 -1 95 -13 66 -18 79 -28 59 -46 -19 -19
-27 -18 -34 1 -5 14 -40 25 -78 25 -64 0 -307 72 -328 98 -25 30 -150 109
-173 109 -14 0 -21 6 -16 14 13 21 -182 181 -199 164 -8 -8 -8 3 0 24 14 35
18 33 60 -16 39 -45 45 -47 43 -14 -2 21 -12 37 -23 35 -11 -2 -21 6 -21 19
-2 39 -90 147 -116 142 -14 -3 -26 9 -28 25 -5 64 -8 69 -25 43 -13 -21 -19
-20 -29 6 -7 19 -4 28 7 21 30 -19 24 15 -11 66 -18 25 -41 39 -53 32 -12 -8
-17 -2 -11 14 16 45 -43 143 -78 130 -17 -7 -39 -12 -49 -12 -10 0 -18 -10
-18 -21 0 -12 7 -17 16 -12 8 6 17 -5 19 -23 8 -86 20 -121 71 -220 31 -58 63
-101 73 -94 10 6 24 2 31 -10 7 -11 1 -20 -12 -20 -31 0 -3 -30 29 -31 12 0
20 -13 17 -28 -8 -36 76 -123 104 -107 12 7 15 5 7 -4 -16 -18 99 -150 131
-150 10 0 -3 18 -29 39 -26 22 -37 40 -25 40 28 1 92 -69 77 -83 -16 -16 78
-79 221 -151 201 -100 502 -177 451 -116 -17 20 -17 31 0 42 13 8 30 3 39 -11
10 -17 37 -21 83 -11 37 7 101 18 142 24 41 6 75 18 75 26 0 9 35 20 79 26 80
11 312 111 296 127 -5 5 -68 -18 -141 -51 -153 -72 -149 -71 -160 -26 -9 33
-9 33 -12 0 -1 -23 -18 -35 -47 -34 -43 2 -43 3 -5 19 28 12 3 18 -85 19 -119
1 -161 23 -94 49 20 7 26 3 17 -11 -13 -21 131 -15 232 9 123 30 143 40 117
56 -20 13 -16 17 14 18 23 0 59 13 80 29 54 41 103 42 69 1 -14 -16 -37 -30
-52 -30 -16 0 -28 -8 -28 -18 0 -9 -27 -28 -61 -42 -33 -14 -56 -30 -50 -36 6
-5 55 13 110 41 60 32 102 43 106 30 4 -13 29 -8 66 14 53 32 52 30 -11 -26
-38 -34 -77 -62 -86 -62 -9 -1 -10 -11 -2 -24 9 -14 5 -18 -9 -9 -26 16 -78
-8 -84 -38 -2 -11 -9 -32 -14 -46 -19 -49 8 -43 75 16 37 33 75 60 85 60 9 0
12 9 5 20 -7 11 1 20 17 20 16 0 53 28 81 62 58 68 68 53 22 -35 -16 -31 -30
-50 -30 -42 0 8 -36 -22 -80 -67 -44 -46 -80 -72 -80 -60 0 17 -8 16 -28 -2
-15 -14 -23 -34 -17 -44 6 -10 1 -12 -12 -4 -13 8 -23 5 -23 -6 0 -11 -15 -15
-33 -8 -22 8 -29 5 -20 -10 27 -43 -359 -176 -486 -167 -44 3 -46 1 -14 -22
30 -22 -126 -21 -332 3 -8 1 -15 10 -15 19 0 10 25 14 55 11 55 -7 55 -7 5 10
-27 10 -72 18 -100 18 -32 -1 -37 -4 -15 -10 28 -7 52 -46 29 -46 -18 0 -251
88 -299 112 -31 17 -66 23 -79 16 -13 -9 23 -35 86 -63 186 -84 264 -107 285
-86 12 12 32 12 57 -1 68 -37 378 -43 416 -8 18 16 77 34 131 40 114 12 97 -3
-32 -28 -77 -15 -81 -18 -26 -20 35 -1 120 16 190 38 149 46 143 45 127 20
-20 -32 -230 -85 -400 -100 -148 -13 -152 -14 -46 -17 62 -2 119 -12 125 -22
7 -11 26 -14 43 -7 25 9 26 15 5 28 -21 13 -19 17 8 18 19 0 35 -7 35 -16 0
-9 35 -16 78 -15 43 1 74 8 69 16 -5 8 7 15 27 15 70 0 182 83 136 101 -22 9
-30 17 -17 18 37 2 48 58 17 88 -25 25 -23 30 11 39 24 6 34 2 26 -10 -7 -12
-1 -17 15 -11 15 5 26 20 23 33 -3 12 2 20 10 18 22 -7 125 65 125 88 0 10 31
59 70 110 38 50 64 100 57 112 -8 11 -3 14 10 6 27 -17 7 -63 -72 -168 -27
-37 -44 -72 -37 -79 7 -7 26 5 42 26 16 22 29 29 29 17 1 -28 -84 -128 -109
-128 -10 0 -7 11 6 24 13 13 24 32 24 42 0 35 -167 -144 -170 -181 -2 -33 4
-35 43 -16 25 11 37 24 26 28 -26 9 -23 26 10 70 16 20 39 31 51 23 16 -10 12
-26 -14 -54 -20 -22 -36 -46 -36 -53 0 -28 -126 -122 -243 -181 -128 -65 -167
-75 -167 -42 0 11 15 20 33 20 19 0 28 5 22 12 -16 16 -98 -11 -87 -28 8 -14
-9 -16 -264 -21 -84 -2 -141 -11 -135 -22 6 -10 -9 -22 -34 -28 -25 -5 54 -10
175 -10 121 0 244 -1 274 -2 81 -4 256 76 243 111 -6 15 -1 28 11 28 12 0 22
-9 22 -19 0 -11 15 -14 33 -7 25 10 29 6 16 -16 -14 -24 -12 -24 17 -1 44 36
23 68 -33 51 -49 -15 -45 -9 31 38 46 28 53 29 43 4 -6 -16 -1 -30 13 -30 27
0 98 80 99 111 1 27 110 133 124 120 5 -6 9 23 8 64 -1 50 7 73 24 70 28 -6
34 27 8 43 -10 6 -2 68 17 137 21 75 33 183 31 271 -2 81 4 151 13 156 9 6 16
20 16 31 0 25 -49 11 -52 -15 -5 -62 -36 -128 -60 -128 -15 0 -28 -9 -28 -20
0 -11 -43 -47 -95 -80 -52 -32 -86 -59 -74 -60 11 0 42 15 70 32 38 26 35 19
-14 -28 -45 -45 -74 -58 -106 -50 -33 9 -38 16 -18 28 15 9 27 37 27 62 0 26
11 44 25 41 14 -3 25 4 25 15 0 26 -2 26 -87 -10 -77 -32 -258 -38 -323 -10
-49 21 -40 22 181 30 85 2 161 16 190 35 63 39 167 64 149 36 -7 -12 -3 -21 9
-21 11 0 21 10 21 22 0 12 14 17 32 10 20 -8 28 -3 23 13 -5 14 -19 25 -32 25
-12 0 -23 7 -23 15 0 8 0 24 0 35 0 11 10 20 21 20 12 0 15 -11 6 -25 -9 -16
-2 -15 20 3 33 27 33 31 -8 70 -31 30 -46 35 -53 17 -5 -14 -17 -20 -27 -14
-9 5 -12 24 -5 42 6 17 -1 39 -16 49 -21 13 -16 17 18 18 30 0 41 -8 32 -23
-9 -14 -5 -18 9 -9 41 26 24 52 -33 52 -59 0 -144 88 -144 150 0 25 -8 27 -40
10 -34 -18 -40 -15 -42 24 0 25 -5 64 -9 86 -24 117 -24 273 -1 264 17 -7 23
35 22 158 -2 92 0 168 2 168 23 0 65 -68 54 -86 -8 -13 -17 -77 -21 -143 -3
-65 -16 -126 -29 -133 -18 -11 -17 -36 2 -100 16 -54 31 -76 41 -60 11 19 19
17 29 -9 10 -28 3 -32 -42 -23 -52 10 -53 9 -16 -18 21 -16 50 -24 64 -19 14
5 26 2 26 -8 0 -10 -16 -22 -35 -27 -22 -6 -15 -10 19 -12 64 -2 97 -42 35
-42 -37 0 -40 -5 -19 -30 14 -17 30 -26 36 -21 6 6 24 -1 41 -14 26 -21 28
-19 15 15 -29 77 -52 241 -47 332 4 63 -2 91 -20 91 -14 0 -25 -22 -25 -50 0
-38 -6 -45 -23 -28 -26 26 -27 189 0 240 9 19 16 55 14 80 -3 25 5 45 16 45
11 0 14 6 7 13 -8 7 1 23 18 36 17 12 33 47 37 77 6 58 107 225 125 207 6 -6
4 -27 -5 -47 -8 -20 -14 -43 -12 -52 2 -10 -5 -11 -17 -4 -21 13 -44 -28 -48
-87 -2 -18 -19 -63 -39 -100 -71 -132 -102 -303 -55 -303 8 0 11 26 6 59 -10
74 62 234 173 380 61 81 76 114 58 127 -17 12 -14 14 11 6 22 -7 57 9 95 43
103 95 114 103 130 89 9 -8 8 -1 -1 14 -10 18 -9 23 6 15 11 -8 27 -5 34 7 29
48 -45 14 -134 -61 -91 -77 -140 -85 -57 -10 22 20 38 46 35 58 -2 13 10 21
28 18 42 -7 109 66 78 85 -12 7 -37 2 -56 -12 -19 -14 -2 5 36 42 39 37 71 63
71 58 1 -4 18 8 37 27 19 20 45 29 57 22 12 -7 16 -4 9 6 -12 21 225 147 276
147 17 0 30 8 30 18 0 10 20 14 45 10 45 -9 45 -9 -2 15 -35 19 -55 19 -84 1
-23 -15 -42 -16 -49 -4 -7 11 -23 20 -36 20 -16 -1 -14 -7 4 -18 26 -17 -48
-45 -138 -53 -16 -2 -41 -4 -55 -6 -14 -2 -25 -16 -25 -33 0 -16 -7 -30 -16
-30 -9 0 -34 -14 -55 -30 -31 -25 -24 -24 35 3 41 18 72 42 70 53 -2 10 10 23
26 28 27 8 27 7 0 -14 -24 -18 -20 -20 20 -10 30 8 11 -12 -50 -49 -55 -34
-116 -58 -135 -53 -19 4 -41 -1 -48 -13 -8 -13 -3 -15 13 -5 18 11 21 8 11 -8
-8 -14 -27 -20 -42 -14 -15 6 -34 0 -41 -12 -10 -15 -5 -16 14 -5 24 14 24 12
0 -18 -16 -19 -39 -31 -53 -25 -13 5 -34 -1 -47 -14 -16 -16 -31 -13 -57 13
-33 35 -33 36 15 30 33 -5 50 3 50 23 1 17 16 29 33 28 23 -2 31 11 28 45 -4
36 9 56 51 78 81 42 98 35 28 -11 -33 -22 -48 -40 -34 -40 15 0 20 -10 13 -22
-10 -15 -1 -15 29 1 24 13 37 33 29 45 -9 15 -2 18 21 10 20 -8 29 -6 22 6 -7
11 2 20 19 20 17 0 31 8 31 18 0 9 52 38 115 63 63 25 124 53 134 62 10 9 37
18 60 19 23 0 30 6 16 11 -14 6 -88 -14 -165 -43 -76 -29 -145 -52 -153 -50
-7 2 -21 -11 -31 -28 -22 -40 -45 -40 -83 -2 -27 27 -32 26 -43 -11 -9 -26
-25 -38 -43 -31 -16 6 -24 3 -18 -7 7 -10 2 -24 -9 -31 -11 -7 -15 -22 -8 -33
7 -11 -4 -17 -25 -13 -20 3 -36 -3 -37 -14 -1 -37 -34 -73 -58 -64 -13 5 -25
-7 -27 -28 -1 -21 6 -38 17 -38 11 0 15 -9 8 -20 -15 -24 -63 17 -63 54 0 23
152 178 202 206 42 24 142 131 135 145 -4 9 0 14 10 12 29 -8 106 25 106 46 0
11 19 14 43 6 31 -10 38 -7 26 12 -10 16 -7 20 8 11 13 -8 18 -23 12 -33 -15
-25 3 -24 57 2 40 19 40 18 -4 -21 -38 -32 -52 -36 -65 -16 -9 14 -17 17 -17
6 0 -11 -7 -10 -15 3 -11 16 -23 13 -44 -9 -26 -28 -26 -30 7 -18 28 11 34 7
24 -18 -10 -25 -4 -29 23 -18 19 8 60 23 90 34 30 11 55 28 55 37 0 10 13 13
29 7 16 -6 45 -1 65 11 31 20 30 22 -14 12 -36 -8 -31 -2 18 20 37 17 106 33
154 35 48 2 88 11 88 19 0 8 10 15 21 15 12 0 16 -11 9 -25 -7 -14 0 -9 16 10
31 38 65 49 43 14 -8 -14 16 -19 72 -15 56 4 89 17 94 36 7 25 5 25 -11 2 -16
-22 -22 -18 -34 17 -7 24 -8 49 -2 56 7 6 12 1 12 -12 0 -12 28 -23 62 -23 40
0 58 9 53 25 -30 85 -817 -70 -1051 -207 -48 -28 -76 -33 -100 -19 -33 19 -11
32 41 23 14 -2 23 30 17 64 -1 9 17 5 40 -7 24 -13 37 -14 31 -4 -20 33 363
190 573 234 74 16 58 63 -18 55 -153 -17 -664 -236 -654 -280 3 -11 -11 -18
-29 -17 -19 2 -34 -8 -35 -21 0 -14 -38 -53 -85 -87 -96 -71 -113 -97 -30 -47
53 33 53 32 -5 -18 -33 -29 -68 -53 -77 -53 -10 -1 -12 -14 -6 -31 15 -38 4
-38 -34 0 -37 37 -166 -109 -158 -179 4 -39 4 -39 -12 -2 -12 29 -20 32 -32
13 -39 -63 42 -88 86 -26 23 32 36 64 30 71 -7 6 3 35 22 64 19 29 39 48 45
42 6 -6 -4 -26 -22 -43 -30 -31 -43 -70 -23 -70 28 0 149 127 138 145 -8 13
-3 15 13 5 17 -11 44 5 78 48 48 59 55 61 92 34 39 -30 39 -30 -6 -22 -31 5
-43 -1 -40 -20 3 -15 0 -26 -7 -24 -21 6 -97 -70 -86 -87 5 -9 -1 -23 -14 -31
-14 -9 -18 -6 -9 9 29 46 -12 22 -61 -37 -28 -33 -59 -55 -70 -48 -11 7 -17
-5 -13 -25 3 -21 -5 -35 -18 -32 -31 6 -118 -116 -109 -155 4 -16 0 -23 -8
-15 -9 8 -44 -32 -79 -90 -64 -108 -117 -235 -97 -235 7 0 1 -13 -13 -30 -21
-25 -18 -30 18 -30 38 0 40 -6 21 -41 -12 -23 -18 -52 -13 -65 5 -13 20 2 32
34 31 77 46 57 22 -29 -11 -38 -21 -114 -23 -169 -1 -55 -6 -80 -11 -55 -5 25
-16 45 -24 45 -16 0 -8 -107 12 -160 6 -16 14 -51 17 -76 4 -25 23 -61 44 -80
20 -19 25 -26 11 -17 -76 52 29 -128 119 -204 35 -29 71 -51 81 -48 9 4 12 -3
5 -13 -6 -11 8 -33 32 -50 25 -17 39 -37 32 -44 -40 -40 -278 222 -329 362
-12 33 -29 78 -37 100 -9 22 -14 47 -12 55 5 26 -33 17 -43 -10 -14 -40 -39
118 -30 195 8 73 -13 96 -32 35 -25 -81 10 314 36 411 21 77 22 104 6 99 -13
-5 -24 -21 -25 -37 0 -36 -53 -265 -63 -277 -5 -6 -17 3 -27 20 -13 20 -18 22
-19 3 0 -14 13 -30 29 -36 17 -7 27 -37 26 -75 l-2 -63 -29 70 c-43 102 -54
250 -14 180 20 -36 29 -40 29 -17 1 19 4 46 8 60 3 15 3 20 -2 12 -15 -28 -45
7 -45 51 0 24 31 114 68 199 37 85 61 160 52 165 -17 11 -80 -110 -80 -154 0
-34 -58 -116 -59 -84 -2 49 60 192 131 302 41 64 74 127 75 140 0 13 6 20 14
16 12 -8 12 -43 1 -120 -1 -11 -10 -8 -19 6 -12 18 -22 12 -39 -25 -47 -103
13 -64 102 66 104 151 207 261 181 193 -13 -35 -11 -37 19 -13 18 15 28 38 21
50 -8 13 -6 17 2 9 9 -8 34 8 55 35 37 47 293 247 356 277 17 8 12 1 -10 -17
-22 -17 -53 -43 -70 -56 -16 -14 -52 -43 -80 -66 -67 -53 -74 -94 -15 -85 25
3 45 19 45 36 0 16 37 48 82 70 48 23 79 51 73 65 -9 26 167 115 325 165 44
14 89 34 100 45 13 14 12 16 -5 7 -27 -15 -36 19 -9 35 9 6 110 29 225 52 482
97 1125 28 1570 -169 79 -35 123 -44 137 -30 96 96 -711 302 -1212 308 -162 2
-301 11 -310 21 -9 10 -5 11 9 3 14 -8 25 -5 25 7 0 153 -899 -180 -1254 -465
-93 -74 -184 -133 -203 -130 -19 4 -31 -5 -28 -20 4 -15 -2 -22 -12 -16 -10 6
-34 -9 -55 -33 -20 -25 -24 -34 -8 -20 45 40 70 29 31 -14 -20 -22 -46 -38
-58 -35 -13 2 -21 -8 -18 -22 7 -32 -72 -148 -92 -136 -7 4 -14 -13 -16 -40
-4 -65 2 -62 73 42 36 53 72 85 85 77 14 -9 17 -2 9 19 -8 21 -3 32 12 29 13
-3 23 4 21 15 -2 11 9 32 25 46 37 34 34 10 -8 -78 -19 -39 -44 -68 -57 -64
-13 5 -57 -46 -98 -113 -41 -67 -78 -121 -83 -121 -5 0 -2 10 6 23 9 15 5 18
-9 9 -13 -8 -19 -23 -13 -33 7 -10 -3 -46 -20 -79 -18 -34 -36 -94 -41 -134
-5 -40 -25 -85 -44 -101 -31 -25 -31 -27 -2 -18 26 8 35 -6 40 -67 4 -42 1
-72 -8 -67 -8 5 -15 -27 -15 -72 0 -61 8 -81 32 -81 24 0 30 -14 24 -56 -4
-32 3 -68 17 -81 14 -13 20 -37 14 -55 -10 -25 -16 -26 -29 -5 -10 15 -17 18
-17 7 0 -11 13 -37 30 -59 33 -44 39 -100 9 -81 -12 8 -13 -4 -3 -33 18 -48
63 -75 63 -37 0 12 -9 17 -20 10 -30 -18 -24 17 9 61 31 40 40 24 32 -55 -2
-18 17 -44 43 -58 62 -33 96 -70 96 -103 0 -16 36 -79 79 -142 44 -62 72 -113
63 -113 -10 0 -23 15 -30 33 -7 18 -19 27 -26 20 -18 -18 -107 109 -92 133 7
12 2 14 -14 4 -20 -12 -23 -7 -14 18 8 20 6 29 -6 22 -11 -7 -39 20 -62 59
-39 67 -45 69 -69 37 -27 -37 -103 85 -92 148 2 13 -15 34 -39 47 -38 21 -42
19 -31 -11 7 -18 19 -56 26 -84 7 -28 18 -40 26 -28 7 12 14 -10 15 -48 1 -39
-6 -65 -16 -59 -10 6 -18 19 -18 28 0 9 -15 51 -34 94 -18 42 -31 91 -29 107
4 27 2 27 -16 0 -18 -26 -20 -25 -21 5 0 19 8 35 17 35 9 0 10 43 2 95 -29
179 11 481 81 622 35 70 58 139 53 153 -6 15 2 31 17 37 15 6 26 29 25 51 -3
30 -10 35 -29 19 -32 -27 -37 12 -6 49 115 140 182 250 137 222 -15 -9 -18 -5
-9 9 8 13 22 19 30 14 24 -15 99 81 84 106 -9 15 -45 -7 -98 -60 -70 -70 -80
-88 -59 -114 21 -25 19 -28 -8 -18 -23 8 -45 -4 -65 -36 -38 -57 -41 -77 -8
-57 13 8 5 -16 -19 -54 -47 -76 -89 -178 -74 -178 5 0 19 24 30 53 11 29 25
48 30 42 6 -5 -12 -67 -40 -138 -28 -70 -61 -167 -74 -217 -13 -49 -27 -76
-31 -59 -4 17 11 89 32 159 22 71 37 132 33 136 -15 15 -92 -264 -106 -384
-24 -207 -3 -532 34 -532 9 0 22 -23 29 -51 8 -31 22 -45 36 -37 15 10 18 3
10 -19 -17 -44 3 -93 38 -93 15 0 28 -12 28 -26 0 -28 159 -214 159 -186 1 9
-30 52 -69 95 -70 77 -87 117 -50 117 11 0 20 -9 20 -20 0 -44 200 -252 270
-281 29 -12 32 -17 8 -18 -17 0 -48 17 -68 39 -41 46 -84 32 -46 -16 14 -17
-5 -10 -44 17 -38 27 -73 55 -76 62 -16 36 -114 126 -130 121 -11 -3 -14 7 -8
22 7 20 -5 28 -43 26 -44 -2 -60 13 -99 94 -25 53 -59 101 -75 107 -21 8 -24
19 -10 36 13 16 11 69 -8 162 -27 139 -34 146 -41 45 -2 -30 4 -50 13 -44 9 6
17 -3 17 -20 0 -63 -35 -47 -57 26 -28 92 -31 165 -6 126 11 -16 22 38 31 140
8 91 18 189 23 216 8 44 7 45 -9 10 -16 -34 -19 -29 -19 30 0 39 5 59 10 45
17 -41 52 -28 41 15 -6 22 -2 40 8 40 10 0 18 10 18 21 0 12 -9 16 -20 9 -11
-7 -20 -3 -20 9 0 11 14 21 30 21 17 0 30 13 30 28 0 44 173 376 231 442 l52
60 -44 -66 c-86 -131 -21 -83 128 94 83 98 145 183 137 187 -8 5 -4 6 8 3 28
-6 173 139 158 158 -5 8 -4 10 3 4 7 -5 54 21 105 57 51 37 135 92 189 123 72
42 90 60 70 75 -19 13 -16 15 12 6 25 -8 96 16 200 68 89 45 244 102 346 126
207 50 268 111 88 87 -446 -59 -958 -367 -1341 -807 -60 -69 -120 -125 -133
-125 -32 0 -97 -101 -94 -145 1 -20 -6 -31 -16 -24 -10 6 -13 -4 -5 -23 8 -23
5 -30 -10 -20 -14 8 -39 -12 -64 -52 -22 -36 -40 -52 -41 -36 -1 57 -41 -37
-50 -116 -4 -41 -20 -132 -35 -204 -16 -71 -20 -133 -11 -137 9 -3 17 -15 17
-26 0 -11 -9 -14 -20 -7 -11 7 -20 -6 -20 -28 0 -22 7 -44 16 -49 25 -16 3
-176 -23 -167 -15 5 -23 76 -23 209 0 113 8 196 18 190 10 -6 12 13 4 44 -9
37 -7 50 8 41 14 -9 17 4 9 38 -9 34 -5 52 10 52 13 0 18 9 11 20 -17 27 90
260 119 260 25 0 141 215 138 255 -1 13 4 21 12 16 8 -5 63 49 123 121 59 72
172 184 250 250 79 66 142 134 141 151 -7 81 570 353 932 440 144 35 235 67
235 82 0 32 -34 30 -230 -15z m40 -571 c-55 -16 -109 -27 -120 -27 -34 3 137
55 180 55 22 0 -5 -13 -60 -28z m-430 -208 c0 -10 -20 -25 -44 -32 -97 -31
-334 -203 -470 -340 -88 -90 -135 -126 -120 -95 25 56 143 179 249 261 35 27
60 57 54 67 -6 10 3 12 21 5 20 -8 30 -2 26 16 -4 17 9 25 34 22 22 -3 85 22
140 55 114 68 110 66 110 41z m-57 -406 c-12 -12 -35 -10 -61 4 -24 13 -54 17
-67 10 -14 -6 -8 2 12 18 42 34 151 3 116 -32z m-1616 -71 c-29 -73 -67 -97
-67 -42 0 11 7 16 16 10 9 -5 28 22 42 61 14 38 29 66 34 62 4 -4 -7 -45 -25
-91z m524 -109 c-14 -70 -114 -279 -102 -214 6 28 29 93 51 145 41 91 62 120
51 69z m845 -129 c-3 -19 -45 -61 -92 -92 -48 -32 -80 -64 -72 -71 7 -7 17 -2
22 12 5 14 18 25 29 25 11 0 1 -24 -21 -52 -23 -29 -37 -61 -31 -70 6 -10 -3
-18 -20 -18 -17 0 -31 -9 -31 -20 0 -11 17 -12 45 -2 25 10 54 18 64 18 11 1
25 16 31 34 6 18 19 30 28 26 9 -3 31 26 49 64 19 39 42 70 53 70 11 0 31 8
45 16 15 10 25 7 25 -8 0 -15 17 -10 45 14 44 37 44 37 15 -1 -27 -35 -27 -37
4 -26 46 17 63 -14 26 -45 -16 -13 -25 -31 -20 -39 4 -8 -19 -41 -53 -73 -40
-37 -65 -49 -71 -34 -13 36 -71 -24 -134 -138 -56 -101 -63 -125 -32 -106 12
7 14 -2 6 -23 -7 -20 -17 -25 -21 -12 -11 32 -65 7 -65 -29 0 -35 -44 -25 -56
13 -6 16 0 21 13 13 13 -8 24 -3 24 12 5 83 20 139 50 185 19 29 30 57 24 62
-39 40 -198 -395 -198 -542 0 -49 -10 -89 -22 -89 -47 0 33 421 109 567 13 25
12 45 -2 59 -14 14 -10 29 14 49 19 15 23 22 9 15 -34 -17 -32 0 9 76 19 35
35 73 36 84 1 11 11 18 23 16 12 -2 42 18 68 45 54 57 85 63 75 15z m-1497
-128 c-12 -23 -27 -129 -34 -235 -6 -106 -21 -200 -33 -208 -15 -10 -14 -14 3
-15 14 0 25 -16 25 -35 -1 -29 -4 -30 -19 -7 -13 22 -20 14 -25 -30 -4 -32 -7
11 -7 96 1 85 6 139 13 121 9 -27 28 115 43 330 1 14 14 25 29 25 22 0 23 -9
5 -42z m1176 -303 c4 -109 -14 -171 -37 -130 -13 22 -12 62 2 115 26 97 33
100 35 15z m-210 -834 c-6 -17 -5 -25 4 -17 19 17 133 -84 119 -107 -33 -54
-204 153 -179 218 18 46 73 -46 56 -94z m-1098 -341 c42 -72 12 -81 -35 -11
-36 55 -39 71 -16 71 8 0 31 -27 51 -60z m598 15 c26 -25 68 -58 93 -75 95
-62 109 -80 32 -41 -104 52 -226 161 -181 161 5 0 30 -20 56 -45z m-778 -140
c42 -52 68 -95 59 -95 -15 1 -114 129 -154 199 -23 41 2 14 95 -104z m786 -40
c-2 -14 4 -27 12 -30 17 -6 95 -81 95 -92 0 -5 -31 7 -69 25 -65 30 -89 77
-58 109 19 19 23 16 20 -12z m818 -153 c-17 -28 -189 -82 -200 -63 -13 20 97
65 195 79 9 1 11 -6 5 -16z m-471 -302 c-49 -8 -76 -16 -60 -18 21 -3 17 -11
-13 -25 -30 -15 -54 -15 -80 0 -35 20 -34 22 7 22 24 1 49 10 56 21 7 11 50
19 96 17 l84 -3 -90 -14z m-350 -52 c33 -3 67 -6 75 -6 8 -1 15 -12 15 -24 0
-28 -152 -4 -220 35 l-50 29 60 -14 c33 -8 87 -17 120 -20z"/>
<path d="M2891 4277 c-99 -111 -178 -250 -151 -267 10 -6 33 18 52 54 18 36
59 98 90 138 31 40 50 80 42 88 -7 9 -3 10 11 2 14 -8 21 -23 15 -32 -23 -38
27 -37 61 1 36 40 36 40 -2 26 -34 -13 -36 -11 -12 19 15 18 34 29 43 24 9 -5
28 6 43 25 24 32 24 32 -8 8 -19 -16 -35 -19 -35 -9 0 47 -70 11 -149 -77z"/>
<path d="M2189 5354 c-88 -91 -213 -244 -277 -340 -63 -96 -120 -174 -125
-174 -5 0 -3 10 5 23 9 15 5 18 -11 8 -42 -26 -143 -273 -130 -319 9 -33 7
-36 -9 -12 -18 26 -21 25 -22 -5 0 -69 55 -34 89 56 46 120 59 105 15 -17 -20
-55 -46 -94 -64 -94 -22 -1 -23 -5 -6 -16 19 -12 19 -37 -2 -115 -14 -54 -28
-171 -30 -259 -3 -88 -15 -172 -28 -189 -19 -22 -18 -25 1 -14 18 11 25 -2 25
-43 0 -33 14 -71 31 -85 33 -27 31 105 -4 336 -11 74 -8 85 25 85 45 0 119
254 84 290 -13 13 -17 10 -14 -10 4 -16 -6 -64 -20 -106 -14 -42 -28 -89 -30
-105 -6 -39 -32 -62 -32 -27 0 43 95 380 112 395 7 7 8 -16 2 -51 -16 -80 12
-102 43 -34 28 60 29 74 5 59 -88 -54 -20 128 131 349 201 295 253 360 357
449 115 98 134 131 75 131 -19 0 -107 -75 -196 -166z"/>
<path d="M2867 4890 c-6 -16 -19 -25 -28 -20 -40 25 -35 -31 6 -61 38 -29 39
-32 6 -20 -22 7 -33 7 -26 -1 8 -8 5 -26 -6 -39 -46 -56 16 -35 78 26 37 36
51 59 32 52 -24 -10 -31 -6 -21 10 8 12 4 23 -9 23 -13 0 -18 14 -12 30 7 17
7 30 2 30 -6 0 -15 -13 -22 -30z"/>
<path d="M4071 4901 c-7 -10 -45 -15 -86 -10 -58 7 -64 5 -25 -8 42 -13 30
-18 -66 -30 -64 -7 -127 -8 -140 0 -13 7 -17 6 -8 -4 9 -10 -18 -29 -60 -42
-42 -14 -58 -23 -36 -20 22 3 66 -7 98 -22 40 -20 85 -24 150 -14 73 11 84 17
52 30 -29 12 -13 17 56 18 53 0 113 10 134 21 26 14 45 13 64 -5 28 -27 88
-37 249 -42 57 -2 100 -9 95 -16 -4 -7 15 -17 42 -22 27 -5 53 1 58 13 6 14 9
13 10 -3 1 -14 16 -25 32 -25 17 0 30 11 31 25 0 14 9 9 21 -10 11 -19 40 -35
64 -36 24 0 111 -27 193 -59 112 -44 153 -53 165 -35 10 17 15 18 16 2 0 -38
120 -79 140 -47 21 33 240 -95 457 -267 111 -88 153 -111 170 -94 41 42 -374
342 -648 469 -376 174 -1172 325 -1228 233z"/>
<path d="M2733 4746 c-31 -36 -64 -62 -72 -57 -17 11 -114 -89 -181 -186 -43
-63 -65 -144 -63 -228 0 -20 -8 -31 -18 -24 -11 6 -19 -3 -19 -20 0 -59 34
-31 87 71 62 119 62 118 23 118 -38 0 -39 28 -2 59 23 18 32 17 46 -7 13 -24
36 -7 106 81 50 62 110 136 134 165 24 29 38 62 30 74 -8 12 -37 -6 -71 -46z"/>
<path d="M3820 4710 c-233 -46 -310 -72 -278 -91 38 -25 63 -24 47 2 -7 12 -1
20 14 17 15 -2 50 5 78 17 43 18 106 29 399 72 28 4 10 8 -40 8 -49 1 -148
-10 -220 -25z"/>
<path d="M4230 4701 c59 -10 26 -15 -120 -18 -274 -5 -360 -23 -360 -73 0 -31
12 -39 50 -35 362 35 760 25 760 -19 0 -12 -15 -14 -35 -6 -50 21 -558 38
-539 18 14 -14 257 -28 553 -30 73 -1 99 -7 80 -19 -18 -12 -20 -19 -5 -19 13
0 29 8 35 18 6 10 30 13 53 7 26 -7 33 -16 18 -25 -13 -8 19 -25 74 -40 53
-14 153 -52 223 -83 70 -31 137 -51 148 -44 13 8 15 3 5 -13 -10 -16 -7 -22 9
-17 71 24 -25 94 -256 185 -92 36 -143 93 -69 76 14 -3 26 6 26 20 1 19 7 18
22 -4 17 -25 20 -25 13 -1 -9 33 -108 66 -160 53 -19 -4 -30 0 -24 10 6 10 -3
18 -21 18 -18 0 -27 -8 -21 -18 6 -10 -8 -13 -31 -7 -32 8 -35 15 -15 29 17
12 -6 14 -63 6 -67 -9 -82 -7 -60 9 22 16 2 19 -80 10 -80 -9 -102 -6 -80 9
22 16 0 21 -90 19 -111 -2 -114 -4 -40 -16z m56 -76 c-68 -4 -185 -4 -260 0
-75 4 -19 7 124 7 143 0 204 -3 136 -7z m380 -29 c53 -11 92 -25 86 -30 -5 -6
-53 -1 -106 11 -53 13 -122 27 -153 32 -32 5 -64 15 -70 23 -13 13 66 2 243
-36z"/>
<path d="M2104 4610 c-25 -51 -34 -86 -21 -78 17 10 19 4 8 -24 -57 -143 -111
-292 -111 -310 0 -45 36 5 48 67 7 36 48 135 90 220 61 123 72 161 54 186 -19
26 -30 17 -68 -61z"/>
<path d="M3455 4572 c6 -11 -3 -13 -21 -6 -19 7 -31 3 -29 -8 3 -12 -38 -44
-90 -72 -52 -27 -90 -58 -84 -68 7 -10 29 -9 52 4 53 28 75 5 28 -29 -29 -21
-31 -30 -11 -43 18 -11 21 -8 10 10 -11 18 -8 21 9 11 31 -20 64 27 50 70 -7
23 20 46 91 79 113 53 126 75 42 72 -32 -1 -53 -10 -47 -20z"/>
<path d="M1541 4486 c-11 -41 -16 -78 -10 -83 5 -5 9 1 9 15 0 13 9 19 21 11
14 -8 14 -20 1 -37 -11 -13 -23 -71 -26 -128 -3 -57 -12 -104 -19 -104 -7 0
-11 -119 -9 -265 5 -274 55 -528 98 -502 12 8 14 3 6 -10 -19 -31 6 -107 30
-92 13 8 10 25 -5 46 -14 18 -4 13 24 -11 l49 -43 3 63 c3 47 0 54 -11 25 -15
-39 -55 8 -45 54 2 8 -7 15 -18 15 -13 0 -16 17 -8 43 8 26 6 37 -7 29 -26
-16 -77 142 -93 288 -8 77 -6 101 8 80 11 -16 21 -64 21 -105 0 -41 10 -75 22
-75 14 0 16 22 6 65 -9 36 -12 128 -7 205 4 77 8 192 7 255 0 63 6 105 13 94
29 -47 38 106 10 172 -36 87 -44 86 -70 -5z"/>
<path d="M3505 4507 c-77 -32 -120 -60 -111 -73 9 -16 15 -16 21 1 4 12 22 17
40 10 19 -7 26 -4 19 9 -7 11 21 30 64 43 100 30 112 29 82 -7 -20 -24 -20
-30 1 -30 14 0 20 -6 13 -13 -7 -7 -26 -2 -43 12 -32 27 -104 -19 -76 -48 8
-7 -3 -7 -24 1 -28 11 -33 8 -21 -12 11 -17 8 -21 -6 -12 -78 48 -516 -357
-622 -574 -86 -178 -72 -192 17 -18 140 273 439 510 791 625 110 36 131 49
100 61 -38 14 -37 15 5 17 56 1 60 51 5 56 -22 1 -40 -5 -40 -14 0 -9 -13 -22
-29 -28 -19 -7 -25 -1 -18 18 16 41 -23 35 -168 -24z"/>
<path d="M3860 4549 c0 -21 50 -59 85 -65 19 -3 35 4 35 15 0 12 -18 21 -40
21 -22 0 -40 9 -40 20 0 11 -9 20 -20 20 -11 0 -20 -5 -20 -11z"/>
<path d="M4192 4508 c-7 -17 -12 -34 -12 -38 0 -4 61 -12 135 -19 185 -16 330
-47 492 -103 76 -26 146 -42 155 -36 10 5 18 3 18 -7 0 -24 179 -108 201 -94
81 50 -387 235 -758 300 -209 36 -216 36 -231 -3z"/>
<path d="M4109 4441 c7 -10 -27 -22 -74 -26 -75 -7 -72 -8 29 -12 111 -3 167
21 104 45 -46 18 -72 15 -59 -7z"/>
<path d="M325 4406 c-86 -210 32 -1026 203 -1397 132 -284 474 -725 517 -665
14 19 16 17 8 -8 -8 -24 18 -54 88 -105 54 -39 99 -62 99 -51 0 11 10 20 22
20 12 0 18 -12 12 -27 -6 -16 14 -46 47 -70 65 -49 92 -54 104 -18 6 18 22 15
60 -10 34 -22 58 -27 66 -14 7 11 32 15 56 9 34 -10 37 -8 13 8 -16 12 -46 16
-65 10 -19 -6 -35 -1 -35 11 0 11 -23 21 -51 21 -31 0 -46 8 -38 21 7 12 26
17 41 11 54 -21 28 23 -27 46 -31 13 -65 43 -76 68 -11 24 -35 43 -54 41 -19
-1 -31 4 -26 12 5 8 -44 60 -109 117 -64 57 -164 167 -221 244 -58 77 -112
140 -122 140 -98 0 295 -452 508 -585 85 -52 108 -95 53 -95 -11 0 -15 9 -8
20 7 11 -2 14 -22 7 -31 -12 -31 -15 -1 -37 46 -34 41 -56 -6 -31 -21 12 -41
45 -45 75 -5 41 -21 57 -69 70 -91 23 -350 274 -469 453 -287 435 -405 850
-403 1418 0 286 -15 377 -50 291z"/>
<path d="M3765 4426 c-25 -5 -45 -16 -45 -26 0 -9 29 -9 65 0 36 9 83 21 105
26 52 12 -64 12 -125 0z"/>
<path d="M2504 4305 c-108 -203 -206 -605 -147 -605 27 0 48 133 32 204 -8 38
-6 56 6 49 11 -7 31 28 45 77 14 50 32 90 41 90 8 0 10 19 4 43 -7 28 -4 39
10 30 12 -8 29 -3 37 10 9 14 6 18 -9 9 -36 -22 -27 27 19 101 23 37 38 77 34
90 -4 12 -37 -32 -72 -98z"/>
<path d="M3913 4375 c5 -8 -12 -15 -37 -15 -26 0 -57 -17 -71 -39 -22 -36 -54
-53 -245 -136 -38 -17 -86 -38 -105 -48 -19 -10 -35 -11 -35 -2 0 18 247 145
285 146 14 0 43 14 65 32 38 30 37 31 -30 19 -38 -7 -83 -14 -100 -15 -16 -1
-41 -11 -55 -22 -13 -11 -38 -14 -55 -8 -16 7 -30 3 -30 -8 0 -10 -11 -17 -25
-14 -14 3 -25 -12 -25 -33 0 -21 -14 -42 -30 -47 -27 -7 -27 -5 0 15 25 19 24
21 -10 15 -22 -4 -38 -18 -35 -30 2 -12 -13 -19 -34 -15 -26 5 -44 -7 -52 -33
-13 -42 -153 -180 -168 -165 -4 5 20 38 54 73 35 36 63 72 63 81 0 9 25 36 56
60 31 23 62 50 68 60 7 10 20 16 30 14 9 -2 21 8 25 21 10 29 -2 22 -157 -83
-60 -41 -146 -113 -190 -161 l-80 -87 95 89 c52 49 99 84 105 78 16 -16 -160
-187 -192 -187 -14 0 -40 -27 -57 -60 -17 -33 -37 -65 -45 -70 -50 -38 -100
-273 -69 -324 36 -57 57 -42 43 29 -9 48 -7 57 8 35 17 -24 22 -18 22 30 1 51
4 55 22 25 14 -25 13 -57 -6 -109 -21 -58 -21 -74 -1 -81 14 -5 25 -42 25 -87
0 -43 8 -78 18 -78 9 0 17 -23 17 -50 0 -43 -5 -47 -30 -26 -24 20 -28 19 -22
-11 4 -19 14 -32 22 -29 8 3 28 -14 46 -39 39 -56 69 -58 69 -4 0 22 16 46 35
53 19 8 45 27 57 43 18 24 24 23 35 -8 8 -19 5 -45 -6 -56 -27 -27 -27 -113 0
-113 12 0 16 -8 10 -18 -5 -9 53 -3 131 14 116 25 144 26 158 5 9 -15 30 -21
47 -15 17 7 60 4 95 -7 36 -10 88 -12 116 -5 56 15 29 26 -143 60 -30 6 -50
19 -43 29 6 10 19 12 29 6 11 -6 19 2 19 18 0 17 -16 34 -35 39 -46 12 156 2
295 -14 61 -8 148 -15 195 -16 95 -4 99 -8 52 -60 -31 -33 -36 -34 -69 -4 -19
17 -67 33 -105 34 -39 1 -67 7 -64 13 4 6 -41 11 -101 11 -136 0 -143 -39 -7
-42 89 -2 200 -47 118 -48 -25 -1 -25 -4 1 -20 37 -24 66 -26 52 -3 -6 9 14
28 44 40 48 21 50 20 18 -4 -33 -27 -31 -30 30 -53 36 -13 55 -28 42 -33 -13
-5 -43 1 -67 14 -35 18 -41 18 -28 -2 11 -18 6 -22 -18 -12 -96 38 -91 30 22
-39 69 -42 125 -87 125 -100 0 -13 14 -29 31 -36 17 -6 27 -19 22 -28 -6 -9 7
-17 29 -19 50 -3 -35 94 -138 158 -36 23 -62 46 -56 52 12 12 122 -57 197
-124 54 -48 75 -129 35 -133 -143 -18 -207 -4 -142 31 l44 23 -43 54 c-61 79
-110 100 -163 72 l-44 -23 59 -51 c33 -28 57 -58 54 -67 -2 -8 27 -39 65 -69
39 -29 70 -70 70 -90 0 -21 9 -38 20 -38 10 0 38 -38 62 -85 23 -47 54 -98 69
-115 14 -16 32 -57 39 -90 l13 -60 -61 68 c-33 38 -56 75 -51 83 15 26 -11 72
-41 72 -23 0 -22 -10 3 -59 23 -45 25 -63 7 -74 -18 -11 -19 -25 -2 -56 12
-23 22 -60 22 -83 0 -22 9 -41 19 -41 11 0 28 -29 39 -65 10 -36 19 -50 20
-31 1 18 -7 57 -18 86 -14 37 -13 64 1 87 20 30 21 30 11 -1 -5 -19 3 -60 19
-90 16 -31 29 -99 29 -151 0 -52 8 -95 18 -95 9 0 14 43 10 95 l-6 95 21 -90
c31 -133 34 -140 58 -140 12 0 15 11 7 24 -8 13 -13 63 -11 112 3 49 -3 83
-13 76 -11 -6 -24 18 -30 53 -6 36 -17 82 -26 103 -10 27 -8 34 9 24 12 -8 23
-31 23 -51 0 -20 13 -47 29 -60 16 -13 34 -62 40 -108 23 -181 28 -312 13
-322 -9 -5 -17 18 -18 52 -2 93 -24 95 -24 2 0 -46 9 -88 20 -95 11 -7 20 -37
20 -66 -1 -44 -5 -48 -22 -24 -16 23 -19 10 -11 -50 5 -44 4 -67 -2 -51 -6 16
-23 -20 -39 -80 -25 -99 -25 -111 7 -134 27 -19 28 -25 6 -25 -24 -1 -24 -3
-1 -18 22 -14 17 -38 -25 -132 -59 -129 -66 -170 -26 -170 58 0 225 528 176
558 -22 14 -22 19 -2 26 45 15 85 516 40 516 -30 0 -45 76 -23 115 18 30 21
27 21 -20 1 -30 18 -72 39 -93 21 -21 36 -42 33 -45 -3 -4 -11 -43 -17 -87
-11 -70 -9 -74 12 -36 20 37 24 22 24 -105 0 -119 -6 -149 -30 -149 -26 -1
-26 -3 -1 -19 81 -51 -26 -512 -181 -778 -37 -63 -36 -103 2 -103 19 0 99 165
171 353 96 251 157 636 107 669 -24 15 -23 21 2 37 26 17 26 26 2 65 -26 43
-26 44 6 18 32 -27 33 -21 23 75 -6 56 -16 149 -22 205 -6 56 -33 161 -60 233
-61 161 -61 186 1 58 39 -83 48 -91 59 -55 8 22 4 57 -7 77 -16 27 -21 29 -22
5 -1 -16 -15 0 -30 36 -16 37 -38 61 -49 55 -11 -7 -34 17 -51 53 -28 58 -28
61 -1 27 17 -21 31 -46 31 -56 0 -10 9 -12 19 -6 23 14 -53 150 -92 165 -15 6
-27 23 -27 39 0 16 -9 24 -20 17 -11 -7 -42 12 -70 42 -49 52 -72 98 -28 54
13 -13 38 -18 55 -13 29 9 29 8 3 -11 -27 -19 -16 -30 24 -25 7 1 51 -40 97
-92 47 -52 75 -76 62 -53 -12 24 -15 50 -7 59 8 8 3 9 -11 1 -14 -8 -26 -5
-27 7 -3 22 -10 51 -18 76 -3 8 -3 22 -2 31 2 10 -5 12 -14 6 -10 -6 -48 15
-85 46 -37 31 -82 52 -101 47 -44 -11 -111 25 -138 75 -29 54 -2 50 68 -10 32
-28 68 -50 79 -50 12 0 -17 28 -64 63 -119 87 -159 49 -56 -54 40 -40 68 -80
63 -89 -5 -9 33 -59 85 -111 52 -53 83 -88 68 -80 -29 17 18 -67 78 -139 56
-68 73 -105 33 -73 -48 39 -44 27 47 -166 81 -173 137 -457 84 -424 -13 8 -19
47 -14 88 7 65 6 68 -11 25 -15 -40 -17 -31 -9 43 8 71 4 95 -20 104 -17 6
-31 33 -31 59 0 25 -13 64 -29 85 -37 49 -37 42 -1 -79 17 -54 26 -103 20
-109 -15 -15 -27 3 -35 57 -19 119 -62 221 -90 211 -17 -7 -35 11 -48 49 -12
33 -31 60 -44 60 -28 0 -99 120 -82 138 7 6 21 -5 33 -25 11 -20 42 -56 68
-79 26 -22 48 -53 48 -67 0 -14 18 -35 40 -47 26 -14 40 -14 40 -1 0 36 -64
181 -80 181 -9 0 -21 20 -27 45 -15 56 -131 199 -152 186 -8 -6 -15 11 -13 36
1 25 -21 72 -48 105 -48 57 -62 67 -95 69 -8 0 5 17 29 37 24 20 38 44 30 52
-35 38 156 -74 235 -137 49 -39 94 -66 100 -59 6 6 0 16 -14 20 -14 5 -19 19
-12 31 8 12 4 15 -10 7 -13 -8 -23 -5 -23 6 0 11 -70 65 -155 121 -85 55 -144
100 -131 101 35 0 171 -77 199 -113 16 -20 27 -22 37 -7 7 12 2 36 -12 52 -16
20 1 15 48 -12 40 -24 83 -37 95 -30 12 8 39 -2 60 -21 55 -49 49 -84 -6 -37
l-45 38 38 -45 c20 -24 45 -39 55 -33 30 18 162 -95 137 -120 -15 -15 -35 -4
-70 38 -27 33 -49 51 -49 40 0 -11 33 -56 73 -100 39 -44 61 -65 48 -47 -15
22 -17 38 -4 46 11 7 29 -6 41 -27 27 -51 27 -56 -9 -69 -27 -10 -131 71 -128
99 1 6 -5 17 -14 25 -8 7 -7 0 3 -17 14 -26 12 -26 -17 -3 -18 15 -28 36 -22
47 16 24 -65 111 -139 149 -80 42 -88 20 -12 -33 47 -34 60 -57 54 -93 -6 -31
0 -47 18 -47 32 0 152 -102 137 -116 -5 -6 0 -22 12 -36 17 -21 12 -25 -19
-19 -41 8 -41 8 1 -79 24 -49 52 -83 65 -76 11 7 15 5 7 -3 -8 -9 12 -48 44
-88 32 -39 53 -76 47 -82 -7 -6 -16 0 -21 14 -5 14 -17 25 -27 25 -9 0 -5 -30
11 -66 152 -366 110 -1060 -92 -1512 -46 -103 -58 -150 -43 -165 67 -67 315
740 276 896 -7 26 -3 47 9 47 12 0 20 71 20 181 0 132 -6 177 -23 167 -15 -9
-18 -5 -8 10 21 35 -8 225 -33 210 -12 -8 -15 2 -8 27 15 47 -5 109 -30 94
-10 -6 -18 -2 -18 10 0 11 9 21 19 21 11 0 5 43 -11 95 -17 52 -32 106 -33
120 -1 14 -9 25 -18 25 -9 0 -15 7 -13 15 3 8 -7 36 -21 62 -15 25 -21 52 -14
59 17 16 52 -39 39 -60 -6 -9 -1 -16 9 -16 20 0 54 -77 47 -105 -2 -8 4 -15
13 -15 9 0 17 -11 19 -25 7 -77 17 -107 39 -121 14 -9 25 -27 25 -40 0 -15 -9
-13 -22 6 -18 25 -20 24 -10 -7 7 -20 12 -47 12 -60 0 -13 9 -10 20 7 11 17
20 20 20 7 0 -13 5 -40 12 -60 10 -31 8 -32 -10 -7 -18 25 -21 22 -22 -16 0
-26 9 -41 20 -34 12 7 14 -2 6 -22 -8 -22 -5 -30 8 -22 12 8 26 -4 32 -26 6
-22 2 -40 -8 -40 -10 0 -18 -34 -18 -75 0 -41 7 -65 15 -52 21 33 7 -292 -23
-499 -22 -159 -14 -223 24 -185 20 21 67 326 81 531 11 159 19 191 48 196 47
9 50 -433 4 -676 -17 -91 -26 -178 -20 -193 6 -16 2 -24 -8 -18 -10 6 -24 -18
-31 -54 -7 -36 -36 -126 -64 -201 -50 -136 -51 -168 -2 -149 30 11 121 275
171 495 43 189 50 843 10 883 -14 14 -25 34 -25 46 0 12 10 8 21 -9 33 -49 0
112 -56 270 -27 77 -57 149 -67 159 -10 10 -18 30 -18 44 0 13 -10 50 -23 81
-13 31 -22 63 -20 71 2 8 -8 15 -20 15 -13 0 -18 6 -11 13 8 7 -2 26 -21 42
-22 17 -24 22 -5 13 17 -8 9 7 -16 34 -25 26 -83 97 -130 156 -46 60 -111 125
-144 145 -89 54 -158 84 -179 79 -11 -3 -2 14 19 38 34 38 41 39 62 11 12 -17
29 -31 37 -31 9 0 69 -52 134 -115 66 -63 130 -115 143 -116 13 0 22 -20 19
-44 -3 -28 5 -40 21 -34 24 9 138 -146 146 -198 2 -13 44 -108 94 -213 104
-216 152 -420 169 -706 6 -108 17 -186 25 -173 29 46 45 -23 42 -185 -4 -202
42 -214 59 -14 24 299 -20 633 -120 897 -22 61 -39 119 -37 130 9 46 -127 371
-155 371 -6 0 0 -20 12 -45 20 -41 18 -40 -19 5 -23 28 -41 59 -41 70 0 11 8
7 19 -10 15 -24 19 -24 20 -3 0 24 5 24 34 0 29 -22 28 -16 -5 33 -106 164
-140 210 -157 210 -10 0 -2 -18 18 -40 20 -22 27 -40 15 -40 -11 0 -49 32 -82
70 -34 39 -73 68 -87 65 -13 -3 -25 6 -25 19 -2 41 -44 73 -61 46 -16 -25 149
-203 174 -187 9 5 17 0 19 -12 1 -11 3 -29 5 -39 1 -10 10 -26 20 -35 11 -10
12 -7 4 8 -10 17 -4 21 18 12 21 -8 26 -19 14 -31 -12 -12 9 -69 57 -153 41
-73 81 -155 89 -183 7 -27 -25 17 -70 99 -119 214 -380 543 -380 479 0 -11
-23 7 -52 41 -28 33 -59 57 -68 51 -8 -5 -27 4 -40 20 -14 17 -41 30 -61 30
-20 0 -42 9 -49 20 -7 12 -21 15 -32 9 -10 -6 -13 -20 -7 -30 6 -11 2 -19 -9
-19 -11 0 -25 9 -32 20 -7 11 -23 20 -35 20 -12 0 -5 -13 16 -28 23 -17 64
-25 99 -19 56 9 58 8 22 -21 -41 -33 -247 48 -222 88 13 21 -59 64 -77 46 -26
-26 -12 -50 22 -38 30 10 30 8 -3 -17 -41 -32 -80 -22 -61 15 7 13 0 9 -16
-10 -17 -21 -37 -27 -54 -16 -15 9 -41 11 -57 5 -21 -8 -26 -4 -15 14 12 19 4
22 -31 11 l-48 -14 46 34 c34 25 67 30 130 21 80 -12 82 -11 44 19 -26 21 -61
29 -100 21 -44 -8 -52 -6 -30 9 22 14 7 20 -60 24 -143 6 -269 -5 -277 -26 -3
-10 -16 -13 -27 -6 -11 7 -26 5 -33 -5 -16 -23 -167 -70 -181 -56 -16 16 65
65 92 55 14 -6 26 -1 26 10 0 11 34 26 75 34 61 12 68 17 36 29 -47 17 -13 28
159 52 124 17 187 48 100 48 -164 1 -476 -86 -439 -124 6 -5 -8 -15 -32 -21
-32 -8 -39 -4 -30 20 14 36 -63 -7 -144 -80 -25 -23 -45 -31 -45 -19 0 13 34
48 75 79 41 31 82 65 90 76 9 13 15 13 15 0 0 -11 7 -10 15 2 25 37 176 106
263 120 45 7 77 20 71 29 -5 9 20 22 56 30 36 8 71 24 79 36 11 17 21 16 37 0
36 -36 6 -63 -56 -52 -30 6 -50 5 -44 -1 26 -29 199 -30 199 -2 0 15 10 28 21
28 12 0 19 -20 15 -45 -4 -31 -17 -43 -43 -39 -25 5 -34 -4 -30 -28 7 -33 23
-41 163 -75 l55 -14 -40 40 c-23 23 -50 41 -61 41 -11 0 -20 9 -20 19 0 59
358 -5 414 -74 16 -19 23 -24 16 -10 -7 14 -1 25 12 25 39 0 219 -122 208
-141 -6 -9 0 -23 13 -31 14 -9 18 -6 9 9 -23 38 8 26 69 -24 43 -37 51 -53 33
-72 -19 -19 -15 -23 16 -18 48 7 90 -16 89 -49 0 -13 -10 -8 -21 12 -17 28
-27 31 -49 13 -22 -18 -36 -9 -70 44 -24 37 -38 52 -32 33 15 -45 -35 -27
-120 42 -34 29 -108 79 -164 112 -56 33 -102 68 -103 77 0 10 -13 12 -30 6
-16 -7 -30 -5 -30 3 0 8 -41 15 -90 16 -50 1 -90 -6 -90 -15 0 -9 14 -17 31
-17 23 0 28 -12 19 -40 -9 -29 -4 -40 20 -40 18 0 27 9 20 20 -17 27 5 25 126
-11 57 -17 104 -39 104 -50 0 -27 -107 -24 -136 5 -14 14 -64 22 -116 18 -72
-4 -89 1 -77 21 12 22 10 22 -12 2 -33 -31 -21 -44 48 -49 29 -3 53 -12 53
-22 0 -9 9 -11 20 -4 11 7 20 0 20 -16 0 -32 94 -80 121 -63 33 20 20 48 -16
37 -30 -9 -30 -8 2 13 22 14 43 16 50 5 24 -34 182 -105 211 -94 15 6 34 1 41
-11 8 -12 22 -16 32 -10 11 6 19 0 19 -15 1 -21 4 -21 17 -1 12 20 24 17 51
-13 20 -22 50 -35 69 -29 21 7 25 5 10 -6 -16 -12 -6 -29 30 -56 42 -31 47
-32 25 -5 -15 19 -23 40 -17 45 18 19 194 -197 246 -301 28 -55 57 -98 65 -96
7 2 13 -13 13 -34 -1 -21 5 -34 13 -29 9 6 15 -6 15 -26 -1 -19 26 -109 60
-199 81 -215 140 -511 147 -741 3 -102 13 -185 22 -185 9 0 12 -8 6 -17 -6 -9
-20 -101 -32 -205 -29 -253 -91 -553 -142 -689 -43 -114 -41 -142 7 -124 26
10 136 336 173 515 65 310 44 874 -46 1221 -27 104 -46 192 -42 196 5 4 14
-16 21 -45 7 -28 20 -47 29 -42 9 6 12 -8 6 -30 -8 -29 -1 -40 27 -40 22 0 28
-6 15 -15 -28 -19 12 -174 42 -163 40 16 -43 310 -141 499 -18 35 -25 79 -18
103 8 26 6 36 -7 28 -12 -7 -28 -2 -36 11 -9 15 -5 18 12 7 17 -10 22 -6 15
12 -5 15 -20 26 -32 23 -12 -2 -17 7 -12 21 6 14 -4 43 -22 65 -30 37 -30 37
-7 -11 30 -64 14 -49 -51 46 -56 83 -63 104 -28 82 15 -9 18 -5 9 9 -8 13 -22
19 -31 14 -9 -6 -46 28 -84 75 -41 52 -80 83 -100 79 -41 -9 -67 27 -34 47 16
9 18 5 7 -14 -13 -23 -11 -23 11 -3 22 20 38 15 83 -29 31 -29 56 -45 56 -34
0 11 -41 60 -90 108 -50 49 -87 100 -81 114 5 14 0 30 -10 37 -11 6 -15 20 -9
29 6 9 2 22 -8 29 -10 6 -24 -4 -31 -23 -7 -18 -2 -39 10 -47 15 -9 11 -18
-10 -26 -22 -8 -28 -5 -19 10 9 15 5 18 -12 7 -17 -10 -21 -8 -13 6 15 24
-154 150 -174 130 -7 -7 -30 3 -51 22 -43 39 -242 119 -257 103 -6 -5 11 -19
37 -29 74 -30 -1 -25 -105 7 -51 15 -97 24 -102 19 -5 -5 -20 4 -33 20 -24 29
111 11 166 -23 12 -7 10 2 -4 19 -33 41 -159 65 -192 37 -14 -11 -32 -14 -40
-6 -8 7 -8 -3 0 -23 10 -27 7 -35 -14 -28 -15 5 -27 30 -25 54 2 46 -12 48
-98 12 -22 -9 -35 -5 -35 9 0 13 9 18 20 11 11 -7 20 -2 20 11 0 18 -34 20
-125 11 -191 -21 -275 -48 -262 -83 8 -20 -2 -29 -32 -29 -24 0 -61 -9 -82
-21 -27 -14 -39 -14 -39 0 0 12 7 21 16 21 9 0 34 14 55 31 22 18 2 13 -48
-11 -48 -24 -91 -38 -97 -33 -5 6 29 30 77 54 48 25 93 53 100 64 6 11 33 13
60 6 31 -9 38 -7 21 5 -20 13 -11 24 34 43 34 14 57 34 51 43 -6 10 12 9 41
-2 35 -13 48 -13 40 0 -7 11 2 20 19 20 17 0 31 9 31 20 0 21 -26 28 -90 22
-22 -2 -56 -4 -77 -4 -28 0 -31 -6 -13 -28 18 -21 13 -32 -24 -50 -42 -20 -43
-20 -10 7 30 24 31 30 5 40 -17 6 -31 2 -31 -9 0 -11 -9 -15 -20 -8 -11 7 -20
2 -20 -10 0 -13 -11 -19 -25 -14 -14 5 -42 0 -62 -11 -29 -14 -35 -12 -29 8
10 29 237 114 309 116 23 1 49 17 56 36 11 28 8 30 -12 10 -14 -14 -43 -25
-66 -26 -23 0 -77 -14 -121 -29 -48 -17 -83 -21 -87 -9 -3 10 -15 19 -26 19
-11 0 -13 -10 -5 -23 9 -14 5 -18 -9 -9 -13 8 -23 5 -23 -7 0 -11 -19 -21 -42
-21 -36 0 -39 5 -18 30 14 17 36 30 50 30 14 0 37 15 53 33 96 117 347 163
347 64 0 -45 10 -64 36 -68 31 -5 32 -1 10 26 -14 18 -16 27 -3 19 12 -7 33
-1 46 15 19 23 16 26 -18 17 -22 -6 -41 -2 -41 9 0 11 28 26 63 33 90 18 137
15 137 -8 0 -11 -13 -20 -29 -20 -43 0 -54 -30 -32 -88 17 -45 15 -52 -19 -52
-45 0 -50 -24 -19 -81 17 -33 14 -39 -25 -39 -34 1 -39 5 -19 18 17 11 20 22
7 30 -32 19 -15 78 28 94 21 8 26 16 12 17 -15 0 -21 10 -14 21 21 33 -8 22
-49 -19 -26 -26 -36 -58 -31 -100 7 -54 2 -61 -46 -64 -30 -1 36 -10 146 -18
219 -17 412 -72 645 -184 80 -38 136 -59 126 -46 -11 13 -74 50 -140 82 -74
36 -118 69 -112 84 5 14 1 25 -10 25 -10 0 -19 -11 -19 -25 0 -15 -6 -17 -15
-5 -8 11 -24 21 -35 21 -75 4 -125 35 -115 71 6 24 22 36 42 30 79 -21 232
-31 193 -12 -86 41 162 -7 262 -51 118 -51 139 -75 99 -108 -22 -19 -40 -16
-82 12 -48 31 -50 36 -18 47 25 9 29 18 13 28 -13 8 -24 9 -24 2 0 -6 -19 -1
-42 11 -30 16 -39 16 -29 1 18 -30 0 -28 -70 9 -32 16 -59 26 -59 20 0 -23
120 -70 149 -59 23 9 28 4 19 -20 -15 -40 -14 -40 -104 5 -41 21 -101 43 -134
49 -52 11 -49 8 20 -25 44 -21 92 -39 106 -40 14 0 23 -16 20 -34 -3 -18 7
-37 22 -43 20 -7 24 1 15 24 -8 21 -5 29 9 21 11 -7 16 -24 11 -38 -5 -14 12
-38 39 -52 26 -14 46 -40 43 -57 -3 -20 13 -32 50 -35 36 -3 51 3 42 17 -7 13
-4 17 9 9 11 -8 26 -5 33 5 19 31 -45 41 -70 11 -13 -16 -34 -29 -46 -29 -14
0 -12 7 4 18 14 9 28 24 30 34 2 10 10 16 19 13 10 -4 11 3 4 15 -7 11 -35 16
-62 11 -28 -5 -44 0 -37 11 6 10 22 13 33 5 13 -8 16 -4 8 9 -7 12 -25 18 -39
12 -15 -5 -26 4 -26 21 0 17 5 31 11 31 34 -1 362 -260 362 -286 0 -11 -12 -9
-27 3 -20 17 -26 15 -26 -6 0 -16 6 -25 14 -20 9 5 11 -9 5 -30 -9 -33 -2 -38
41 -30 42 8 50 3 39 -24 -9 -24 -6 -29 14 -17 15 9 21 8 15 -2 -6 -10 15 -49
47 -87 33 -40 58 -57 58 -40 1 25 3 25 20 -1 34 -53 21 -1 -14 56 -52 84 -131
164 -161 164 -16 0 -21 -10 -13 -23 9 -15 5 -18 -10 -8 -17 10 -18 22 -3 40
26 31 -8 140 -37 122 -11 -6 -38 13 -62 44 -24 30 -48 52 -53 48 -6 -3 -16 0
-24 9 -7 8 0 7 15 -2 19 -11 23 -9 14 6 -7 12 -26 18 -41 12 -41 -16 -55 24
-19 54 27 22 35 21 51 -8 11 -19 28 -29 39 -23 10 7 17 5 14 -5 -3 -9 54 -74
128 -146 73 -71 166 -170 207 -220 41 -49 83 -88 92 -85 9 3 15 -2 13 -10 -3
-8 21 -55 53 -105 32 -49 89 -138 127 -197 103 -160 130 -104 34 71 -161 295
-351 518 -575 676 -62 44 -114 91 -114 104 -1 27 -81 77 -82 52 0 -9 -9 -1
-20 17 -37 65 -459 263 -459 216 0 -10 -14 -19 -31 -19 -17 0 -26 8 -20 18 6
10 0 23 -14 29 -23 9 33 21 70 15 25 -4 17 34 -10 45 -14 5 -15 11 -4 11 12 1
40 -15 63 -37 23 -21 47 -34 52 -28 17 17 96 -14 84 -33 -5 -9 10 -12 35 -6
32 7 37 4 18 -9 -21 -16 -20 -22 6 -32 19 -7 28 -4 21 7 -17 28 -3 25 94 -19
48 -21 102 -43 122 -50 20 -6 31 -19 25 -29 -6 -11 -1 -26 12 -34 15 -9 18 -5
7 12 -10 17 -6 22 12 15 15 -5 25 -21 22 -35 -3 -15 6 -20 25 -13 17 6 28 2
26 -10 -3 -12 8 -27 23 -32 17 -6 22 -1 14 12 -9 14 -3 18 17 11 17 -7 31 -25
31 -40 0 -17 12 -22 33 -14 21 8 29 5 21 -8 -16 -26 139 -152 167 -136 11 7
18 5 14 -5 -10 -35 213 -286 247 -278 22 5 59 -36 118 -130 77 -122 140 -175
140 -116 0 12 -10 15 -23 7 -15 -9 -18 -5 -8 10 8 14 -20 77 -67 149 -45 69
-82 140 -82 156 0 40 -68 102 -90 82 -9 -8 -9 -3 -1 12 15 26 -196 263 -234
263 -9 0 -37 19 -61 41 -41 38 -41 40 -4 28 22 -8 1 15 -47 51 -47 36 -94 85
-103 108 -9 23 -54 63 -101 89 -46 26 -78 37 -70 25 26 -42 -27 -22 -58 22
-17 25 -31 37 -31 28 0 -9 -12 -7 -27 5 -15 13 -33 17 -40 9 -7 -7 -13 -2 -13
10 0 13 -13 18 -30 11 -16 -6 -30 -1 -30 12 0 13 -8 18 -18 12 -10 -6 -22 -2
-25 8 -4 11 -25 23 -47 27 -22 5 -65 18 -96 31 -31 13 -67 24 -80 24 -13 1 -6
9 16 18 22 9 51 8 64 -3 13 -11 35 -13 48 -5 16 10 19 7 8 -11 -12 -20 -5 -23
27 -15 24 6 43 4 43 -5 0 -8 22 -21 48 -28 27 -6 64 -18 83 -25 27 -10 32 -7
21 15 -9 17 -5 16 12 -4 14 -17 37 -28 50 -24 13 5 34 -11 46 -35 16 -28 36
-39 62 -33 24 7 33 2 25 -11 -9 -14 -1 -17 20 -9 20 8 33 3 33 -12 0 -14 25
-40 55 -58 30 -18 111 -79 180 -135 129 -104 165 -120 165 -74 0 15 -76 84
-170 153 -93 69 -170 137 -170 150 0 44 -216 129 -499 196 -155 36 -276 72
-268 80 7 8 -6 14 -30 14 -24 0 -43 -7 -43 -15 0 -9 -47 -14 -105 -11 -297 12
-304 14 -125 25 l180 12 -203 10 c-112 5 -199 2 -194 -6z m329 -75 c32 0 58
-7 58 -15 0 -8 -47 -13 -105 -11 -113 5 -65 -26 55 -34 56 -4 55 -6 -17 -19
-42 -9 -132 -11 -200 -6 -68 5 -117 3 -111 -4 7 -7 54 -13 105 -14 51 -1 93
-10 93 -21 0 -10 -8 -13 -19 -7 -10 6 -23 4 -29 -6 -14 -22 54 -42 139 -43 34
0 73 -11 88 -25 21 -20 24 -20 13 0 -16 28 26 32 126 13 82 -17 80 -47 -3 -39
-36 3 -49 2 -30 -3 81 -20 25 -36 -109 -29 -117 5 -155 16 -201 54 -55 46
-153 34 -123 -15 15 -23 -28 -20 -75 5 -29 16 -47 15 -68 -2 -16 -13 -51 -18
-80 -10 -34 8 -48 5 -39 -8 7 -13 -8 -21 -39 -21 -28 0 -51 -7 -51 -16 0 -15
-105 -84 -128 -84 -29 0 -8 36 33 57 25 13 76 46 113 73 37 28 89 50 115 50
29 0 47 12 47 31 0 27 19 30 115 21 125 -13 122 -4 -5 19 -96 17 -51 45 75 48
41 0 75 9 75 18 0 23 -184 4 -217 -23 -15 -12 -43 -25 -62 -27 -19 -3 -79 -25
-133 -50 -54 -24 -114 -46 -135 -50 -58 -11 -201 -101 -301 -190 -51 -44 -103
-82 -117 -84 -14 -2 -36 -11 -50 -20 -35 -22 -31 17 5 47 16 13 24 34 17 45
-7 12 -4 16 7 9 11 -7 41 10 67 37 26 28 60 45 75 40 15 -6 50 7 78 29 61 48
45 53 -25 8 -27 -18 -49 -25 -49 -15 0 16 76 74 100 77 6 0 21 8 35 16 14 9
33 12 42 6 10 -6 120 30 245 81 208 83 440 135 515 114 14 -4 53 -7 85 -7z
m178 -122 c-23 -16 -18 -19 23 -10 76 17 181 -8 169 -39 -11 -29 30 -50 95
-48 41 1 41 2 -5 21 -26 10 -43 23 -38 29 14 14 220 -72 256 -107 26 -25 25
-26 -15 -6 -26 14 -45 15 -45 4 0 -22 77 -52 114 -45 34 6 156 -72 157 -102 1
-39 -35 -54 -75 -33 -42 23 -27 67 16 50 43 -17 33 4 -14 29 -24 13 -37 14
-31 3 19 -30 -45 -47 -88 -23 -22 11 -39 25 -39 31 0 6 9 5 20 -2 11 -7 36 -3
55 8 32 18 32 20 -5 17 -22 -1 -60 5 -85 13 -34 11 -45 7 -45 -18 0 -19 9 -27
23 -18 14 9 18 5 9 -8 -17 -28 -72 -9 -66 23 2 14 -20 22 -56 20 -33 -2 -49 1
-36 6 13 5 18 24 12 41 -10 26 -5 27 30 8 59 -31 79 -27 33 7 -37 28 -37 29
11 19 l50 -9 -48 25 c-42 22 -52 19 -91 -31 -42 -52 -111 -58 -111 -10 0 11
-8 14 -18 8 -9 -6 -28 2 -40 17 -18 21 -16 30 7 39 35 13 42 53 10 53 -12 0
-15 -10 -7 -23 10 -17 0 -19 -34 -8 -26 8 -120 22 -208 30 -90 8 -130 17 -90
20 39 3 81 4 93 3 13 -2 30 6 37 17 7 12 32 21 56 21 37 -1 39 -4 14 -22z
m-900 -113 c0 -8 -37 -30 -81 -49 -45 -19 -79 -46 -76 -60 8 -45 -24 -116 -54
-116 -15 0 -42 -22 -60 -49 -18 -27 -44 -44 -58 -39 -15 6 -44 -15 -65 -46
-62 -88 -75 -114 -51 -99 13 8 17 -2 11 -27 -6 -22 -19 -40 -30 -40 -10 0 -12
10 -4 23 9 15 5 18 -9 9 -13 -8 -19 -22 -14 -31 6 -9 -3 -28 -20 -42 -17 -14
-26 -37 -21 -52 6 -15 3 -27 -6 -27 -10 0 -23 14 -29 30 -7 17 -4 30 6 30 10
0 29 50 43 110 13 61 32 110 42 110 10 0 12 11 4 23 -10 16 -4 20 20 11 19 -8
29 -6 23 4 -12 19 167 191 297 285 75 55 132 73 132 42z m768 -108 c85 -3 91
-5 32 -13 -67 -9 -65 -11 50 -37 66 -15 129 -31 140 -35 11 -4 49 -14 85 -22
86 -20 98 -42 24 -41 -33 1 -59 6 -59 12 0 17 -128 -4 -141 -23 -5 -9 -23 -8
-40 3 -24 15 -22 19 11 19 34 1 31 7 -16 32 -31 17 -71 28 -90 25 -19 -3 -45
1 -59 10 -16 10 -25 4 -25 -15 0 -19 27 -35 71 -43 39 -8 67 -18 61 -23 -15
-15 -152 -18 -152 -4 0 7 -18 18 -40 24 -63 16 -52 90 15 100 52 8 52 8 -9 11
-35 2 -70 13 -78 26 -10 17 4 20 51 10 36 -7 112 -14 169 -16z m902 -97 c7
-11 1 -20 -14 -20 -19 -1 -19 -5 3 -19 16 -10 36 -14 46 -8 9 5 14 -2 10 -17
-3 -15 11 -25 32 -23 25 2 31 -3 17 -17 -13 -13 -36 -9 -68 12 -27 18 -55 26
-63 19 -7 -8 -11 10 -9 40 5 54 24 68 46 33z m-1790 -15 c0 -8 -32 -35 -70
-60 -39 -25 -70 -58 -70 -74 0 -15 -7 -31 -15 -34 -32 -15 -111 -117 -90 -117
19 0 112 70 247 186 27 24 38 22 80 -12 29 -24 39 -43 25 -48 -45 -16 -120
-98 -120 -131 0 -26 8 -29 36 -13 21 11 37 14 37 7 0 -16 -54 -69 -70 -69 -40
0 -193 -155 -229 -233 -24 -50 -49 -86 -55 -80 -6 7 -3 24 7 38 11 14 19 39
18 55 -1 17 7 36 18 44 11 8 20 39 21 70 2 61 62 166 96 166 12 0 -2 -25 -31
-55 -43 -46 -47 -59 -24 -80 17 -15 31 -17 39 -5 7 11 3 20 -9 20 -12 0 -2 27
22 59 24 33 51 54 61 48 10 -6 6 -26 -8 -44 -23 -29 -22 -30 7 -7 34 27 37 56
10 99 -8 14 -7 25 3 25 27 0 130 100 117 113 -25 26 -156 -78 -147 -116 6 -20
2 -42 -8 -48 -11 -7 -18 -5 -16 5 7 43 -6 44 -47 2 -60 -61 -150 -187 -119
-168 33 20 29 -10 -7 -57 -16 -21 -29 -27 -29 -14 0 14 -9 20 -20 13 -38 -23
49 164 90 195 11 8 4 15 -16 15 -41 0 -26 40 44 114 23 24 42 53 42 63 0 21
140 141 165 142 8 1 15 -6 15 -14z m700 -55 c0 -14 11 -31 25 -37 15 -6 12
-10 -9 -11 -36 -2 -84 64 -63 85 18 17 47 -5 47 -37z m748 -433 c-10 -16 -4
-20 20 -11 19 8 29 6 23 -4 -6 -10 3 -29 19 -42 17 -14 30 -19 30 -11 0 8 27
-6 60 -29 33 -23 60 -49 60 -57 0 -27 -77 -21 -101 8 -13 16 -33 23 -44 16
-12 -7 -16 -4 -9 7 7 11 -9 41 -36 66 -42 39 -51 80 -18 80 6 0 4 -11 -4 -23z
m-988 -27 c17 -11 21 -8 12 7 -9 15 3 23 37 23 32 0 51 -11 51 -30 0 -16 -9
-30 -20 -30 -79 0 0 -74 99 -93 68 -13 122 -45 81 -48 -16 -2 -7 -11 20 -21
38 -13 31 -14 -30 -6 -44 6 -87 25 -96 41 -11 18 -33 24 -60 17 -31 -9 -36 -7
-17 6 21 15 20 21 -5 31 -18 6 -32 3 -32 -8 0 -10 -20 -19 -45 -19 -36 1 -39
4 -15 20 26 17 25 19 -5 20 -19 0 -35 -9 -35 -20 0 -30 -235 -25 -245 5 -6 19
-16 19 -37 3 -41 -33 -145 -48 -179 -27 -21 13 -12 18 35 19 35 0 68 8 74 17
6 10 36 23 67 29 30 6 71 17 90 25 24 9 35 4 35 -17 0 -17 -16 -35 -35 -40
-19 -5 3 -10 50 -12 47 -1 85 7 85 18 0 11 25 20 55 20 30 0 66 8 80 17 14 8
-31 13 -100 10 -69 -3 -109 0 -89 6 21 6 33 22 27 36 -10 28 103 28 147 1z
m-460 -50 c24 -15 19 -19 -22 -20 -29 0 -72 -22 -99 -51 -42 -45 -43 -50 -9
-37 31 11 35 8 17 -11 -16 -17 -34 -19 -57 -6 -30 16 -24 27 43 82 85 70 85
70 127 43z m-300 -8 c0 -21 -64 -155 -71 -148 -13 13 36 156 54 156 10 0 17
-3 17 -8z m1153 -98 c7 16 38 8 103 -27 52 -28 110 -54 129 -57 55 -12 215
-129 309 -227 106 -111 114 -149 11 -53 -192 179 -256 234 -294 254 -41 22
-41 21 -3 -21 59 -66 16 -51 -112 38 -64 45 -116 73 -116 62 0 -11 -18 -15
-40 -9 -22 6 -40 25 -40 43 1 29 3 29 22 3 15 -21 24 -23 31 -6z m-266 -19
c-12 -19 -105 -17 -157 4 -27 11 -7 15 63 14 57 -2 99 -10 94 -18z m-517 -35
c-7 -11 -22 -20 -35 -20 -12 0 -42 -19 -66 -41 -46 -43 -196 -78 -154 -36 12
12 17 34 11 49 -6 16 0 28 13 28 13 0 18 -9 11 -20 -20 -32 15 -23 80 20 62
41 162 55 140 20z m670 -140 c0 -35 -41 -42 -80 -14 -38 27 -38 28 20 30 33 1
60 -7 60 -16z m52 -129 c43 -38 69 -69 58 -69 -11 0 -56 31 -100 68 -44 38
-70 70 -58 70 12 0 57 -31 100 -69z m948 -49 c0 -20 -78 -22 -90 -2 -6 9 0 24
13 32 15 9 18 5 7 -12 -11 -18 -8 -21 9 -11 18 11 18 22 3 37 -12 12 -22 31
-21 43 0 22 79 -64 79 -87z m-1160 -2 c0 -11 7 -19 15 -18 36 6 65 -3 65 -20
0 -20 -24 -18 -95 6 -51 17 -61 52 -15 52 17 0 30 -9 30 -20z m1056 -323 c22
-54 32 -92 22 -86 -25 15 -23 6 13 -80 17 -41 25 -92 18 -115 -9 -27 -6 -36 9
-27 12 7 22 6 22 -3 0 -9 5 -38 11 -66 10 -48 9 -49 -10 -5 -20 46 -61 62 -61
24 0 -12 9 -16 20 -9 12 7 15 -13 8 -54 -8 -48 -6 -58 9 -37 14 21 17 3 9 -60
-16 -130 -36 -134 -37 -7 -1 65 -11 117 -26 126 -17 10 -19 31 -7 64 19 55 10
118 -17 118 -11 0 -19 12 -19 28 0 37 -102 257 -114 245 -5 -5 6 -38 24 -73
18 -35 30 -67 25 -71 -4 -4 -36 51 -72 123 -35 72 -56 126 -45 119 10 -6 22
-1 27 13 9 29 90 -112 155 -273 26 -65 51 -108 55 -96 4 13 -2 41 -14 63 -11
21 -21 56 -21 77 0 20 -36 92 -80 160 -44 68 -80 130 -80 139 0 38 139 -150
176 -237z m-702 170 c4 -10 -21 -39 -55 -64 l-61 -46 69 -76 c38 -42 75 -96
82 -119 8 -23 21 -42 31 -42 10 0 23 -18 30 -40 7 -22 21 -35 31 -29 10 6 13
-3 7 -20 -7 -17 -1 -45 12 -61 14 -17 19 -30 11 -30 -7 0 -7 -10 0 -22 10 -16
20 -14 33 5 12 18 13 10 3 -23 -9 -27 -14 -108 -12 -180 5 -148 -24 -114 -40
48 -6 60 -23 108 -43 123 -24 17 -27 27 -10 33 19 6 19 18 2 47 -13 21 -24 30
-25 19 -1 -11 -13 21 -26 70 -12 50 -33 90 -46 90 -25 0 -55 24 -60 47 -12 62
-36 103 -61 103 -31 0 -20 66 21 119 18 23 17 25 -5 12 -20 -12 -24 -10 -13 7
8 14 27 20 42 14 17 -6 23 0 16 17 -6 18 2 26 25 23 20 -3 39 -14 42 -25z
m209 -957 c-4 -49 -15 -90 -25 -90 -28 0 -21 155 7 167 14 5 25 11 25 11 0 1
-3 -38 -7 -88z"/>
<path d="M1915 3880 c14 -236 44 -272 44 -54 1 103 -7 172 -17 165 -11 -6 -23
4 -28 24 -5 19 -4 -41 1 -135z"/>
<path d="M3772 4004 c-31 -4 -76 -24 -98 -46 -23 -21 -54 -38 -69 -38 -15 0
-22 -8 -16 -18 6 -10 29 -14 51 -8 22 6 34 20 26 32 -8 13 0 16 20 8 19 -7 31
-6 29 2 -3 8 0 16 5 18 6 2 34 12 64 24 39 15 56 14 63 -4 8 -18 10 -18 11 0
3 32 -17 39 -86 30z"/>
<path d="M2117 3970 c-17 -28 -10 -355 10 -385 26 -42 55 -28 42 20 -6 25 -17
122 -25 215 -8 94 -20 161 -27 150z"/>
<path d="M1629 3696 c15 -129 36 -215 51 -206 9 6 11 -10 6 -35 -10 -42 -9
-43 23 -13 27 26 30 45 14 100 -17 60 -20 62 -23 18 l-4 -50 -16 50 c-24 76
-24 138 0 100 15 -24 19 -20 20 18 0 27 -6 43 -13 36 -7 -8 -25 -4 -39 7 -19
16 -23 10 -19 -25z"/>
<path d="M1470 3600 c-10 -31 -7 -51 7 -56 13 -4 18 -16 11 -27 -12 -20 80
-262 118 -312 39 -52 36 -7 -6 75 -24 46 -59 148 -79 226 -30 118 -38 134 -51
94z"/>
<path d="M1951 3560 c24 -121 89 -276 122 -288 24 -10 28 -4 17 23 -8 19 -19
52 -25 72 -8 29 -14 31 -30 10 -13 -19 -16 -14 -9 18 6 25 3 41 -6 35 -9 -6
-22 24 -29 65 -7 42 -22 89 -33 105 -15 22 -17 10 -7 -40z"/>
<path d="M3733 3545 c-5 -8 33 -12 84 -9 159 10 178 18 49 21 -68 2 -128 -4
-133 -12z"/>
<path d="M4052 3446 c-7 -8 -88 -13 -178 -12 l-164 2 142 -15 c77 -9 167 -20
200 -26 32 -5 46 -5 32 0 -15 5 -22 21 -16 37 12 31 6 36 -16 14z"/>
<path d="M4991 3442 c-6 -11 -2 -25 9 -32 11 -7 15 -23 7 -36 -7 -13 -6 -17 3
-9 9 8 28 -1 42 -20 38 -50 34 -75 -6 -42 -19 15 31 -48 110 -140 170 -198
266 -350 366 -582 70 -164 118 -223 118 -147 0 123 -424 811 -479 777 -28 -17
-53 35 -51 105 3 69 -92 169 -119 126z"/>
<path d="M2831 3310 c27 -192 24 -220 -26 -218 -45 1 -45 1 -6 -35 22 -21 53
-37 71 -37 17 0 36 -13 43 -30 6 -16 29 -30 51 -30 33 0 38 -9 28 -50 -10 -38
-5 -50 20 -50 27 0 30 13 18 75 -17 91 -26 103 -52 64 -16 -22 -18 -19 -8 14
9 33 1 47 -30 57 -35 11 -41 28 -38 107 4 136 0 191 -15 177 -7 -8 -26 2 -41
21 -25 31 -27 23 -15 -65z"/>
<path d="M1781 3314 c0 -21 -10 -31 -23 -23 -16 10 -16 3 0 -27 29 -55 30
-106 0 -64 -16 24 -18 20 -8 -15 10 -34 6 -42 -17 -33 -17 6 -26 23 -20 38 5
15 -8 37 -31 49 -35 19 -39 17 -28 -14 27 -74 129 -205 150 -192 12 7 17 4 9
-7 -16 -27 76 -126 117 -126 18 0 27 -9 20 -20 -7 -11 6 -20 29 -20 22 0 41
-10 41 -21 0 -12 -10 -15 -23 -7 -15 9 -18 5 -9 -9 8 -13 23 -19 32 -13 9 6
23 1 31 -11 7 -12 26 -17 41 -11 15 6 25 1 23 -11 -6 -25 100 -61 113 -39 5 7
-16 24 -46 38 -83 37 -224 164 -209 189 8 13 4 15 -10 7 -29 -18 -106 67 -93
103 7 19 0 21 -27 6 -38 -20 -84 6 -82 48 0 12 13 4 30 -18 16 -21 29 -30 29
-19 0 11 -11 31 -25 45 -20 20 -19 28 4 43 32 19 61 9 61 -22 0 -11 -10 -14
-23 -6 -15 9 -18 5 -9 -9 8 -13 23 -19 32 -13 19 12 65 -58 49 -75 -6 -5 4
-21 21 -35 59 -49 53 -2 -11 92 -36 52 -66 107 -66 121 0 15 -7 27 -17 27 -9
0 -25 20 -35 45 -15 36 -19 38 -20 9z"/>
<path d="M3068 3035 c-24 -72 -24 -84 0 -107 14 -12 40 -15 63 -6 37 14 37 15
-4 17 -23 0 -48 14 -54 30 -7 19 -1 25 18 18 21 -8 29 4 29 41 0 64 -32 68
-52 7z"/>
<path d="M3330 2967 c-55 -16 -111 -31 -124 -32 -13 -1 -20 -9 -15 -17 5 -8
-10 -18 -34 -22 -24 -3 -48 -18 -52 -32 -5 -14 -1 -23 8 -21 32 9 147 -26 147
-45 0 -10 10 -18 21 -18 12 0 16 8 10 18 -6 11 0 23 14 28 14 4 11 6 -7 4 -18
-3 -54 8 -80 23 -81 48 174 18 282 -32 l90 -42 -76 9 c-75 10 -75 10 -32 -26
36 -29 39 -39 16 -52 -15 -9 -21 -9 -13 0 20 22 -125 72 -168 59 -18 -6 -70 2
-115 18 -105 36 -107 3 -2 -39 44 -18 74 -41 68 -51 -7 -12 -25 -9 -45 7 -46
38 -177 96 -189 84 -17 -17 10 -88 29 -76 10 6 11 21 3 34 -8 14 1 12 20 -3
18 -15 29 -35 24 -43 -5 -9 4 -21 20 -27 18 -7 24 -24 16 -46 -7 -18 -5 -28 6
-22 21 13 25 -16 33 -258 3 -101 -1 -179 -10 -174 -8 5 -15 -10 -15 -33 0 -57
44 -41 64 21 12 38 13 35 6 -16 -5 -36 -1 -65 8 -65 23 0 45 172 30 232 -15
58 5 148 32 148 11 0 20 -19 20 -41 0 -27 8 -37 25 -27 14 8 19 8 12 0 -8 -9
-1 -46 15 -83 15 -37 28 -103 28 -147 0 -80 27 -124 47 -77 6 14 9 -36 7 -110
-2 -74 -9 -135 -15 -135 -21 0 -69 -151 -73 -230 -7 -130 -15 -186 -31 -202
-8 -8 -15 -33 -15 -55 0 -30 -6 -35 -22 -19 -16 16 -12 38 12 79 26 44 27 48
2 17 -137 -173 -242 -286 -257 -277 -9 6 27 57 80 114 108 113 217 268 201
284 -6 6 -48 -47 -93 -116 -97 -149 -204 -257 -217 -220 -5 14 -19 19 -31 12
-12 -8 -15 -4 -7 10 8 13 5 23 -6 23 -11 0 -26 -10 -33 -22 -10 -15 -18 -16
-27 -2 -8 13 -31 6 -62 -19 -33 -27 -38 -37 -15 -29 64 20 36 -17 -55 -75 -50
-31 -84 -66 -78 -77 8 -13 19 -10 30 7 10 15 18 20 18 11 0 -8 18 -6 41 6 22
12 34 32 26 44 -8 13 -4 17 10 8 12 -8 55 10 93 40 39 29 76 49 82 43 27 -28
-372 -279 -403 -254 -12 10 -72 -1 -140 -27 -65 -24 -104 -46 -85 -50 19 -4
75 11 125 33 83 37 92 38 109 7 17 -30 22 -30 55 -2 60 52 89 64 82 34 -7 -37
-119 -96 -160 -84 -19 6 -50 0 -70 -12 -30 -19 -28 -20 15 -10 43 10 45 9 15
-10 -20 -12 -55 -16 -78 -9 -25 8 -37 5 -30 -6 7 -11 -10 -15 -41 -9 -31 6
-47 2 -40 -10 7 -10 -16 -19 -52 -20 -145 -1 -274 -31 -274 -64 -1 -25 -4 -26
-17 -5 -21 32 -127 23 -138 -12 -6 -17 18 -25 78 -25 77 1 135 10 313 51 25 5
41 17 36 26 -16 26 137 17 164 -11 22 -21 14 -23 -40 -14 -47 8 -58 6 -38 -9
22 -15 12 -19 -37 -16 -37 2 -71 -8 -75 -21 -6 -17 18 -23 81 -20 49 2 85 11
80 19 -12 20 16 19 50 -3 33 -21 -58 -48 -103 -31 -17 7 -35 3 -42 -8 -7 -10
-31 -14 -55 -8 -28 7 -52 -1 -70 -26 -15 -20 -27 -28 -27 -17 0 11 -31 16 -70
12 -38 -5 -66 -15 -61 -23 5 -7 -18 -10 -50 -5 -39 6 -59 0 -59 -16 0 -20 -66
-23 -290 -16 -223 8 -290 4 -290 -15 0 -86 710 -63 1044 35 41 12 71 27 67 34
-4 7 20 13 52 14 69 3 477 201 477 232 0 11 -25 4 -55 -15 -40 -26 -48 -28
-30 -6 13 17 18 37 10 45 -7 8 -1 9 16 4 33 -12 124 60 148 119 11 27 19 31
25 13 6 -15 -6 -44 -25 -65 -62 -69 1 -41 71 31 37 38 59 70 48 70 -11 0 -31
-11 -44 -24 -18 -18 -21 -12 -14 22 10 52 3 48 -135 -72 -107 -93 -134 -82
-33 13 130 125 172 148 194 109 15 -28 25 -23 62 30 33 45 36 59 13 50 -17 -7
-31 -20 -31 -30 0 -10 -13 -18 -30 -18 -47 0 -36 26 40 100 47 45 63 75 50 88
-13 13 -28 12 -44 -4 -13 -13 -17 -24 -8 -24 9 0 6 -13 -8 -30 -13 -16 -33
-25 -42 -19 -10 6 -18 2 -18 -10 0 -33 -65 -100 -85 -88 -10 6 6 37 36 68 31
32 63 53 72 47 9 -5 12 2 6 17 -13 35 62 106 80 76 34 -55 127 74 95 132 -13
23 -5 67 29 145 43 99 44 106 8 62 -29 -36 -40 -41 -41 -19 0 17 20 53 45 80
25 26 42 51 38 55 -3 4 0 13 7 21 27 26 -5 -130 -45 -220 -22 -51 -34 -103
-26 -116 9 -14 25 13 41 68 30 110 71 148 51 49 -17 -85 -131 -320 -169 -350
-17 -13 -23 -37 -15 -58 9 -24 -1 -52 -30 -83 -24 -26 -39 -52 -33 -58 18 -17
180 188 170 216 -5 14 4 40 21 59 16 18 30 56 32 83 2 27 10 45 18 40 15 -9
23 21 16 68 -1 14 8 25 20 25 13 0 18 14 11 31 -6 18 -3 26 8 19 18 -11 24 3
18 45 -1 8 -9 13 -17 11 -8 -2 -12 20 -8 50 7 47 5 49 -11 14 -17 -36 -19 -35
-21 14 -1 43 6 52 32 42 23 -9 29 -5 19 10 -8 13 -4 40 8 59 18 27 20 11 12
-75 -7 -71 -4 -100 7 -81 48 76 35 -9 -22 -151 -36 -87 -63 -174 -62 -193 2
-21 -6 -30 -19 -22 -14 8 -16 4 -8 -10 30 -48 -143 -245 -396 -450 -52 -42
-90 -82 -84 -88 6 -6 49 21 96 59 99 80 166 119 181 104 16 -15 135 136 123
156 -6 9 16 50 48 92 100 125 193 326 191 411 -1 55 4 69 17 50 14 -20 17 -15
10 18 -6 25 -3 45 5 45 9 0 22 28 29 63 21 105 29 55 11 -62 -10 -60 -13 -129
-7 -153 8 -30 0 -51 -25 -65 -20 -12 -26 -22 -12 -22 18 -1 9 -33 -25 -102
-28 -55 -59 -96 -69 -89 -10 6 -25 0 -33 -13 -9 -14 -6 -18 9 -9 33 20 29 -11
-8 -64 -18 -25 -39 -40 -48 -35 -9 6 -29 -5 -44 -24 -24 -32 -24 -32 8 -8 71
56 32 -16 -65 -119 -54 -58 -102 -113 -105 -122 -18 -55 -382 -283 -584 -367
-99 -40 -143 -89 -81 -89 122 0 516 243 725 447 80 78 145 129 145 113 0 -45
-233 -256 -413 -373 -351 -229 -770 -355 -1245 -372 -205 -8 -187 -55 21 -55
598 0 1189 245 1594 659 92 94 164 156 160 137 -4 -18 2 -34 13 -35 11 -1 21
16 22 38 1 22 -5 35 -15 29 -9 -6 -17 -1 -17 10 0 37 36 42 49 7 13 -33 16
-33 42 3 15 21 23 45 17 55 -5 9 0 35 13 59 18 34 18 40 -2 27 -19 -11 -22 -5
-13 23 12 37 12 37 -12 1 -92 -141 -180 -254 -189 -245 -6 6 13 42 42 80 33
43 48 83 41 106 -9 28 -7 30 8 8 20 -28 108 105 117 178 2 17 22 82 44 145 22
63 32 115 22 115 -10 0 -19 14 -19 31 0 17 7 27 16 22 18 -12 20 5 25 223 2
92 -2 172 -9 178 -7 7 -12 -50 -13 -126 -1 -138 -35 -312 -67 -342 -10 -9 -12
11 -5 44 70 341 51 716 -32 633 -19 -19 -19 -28 2 -41 35 -22 58 -330 26 -350
-16 -10 -23 8 -23 54 0 53 -10 72 -40 80 -29 7 -39 26 -38 67 l2 57 16 -50
c12 -38 16 -23 16 60 0 120 -67 308 -101 287 -12 -8 -15 -3 -7 10 28 45 -128
249 -166 215 -29 -26 -35 -24 -55 19 -21 44 -20 46 15 28 22 -12 47 -16 56
-10 10 6 50 -25 90 -70 57 -63 75 -73 85 -49 9 25 24 14 63 -44 28 -42 61 -83
72 -91 12 -8 14 -15 4 -15 -10 0 -2 -18 18 -40 43 -47 29 -76 -16 -31 -27 27
-31 27 -42 -1 -18 -46 -17 -47 48 -39 56 8 59 4 48 -45 -9 -43 -7 -48 12 -24
18 24 20 15 11 -40 -8 -52 -6 -60 8 -30 13 28 19 31 21 10 2 -16 9 -52 16 -80
33 -121 12 -528 -33 -648 -25 -65 -39 -134 -31 -157 8 -26 5 -35 -10 -26 -14
8 -17 1 -9 -19 17 -44 32 -22 94 134 59 152 82 288 52 306 -11 7 -13 23 -6 35
8 12 14 73 13 134 -1 89 1 95 9 31 8 -65 12 -72 26 -40 10 25 16 -18 17 -120
3 -404 21 -526 58 -387 9 37 12 72 5 77 -19 16 -18 120 1 120 21 0 25 127 4
147 -7 8 -11 59 -8 113 3 61 -3 100 -17 100 -11 0 -22 34 -23 75 -2 41 -7 59
-12 38 -11 -40 -106 68 -106 121 0 31 32 35 47 6 12 -25 4 4 -29 105 -13 41
-32 75 -42 75 -10 0 -8 -18 5 -41 12 -23 18 -56 14 -75 -4 -19 -23 15 -41 74
-40 128 -66 173 -193 325 -74 88 -80 122 -9 55 28 -26 68 -48 88 -48 38 0 120
-73 120 -106 0 -10 18 -34 40 -54 22 -20 40 -49 40 -64 0 -16 8 -23 19 -17 10
6 25 1 33 -12 9 -15 5 -18 -11 -8 -19 12 -21 4 -9 -31 8 -27 35 -120 59 -208
23 -87 48 -146 54 -130 7 17 13 -46 14 -140 1 -93 11 -183 23 -200 25 -37 9
287 -21 410 -32 127 -21 149 19 40 20 -55 39 -131 41 -170 2 -38 8 -54 13 -35
19 73 36 31 32 -80 -2 -84 1 -99 11 -55 26 107 -1 338 -42 363 -14 8 -17 -3
-10 -30 6 -24 4 -39 -5 -33 -30 18 -35 140 -8 194 15 29 22 70 16 90 -10 30
-8 31 10 6 11 -16 16 -48 11 -70 -10 -36 -9 -36 11 -6 17 27 8 61 -40 155 -56
112 -58 179 -2 74 14 -25 37 -46 52 -46 18 0 13 19 -17 65 -32 49 -50 60 -75
47 -33 -18 -46 -8 -119 90 -29 39 -29 39 25 0 30 -21 55 -46 55 -55 1 -9 10
-11 22 -3 13 8 7 25 -16 46 -20 18 -56 60 -79 93 -43 62 -166 146 -166 114 0
-9 -13 -17 -29 -17 -16 0 -25 7 -19 16 26 42 -200 110 -332 101 -71 -5 -125
-4 -120 2 6 6 68 16 137 21 144 11 190 33 71 33 -58 1 -70 6 -48 20 40 26 10
22 -110 -13z m303 -140 c51 -24 63 -37 43 -50 -18 -11 -11 -16 22 -17 74 0
402 -350 402 -427 0 -36 -38 -5 -60 48 -17 40 -33 54 -45 42 -11 -11 -35 -15
-52 -8 -31 11 -31 9 0 -27 42 -50 97 -159 96 -192 0 -14 -14 -1 -31 30 -17 31
-39 49 -52 42 -13 -9 -17 -5 -8 9 21 34 -6 103 -39 103 -16 0 -29 13 -29 29 0
31 -177 219 -268 284 -32 22 -49 46 -38 53 11 7 68 -32 126 -86 59 -55 111
-96 116 -91 12 12 -54 102 -71 98 -8 -2 -13 5 -10 16 3 10 -26 37 -65 60 -76
44 -91 63 -35 43 20 -7 28 -5 19 6 -9 10 -45 29 -80 41 -35 13 -52 25 -37 25
15 1 58 -13 96 -31z m-365 -189 c29 -33 52 -72 52 -85 0 -13 9 -11 21 7 27 42
126 -67 109 -120 -6 -20 -2 -43 10 -50 11 -7 15 -21 9 -31 -6 -11 -3 -19 6
-19 10 0 14 -27 9 -60 -5 -33 1 -60 12 -60 11 0 16 17 10 39 -7 28 -1 37 26
33 46 -7 88 -109 67 -162 -14 -34 -16 -31 -18 20 -1 33 -10 74 -21 90 -13 20
-16 -2 -9 -70 10 -99 10 -99 -19 -40 -30 63 -40 51 -19 -25 6 -25 24 -45 39
-45 19 0 28 -26 28 -82 0 -65 -6 -80 -30 -71 -19 8 -31 -1 -31 -23 -2 -28 -5
-27 -19 6 -29 68 -24 130 10 117 38 -14 39 7 1 45 -16 16 -34 71 -40 123 -7
52 -27 145 -45 205 -19 61 -32 117 -30 125 2 8 -5 16 -16 18 -11 1 -30 3 -42
5 -30 3 -169 172 -142 172 11 0 44 -28 72 -62z m445 -1234 c-27 -67 -45 -126
-40 -131 17 -17 -53 -133 -78 -128 -13 3 -25 -15 -26 -40 -4 -48 -68 -133 -86
-115 -6 6 -51 -28 -100 -75 -72 -69 -63 -53 52 91 121 152 254 378 294 502 6
21 17 33 23 27 5 -6 -12 -65 -39 -131z m-636 -290 c23 -28 -134 -214 -181
-214 -12 0 2 23 32 50 49 45 57 108 10 79 -10 -6 -14 -20 -7 -30 6 -10 -3 -13
-21 -6 -20 8 -30 2 -26 -16 3 -15 -8 -25 -25 -22 -34 5 -49 -67 -17 -86 10 -6
13 -22 7 -35 -7 -13 1 -8 17 11 34 42 57 46 42 8 -11 -30 -114 -91 -259 -153
-94 -41 -97 -41 -59 -4 22 22 45 39 50 39 56 0 84 8 72 20 -24 23 -133 23
-119 0 8 -12 3 -15 -10 -7 -42 26 -24 44 97 100 102 47 117 61 100 91 -22 43
-8 63 35 46 21 -8 27 -4 17 12 -8 13 -8 23 2 21 42 -7 67 4 54 25 -9 14 -5 18
9 9 13 -8 23 -5 23 6 0 19 92 79 123 81 6 1 22 -11 34 -25z"/>
<path d="M3821 2630 c0 -30 158 -204 158 -174 1 14 -35 63 -78 110 -44 46 -80
75 -80 64z"/>
<path d="M2768 857 c-9 -15 -5 -18 12 -7 18 11 21 8 11 -8 -8 -14 -26 -21 -39
-16 -13 5 -50 -3 -83 -18 -33 -15 -40 -23 -16 -17 24 6 49 1 56 -10 8 -12 22
-21 33 -21 11 0 15 9 8 20 -7 11 1 15 17 8 31 -12 82 57 59 79 -19 20 -42 16
-58 -10z"/>
<path d="M3769 2941 c6 -9 -3 -22 -19 -28 -17 -7 -30 -5 -30 3 0 8 -32 16 -70
19 -39 3 -70 -4 -70 -16 0 -12 9 -16 20 -9 11 7 31 5 45 -3 14 -9 34 -18 45
-20 11 -2 38 -9 60 -17 28 -10 32 -8 13 5 -21 16 -20 22 7 32 46 18 54 16 40
-7 -7 -11 -5 -21 4 -22 96 -14 129 -13 114 1 -27 26 -171 82 -159 62z"/>
<path d="M3089 2587 c6 -34 -2 -62 -21 -76 -19 -14 -31 -58 -33 -117 -2 -52
-13 -94 -24 -94 -12 0 -22 -49 -24 -109 -3 -96 1 -107 35 -101 44 9 49 -11 13
-47 -20 -20 -18 -23 11 -12 65 25 0 -159 -91 -258 -124 -135 -139 -158 -114
-173 17 -11 0 -33 -54 -73 -44 -31 -83 -66 -88 -77 -5 -11 -20 -19 -33 -17
-14 1 -23 -8 -20 -20 2 -13 -16 -22 -40 -22 -24 1 -39 -7 -32 -18 7 -11 0 -15
-17 -9 -20 8 -29 -2 -29 -36 0 -55 0 -55 58 -27 43 20 43 20 5 -10 -46 -37
-59 -38 -117 -10 -41 20 -42 19 -7 -8 34 -28 25 -34 -120 -82 -86 -29 -125
-47 -87 -39 39 7 86 14 105 15 19 1 35 9 35 17 0 9 12 16 28 16 41 0 335 151
387 199 24 23 48 39 53 36 14 -8 92 98 82 112 -6 8 1 4 14 -7 18 -15 14 -27
-15 -48 -21 -16 -32 -35 -24 -43 8 -8 29 -2 48 13 30 24 32 24 17 -2 -11 -20
-3 -18 25 6 25 22 39 56 36 86 -4 37 0 43 20 27 19 -15 34 -9 57 24 17 25 23
50 13 56 -10 6 -5 40 10 76 31 75 57 89 30 17 -26 -67 0 -83 43 -28 29 37 34
38 23 8 -10 -27 -7 -34 10 -24 32 20 29 2 -16 -86 -22 -43 -33 -84 -25 -93 8
-8 4 -9 -9 -2 -16 9 -20 -1 -12 -30 9 -34 4 -41 -20 -32 -18 7 -49 -7 -76 -36
-25 -26 -53 -43 -62 -37 -10 6 3 28 28 49 25 21 35 38 24 38 -12 1 -48 -27
-80 -62 -55 -58 -56 -62 -14 -52 25 6 45 3 45 -8 0 -30 -88 -55 -107 -29 -12
16 -19 15 -26 -3 -6 -14 -19 -20 -30 -13 -11 7 10 39 46 72 37 33 51 49 32 36
-26 -19 -35 -19 -35 -1 0 13 -35 -2 -78 -33 -54 -38 -71 -61 -55 -73 15 -11
10 -13 -12 -6 -22 7 -42 -3 -56 -28 -11 -22 -29 -35 -38 -30 -9 6 -80 -16
-159 -48 -217 -90 -373 -125 -592 -132 -114 -4 -174 -1 -140 8 l60 15 -59 15
c-38 10 -63 8 -67 -5 -4 -12 -30 -22 -57 -22 -31 0 -44 8 -35 23 9 15 -8 19
-58 14 -39 -5 -67 -2 -61 7 5 9 -9 16 -32 16 -23 0 -138 31 -255 69 -117 38
-222 64 -233 57 -10 -7 -13 -3 -6 9 12 20 -101 80 -133 70 -8 -3 -35 13 -59
35 -24 23 -56 36 -70 31 -15 -6 -22 -2 -16 8 7 10 3 24 -9 31 -11 7 -20 2 -20
-10 0 -12 -9 -17 -20 -10 -12 7 -15 23 -7 35 9 14 -2 17 -30 10 -24 -6 -38 -4
-33 5 13 22 -71 82 -94 68 -9 -6 -15 0 -11 13 3 13 -8 29 -23 34 -18 7 -22 2
-12 -15 11 -17 8 -21 -7 -12 -13 8 -19 22 -14 30 5 9 -17 41 -50 73 -39 37
-59 47 -59 28 -1 -24 -4 -24 -20 1 -11 17 -20 20 -20 8 -1 -91 700 -528 846
-528 14 0 97 -24 185 -53 87 -29 230 -63 318 -75 99 -15 162 -34 167 -51 7
-21 -6 -24 -53 -15 -34 7 -67 4 -73 -7 -7 -10 -36 -19 -65 -19 -28 0 -47 -5
-42 -10 6 -6 122 -1 259 11 136 12 315 25 396 29 81 4 153 15 160 24 7 10 53
35 102 56 50 21 97 50 106 64 9 14 27 26 40 26 14 0 58 28 99 61 41 34 75 53
75 41 0 -33 -199 -174 -340 -241 -72 -34 -116 -58 -100 -54 17 4 53 14 80 22
39 10 43 9 20 -8 -47 -33 -279 -98 -390 -108 -55 -5 -83 -5 -62 1 31 8 32 14
10 28 -18 12 0 15 52 7 48 -7 116 1 170 20 50 17 64 25 32 20 -32 -6 -64 -3
-70 7 -7 11 -69 9 -152 -5 -78 -13 -127 -29 -110 -37 17 -7 -15 -12 -70 -12
-147 2 -167 -2 -120 -22 35 -15 33 -17 -16 -19 -31 0 -51 7 -45 18 7 10 -31
24 -84 32 -52 7 -158 25 -235 41 -171 34 -170 34 -170 1 0 -31 207 -83 243
-61 14 9 18 6 9 -9 -9 -15 3 -23 35 -23 74 0 122 -22 91 -41 -46 -28 121 -45
319 -32 254 17 423 51 423 86 0 15 12 27 28 27 15 0 79 23 142 51 64 28 128
46 144 40 18 -7 23 -2 14 13 -10 16 -3 19 24 9 36 -12 36 -12 2 15 -31 24 -32
29 -3 39 17 7 26 21 20 31 -6 10 19 44 55 76 37 32 72 73 79 91 10 25 34 31
95 27 75 -6 88 1 161 84 43 49 79 76 79 60 0 -16 -18 -46 -40 -66 -21 -19 -33
-45 -26 -56 7 -11 3 -14 -9 -7 -23 14 -77 -41 -58 -61 22 -21 91 55 187 206
66 105 100 142 123 135 28 -9 28 -7 4 10 -16 11 -36 16 -45 11 -9 -6 -16 -1
-16 11 0 12 14 27 30 34 42 16 37 61 -10 102 -22 18 -40 43 -40 54 0 12 9 8
19 -8 31 -49 100 127 101 257 0 91 -34 -2 -39 -103 0 -19 -10 -35 -22 -35 -11
0 -16 25 -11 55 5 30 9 80 10 110 1 30 12 53 25 50 12 -3 26 9 31 25 7 24 5
25 -10 3 -16 -23 -23 -21 -41 10 -20 33 -22 32 -25 -18 -4 -77 -5 -79 -46
-141 -21 -30 -32 -61 -25 -68 7 -6 21 10 31 36 15 38 20 40 21 11 2 -56 -60
-173 -91 -173 -15 0 -41 -27 -58 -60 -17 -33 -36 -60 -41 -60 -6 0 -1 17 10
38 27 50 33 146 12 181 -12 18 -10 23 6 13 14 -9 31 6 43 38 26 68 26 116 0
100 -12 -7 -15 -21 -9 -31 6 -11 2 -19 -9 -19 -11 0 -15 -16 -8 -35 9 -26 6
-29 -11 -14 -16 15 -18 40 -5 80 32 100 45 325 21 340 -15 9 -21 -6 -17 -44 4
-31 -4 -75 -16 -96 -13 -24 -16 -53 -6 -72 10 -17 11 -40 4 -50 -22 -29 -80
-27 -92 3 -6 16 -2 28 8 28 10 0 34 52 52 115 18 63 41 125 51 138 23 28 -1
227 -26 227 -10 0 -13 -24 -8 -53z m-18 -839 c-37 -55 -41 -96 -8 -76 15 9 18
5 9 -9 -8 -13 -22 -19 -31 -14 -9 6 -69 -49 -133 -120 -138 -153 -268 -246
-268 -191 0 9 27 28 61 42 33 14 71 45 83 68 21 39 20 40 -14 12 -32 -27 -35
-27 -27 0 6 17 30 33 54 36 23 4 43 16 43 28 0 11 34 54 75 95 110 110 148
161 135 182 -7 10 2 13 20 6 28 -11 28 -16 1 -59z m-558 -618 c-17 -16 -49
-30 -73 -30 -23 0 -37 -8 -32 -18 14 -21 -104 -47 -133 -29 -14 9 -17 1 -9
-20 14 -37 -2 -42 -46 -13 -37 24 3 58 70 61 22 1 81 18 130 38 114 46 130 48
93 11z m-356 -91 c-19 -10 -104 -23 -190 -28 l-157 -9 160 27 c210 34 229 35
187 10z"/>
<path d="M700 2600 c24 -16 22 -19 -14 -20 -24 0 -49 -8 -55 -18 -29 -48 424
-496 481 -474 12 5 48 -8 79 -29 31 -20 64 -32 73 -27 31 20 16 67 -29 91 -41
21 -43 21 -17 -10 24 -30 23 -32 -5 -21 -18 7 -33 23 -33 37 0 13 -58 71 -129
129 -71 57 -176 162 -233 233 -58 71 -115 129 -126 129 -12 0 -8 -9 8 -20z"/>
<path d="M3660 2545 c0 -13 11 -30 25 -39 14 -9 45 -52 70 -96 24 -44 53 -78
63 -75 19 4 74 -130 66 -160 -2 -8 6 -15 17 -15 26 0 10 58 -45 168 -43 84
-196 254 -196 217z"/>
<path d="M3565 2481 c2 -21 12 -33 23 -26 11 7 13 -3 6 -23 -9 -23 -6 -29 10
-20 15 9 19 4 11 -15 -7 -18 0 -30 17 -30 37 0 36 6 -14 86 -48 77 -57 82 -53
28z"/>
<path d="M0 2235 c0 -162 424 -609 742 -781 95 -51 178 -87 185 -80 7 7 13 2
13 -10 0 -13 14 -17 33 -10 22 8 29 5 20 -9 -15 -25 56 -54 85 -36 11 6 25 2
32 -9 7 -11 32 -16 56 -11 24 6 71 -3 104 -19 62 -31 64 -31 -70 3 -16 4 0 -7
38 -24 52 -24 80 -26 127 -10 88 30 115 24 45 -10 -48 -24 -50 -27 -10 -16 65
18 251 17 340 -2 52 -11 62 -9 40 7 -18 13 -21 22 -6 22 13 0 28 -8 34 -17 6
-10 45 -14 86 -10 109 11 309 43 316 51 4 3 -133 4 -305 2 -172 -2 -328 5
-348 15 -20 11 -71 22 -114 24 -44 3 -75 12 -70 20 5 8 -5 15 -23 15 -18 0
-28 8 -22 17 6 9 -45 41 -112 70 -85 37 -128 46 -137 31 -10 -16 -18 -15 -29
2 -11 19 -19 18 -32 -3 -12 -19 -17 -20 -18 -3 0 15 -14 20 -33 12 -20 -8 -29
-5 -21 7 15 25 -99 94 -127 77 -11 -7 -18 -4 -14 7 5 19 -212 183 -241 183 -8
0 0 -9 16 -20 25 -16 24 -19 -8 -20 -46 0 -353 305 -479 477 l-93 127 0 -69z"/>
<path d="M2505 2227 c-14 -6 -20 -20 -13 -31 9 -13 -11 -16 -54 -8 -45 8 -55
6 -29 -5 36 -15 36 -17 -10 -29 -27 -7 -52 -5 -55 4 -3 10 -23 13 -45 8 -21
-6 -34 -19 -28 -28 6 -10 -16 -18 -50 -18 -33 0 -61 -9 -61 -20 0 -44 -285
-21 -455 37 -118 40 -165 48 -165 30 0 -16 13 -21 33 -13 23 9 29 5 19 -10 -9
-16 -3 -19 20 -10 26 9 30 6 18 -14 -12 -19 -8 -23 15 -15 18 7 35 4 39 -7 13
-39 596 -80 596 -43 0 12 49 37 109 56 68 21 114 48 121 70 7 20 27 40 46 45
24 7 25 10 4 10 -16 1 -41 -4 -55 -9z"/>
<path d="M4734 2227 c-19 -19 -18 -72 1 -60 8 5 16 -15 17 -44 1 -29 13 -125
27 -213 89 -560 -130 -1231 -574 -1761 -150 -179 -110 -220 44 -44 380 433
596 993 595 1544 -1 287 -65 624 -110 578z"/>
<path d="M712 2165 c-51 -51 582 -496 648 -455 33 20 185 -34 156 -55 -19 -13
-15 -15 10 -7 20 6 79 2 130 -10 117 -26 343 -35 357 -14 5 9 -47 17 -117 18
-69 2 -153 10 -186 18 l-60 15 70 3 c156 6 144 43 -25 73 -41 7 -75 22 -75 32
0 17 32 13 175 -23 39 -10 65 -9 65 2 0 12 15 11 39 -1 44 -24 169 -24 241 -1
34 12 6 15 -86 11 -98 -4 -140 2 -151 22 -10 18 -58 28 -144 30 -173 4 -397
91 -597 232 -47 33 -47 33 -20 -11 15 -24 39 -44 53 -44 14 0 25 -10 25 -23 0
-13 6 -18 13 -11 17 17 131 -44 161 -86 14 -19 66 -45 115 -58 50 -12 91 -31
91 -42 0 -12 -19 -12 -51 0 -29 11 -62 19 -75 19 -33 -2 57 -37 126 -49 96
-17 165 -52 86 -44 -35 4 -59 -1 -54 -10 6 -9 -4 -16 -22 -16 -20 0 -27 9 -18
23 10 16 4 20 -20 11 -19 -8 -29 -6 -23 4 6 9 -15 22 -47 29 -31 6 -105 33
-164 60 -60 26 -135 59 -168 71 -33 13 -82 42 -110 64 -43 35 -44 38 -6 19 24
-11 48 -21 53 -21 15 0 3 57 -16 74 -10 9 -10 4 -2 -11 8 -14 -32 19 -91 75
-75 71 -111 94 -122 77 -12 -19 -15 -18 -16 3 0 16 -6 23 -13 15 -7 -7 3 -31
23 -53 60 -66 20 -67 -56 -1 -75 66 -80 68 -102 46z"/>
<path d="M4160 2099 c0 -5 13 -73 30 -150 34 -164 37 -441 6 -565 -16 -67 -16
-92 4 -110 20 -19 23 -13 12 30 -10 43 -6 53 17 44 38 -15 57 62 35 140 -11
39 -5 90 18 158 19 56 28 115 21 132 -8 20 -15 4 -19 -43 -11 -125 -34 -84
-32 55 2 71 -5 130 -16 130 -10 0 -14 8 -8 17 6 9 -7 52 -29 94 -21 43 -39 73
-39 68z"/>
<path d="M1402 2042 c-21 -14 -18 -21 15 -31 24 -8 51 -8 61 -2 10 6 22 3 25
-6 9 -24 97 10 97 36 0 27 -34 27 -50 1 -8 -13 -25 -13 -50 0 -45 24 -62 25
-98 2z"/>
<path d="M1600 2010 c-69 -51 -69 -67 0 -30 26 14 70 12 144 -7 116 -30 340
-25 393 8 25 16 14 19 -52 14 -46 -3 -87 0 -90 7 -3 6 -68 18 -145 24 -88 8
-125 6 -100 -5 47 -21 20 -26 -47 -8 -35 9 -40 17 -20 29 15 10 17 18 6 18
-12 0 -52 -22 -89 -50z"/>
<path d="M2275 2021 c-83 -16 -124 -42 -63 -39 47 1 210 54 168 54 -16 -1 -64
-7 -105 -15z"/>
<path d="M3386 1917 c-13 -69 -21 -129 -17 -133 12 -11 57 208 48 234 -4 13
-18 -33 -31 -101z"/>
<path d="M2920 1990 c-13 -16 -32 -25 -42 -19 -10 6 -13 -2 -7 -17 17 -44
-225 -259 -274 -243 -21 7 -50 4 -63 -7 -13 -10 -73 -35 -134 -54 -60 -19
-119 -41 -130 -47 -11 -6 -45 -9 -75 -6 -30 3 -55 -1 -55 -11 0 -9 -43 -14
-95 -11 -64 3 -82 -1 -56 -12 37 -16 37 -17 -5 -28 -31 -8 -44 -2 -44 20 0 26
-23 29 -155 20 -90 -7 -134 -4 -105 5 30 10 37 17 17 18 -50 3 -98 -20 -86
-40 13 -21 -21 -23 -86 -5 -24 6 -40 19 -35 27 6 9 -10 12 -35 6 -37 -8 -40
-6 -15 14 25 20 22 22 -15 14 -25 -6 -41 -3 -35 6 5 8 -8 20 -29 26 -22 5 -43
-1 -47 -13 -5 -16 -30 -12 -81 12 -90 42 -113 44 -113 6 0 -22 184 -111 231
-111 5 0 48 -17 94 -38 123 -55 217 -83 237 -71 10 6 18 4 18 -5 0 -33 422
-29 472 4 26 16 60 30 77 30 17 0 31 9 31 20 0 11 23 20 50 20 27 0 70 20 94
45 78 78 208 134 211 89 2 -33 -239 -169 -321 -181 -39 -6 -127 -73 -93 -72
70 3 289 94 283 118 -3 16 6 21 26 14 21 -8 27 -5 18 11 -10 15 -3 19 20 10
21 -9 29 -6 21 8 -7 11 -1 19 14 17 55 -8 79 2 65 24 -8 13 -5 18 6 11 38 -24
325 247 325 306 0 17 -18 1 -41 -35 -23 -36 -49 -65 -59 -65 -9 0 -30 -14 -48
-31 -23 -24 -31 -25 -32 -5 0 16 -8 13 -21 -9 -11 -20 -30 -30 -42 -22 -13 7
-17 4 -9 -8 16 -26 -58 -121 -78 -100 -9 8 2 34 23 57 21 23 36 46 33 50 -10
16 134 131 170 137 19 2 38 22 42 43 8 46 43 87 43 51 0 -14 9 -20 20 -13 11
7 20 22 20 35 0 12 -6 16 -13 9 -7 -8 -24 -5 -38 6 -16 14 -31 11 -49 -10z
m-340 -300 c0 -19 -212 -117 -350 -162 -83 -27 -119 -47 -90 -47 40 -1 44 -6
20 -21 -40 -26 -180 -26 -180 0 0 11 -16 20 -35 20 -30 -1 -31 -3 -5 -20 22
-14 11 -19 -45 -20 -46 0 -76 10 -77 25 -1 16 -4 17 -10 3 -10 -23 -132 -10
-286 31 -111 30 -94 49 20 22 108 -25 143 -26 130 -5 -12 20 178 17 241 -4 53
-17 351 43 372 75 8 13 15 14 15 4 0 -10 11 -8 24 5 13 13 39 24 56 24 18 0
68 18 111 39 89 45 89 44 89 31z"/>
<path d="M4336 1719 c11 -74 -55 -422 -77 -409 -9 6 -22 -18 -30 -52 -8 -40
-19 -54 -28 -39 -11 16 -19 9 -27 -22 -7 -26 -2 -52 12 -61 16 -11 13 -15 -11
-16 -19 0 -35 -13 -35 -30 0 -62 55 -26 91 59 20 49 43 85 51 80 14 -9 58 160
58 223 0 18 10 24 23 16 16 -10 20 3 13 40 -6 29 -3 58 7 64 28 17 19 148 -12
179 -40 41 -45 37 -35 -32z"/>
<path d="M4110 1595 c5 -55 1 -95 -10 -95 -11 0 -19 -7 -17 -15 2 -8 -3 -33
-12 -55 -8 -22 -20 -53 -26 -70 -6 -16 -10 -35 -9 -42 5 -31 -56 -167 -74
-163 -11 2 -16 -8 -10 -24 12 -31 -29 -121 -47 -103 -6 6 -23 -4 -37 -23 -38
-50 -34 -81 3 -34 30 37 30 37 10 -6 -12 -24 -30 -42 -39 -40 -9 3 -58 -50
-109 -118 -245 -323 -645 -604 -1068 -747 l-175 -59 102 -1 c100 0 333 80 442
151 25 16 56 29 71 29 81 0 486 340 642 540 31 39 49 57 41 40 -8 -16 -27 -45
-43 -64 -16 -18 -23 -43 -15 -56 21 -33 64 10 164 165 48 74 98 132 110 130
25 -6 160 303 147 338 -5 13 4 70 19 127 15 57 21 98 14 90 -8 -7 -30 35 -49
93 l-35 107 10 -95z"/>
<path d="M211 1621 c-16 -25 218 -218 405 -335 243 -152 493 -249 821 -318 58
-12 223 11 223 31 0 9 -25 11 -55 7 -44 -7 -49 -5 -25 14 23 17 15 20 -38 9
-47 -9 -63 -7 -53 9 7 12 0 22 -18 22 -17 0 -31 -8 -31 -19 0 -113 -760 241
-1085 505 -124 102 -127 103 -144 75z"/>
<path d="M2701 1559 c-48 -32 -93 -65 -100 -74 -6 -8 -24 -18 -41 -21 -16 -3
-60 -20 -97 -37 -92 -43 -400 -126 -473 -128 -33 -1 -48 -7 -33 -13 135 -54
904 232 852 316 -6 10 -13 17 -15 16 -2 0 -44 -27 -93 -59z"/>
<path d="M1351 1461 c-8 -12 1 -27 18 -34 19 -7 28 -25 21 -46 -13 -43 211
-89 350 -72 65 8 79 6 50 -7 -39 -19 -39 -19 3 -21 24 0 47 8 50 18 4 11 39
23 77 28 186 23 259 39 250 54 -6 8 -41 7 -80 -3 -79 -22 -642 -13 -665 11 -8
9 13 10 46 3 34 -8 83 -4 110 7 41 17 36 18 -29 8 -52 -8 -73 -6 -65 8 8 13
-4 18 -32 11 -36 -8 -39 -5 -15 12 18 13 20 22 7 22 -13 0 -37 5 -53 11 -17 7
-36 2 -43 -10z"/>
<path d="M3843 1309 c-16 -35 -16 -47 -1 -38 14 9 19 0 14 -24 -5 -20 -18 -35
-30 -33 -32 7 -46 -43 -22 -76 16 -23 18 -22 10 4 -6 18 1 31 17 31 38 0 3
-59 -39 -65 -18 -2 -27 5 -19 17 8 13 4 15 -11 6 -14 -8 -20 -27 -15 -41 6
-14 -3 -44 -20 -68 -16 -23 -23 -52 -15 -65 9 -14 5 -18 -8 -9 -12 7 -37 -10
-56 -39 -26 -39 -38 -45 -51 -25 -22 34 -62 -20 -46 -63 7 -18 -46 -83 -140
-175 -162 -156 -169 -166 -116 -166 82 0 508 486 474 541 -6 11 -1 18 12 14
24 -5 158 196 157 235 0 11 -10 0 -22 -25 -32 -66 -56 -55 -30 15 30 80 -8
125 -43 49z"/>
<path d="M2308 1261 c-23 -10 -92 -24 -155 -31 -109 -14 -168 -70 -73 -70 22
0 40 10 40 22 0 13 25 17 65 10 51 -9 57 -8 25 8 -37 18 -36 19 10 17 28 -1
59 1 70 4 44 11 62 14 96 17 20 1 31 11 24 22 -15 24 -44 24 -102 1z"/>
<path d="M2010 1120 c-54 -14 -50 -16 34 -18 51 -1 99 7 106 18 14 23 -50 23
-140 0z"/>
</g>
</svg>
