<?xml version="1.0" standalone="no"?>
<!DOCTYPE svg PUBLIC "-//W3C//DTD SVG 20010904//EN"
 "http://www.w3.org/TR/2001/REC-SVG-20010904/DTD/svg10.dtd">
<svg version="1.0" xmlns="http://www.w3.org/2000/svg"
 width="300.000000pt" height="300.000000pt" viewBox="0 0 300.000000 300.000000"
 preserveAspectRatio="xMidYMid meet">
<metadata>
Created by potrace 1.10, written by Peter Selinger 2001-2011
</metadata>
<g transform="translate(0.000000,300.000000) scale(0.050000,-0.050000)"
fill="#f2d7d9" stroke="none">
<path d="M4648 5691 c-132 -57 -784 -510 -862 -599 -46 -52 -92 -131 -106
-184 -36 -125 -59 -127 -217 -19 -192 131 -214 132 -743 11 -505 -114 -563
-141 -671 -310 -65 -103 -434 -825 -426 -835 2 -3 -20 -31 -49 -63 -30 -32
-54 -70 -54 -85 0 -15 -9 -27 -20 -27 -36 0 -119 -149 -271 -491 -194 -433
-192 -431 -507 -599 -441 -235 -548 -359 -452 -521 66 -114 132 -157 263 -169
l104 -10 -48 -138 c-110 -312 64 -596 299 -489 28 13 45 32 38 43 -7 11 -2 14
11 6 12 -8 153 60 313 150 161 90 298 157 305 150 7 -8 20 -236 29 -508 17
-552 28 -613 130 -725 162 -180 141 -199 1029 922 370 467 696 871 724 897
l52 48 145 -53 c291 -106 396 -37 524 340 37 108 78 221 92 249 15 34 165 147
421 318 219 146 394 273 389 281 -5 8 2 13 15 12 56 -6 546 351 621 452 106
144 86 287 -107 745 -14 33 -27 69 -30 80 -2 11 -29 89 -59 174 -68 191 -64
201 89 233 137 28 243 107 308 230 l38 70 -58 86 c-85 127 -172 163 -632 265
-440 98 -528 107 -627 63z m672 -277 c619 -142 624 -153 110 -255 -121 -24
-222 -45 -225 -48 -4 -3 353 -974 430 -1171 20 -49 0 -64 -734 -554 l-754
-504 -96 -296 c-130 -404 -111 -390 -382 -263 -234 109 -263 110 -793 30
l-454 -68 -302 -177 c-166 -98 -344 -201 -396 -230 -162 -88 -750 -428 -840
-486 -214 -135 -224 -43 -40 357 119 259 145 331 119 331 -18 0 -145 -18 -283
-39 -241 -37 -300 -33 -300 20 0 9 164 107 365 217 201 109 384 213 407 229
25 18 126 222 250 502 131 297 217 468 232 462 15 -5 133 204 307 545 341 665
254 573 621 656 696 156 684 154 726 128 96 -60 472 -368 472 -387 0 -90 42
59 70 250 19 129 45 253 57 277 44 83 835 602 903 591 33 -5 272 -58 530 -117z
m-1880 -3051 c0 -36 -1555 -2005 -1594 -2018 -73 -24 -87 72 -111 785 l-23
694 49 37 49 37 14 -64 c8 -35 20 -323 28 -639 8 -316 20 -575 26 -575 7 1 39
39 72 85 33 47 146 193 251 325 970 1220 1046 1311 1097 1322 28 6 61 15 72
18 39 13 70 10 70 -7z m-643 -309 c-55 -102 -726 -924 -755 -924 -28 0 -33 44
-37 333 l-6 333 156 89 c259 149 317 174 479 202 178 31 195 27 163 -33z"/>
<path d="M4420 5196 c-231 -154 -312 -218 -270 -211 106 16 1319 277 1327 285
4 4 -28 14 -70 21 -42 8 -193 40 -334 71 -329 74 -272 89 -653 -166z"/>
<path d="M4040 4753 c0 -15 19 -44 43 -65 48 -43 524 -604 597 -703 l48 -65
371 13 c204 7 375 16 379 20 20 17 -164 466 -195 475 -18 6 -280 77 -583 160
-302 82 -575 158 -605 170 -43 16 -55 15 -55 -5z m870 -455 c251 -70 292 -92
238 -132 -101 -73 -361 -20 -443 91 -88 120 -82 121 205 41z"/>
<path d="M3680 4320 c-28 -34 -47 -79 -44 -100 4 -22 -3 -40 -16 -40 -12 0
-20 -11 -19 -25 13 -99 -76 -204 -232 -275 -50 -23 -96 -56 -103 -73 -7 -20
-16 -23 -25 -9 -9 15 -28 8 -56 -18 -24 -22 -53 -40 -64 -40 -12 0 -21 -10
-21 -22 0 -13 -15 -17 -34 -9 -19 7 -28 7 -20 -1 19 -20 -85 -87 -116 -75 -13
5 -35 -5 -49 -22 -14 -17 -39 -31 -55 -31 -16 0 -22 -10 -14 -23 10 -16 4 -20
-20 -11 -19 8 -29 6 -24 -3 14 -23 -85 -67 -113 -50 -13 8 -15 4 -5 -13 12
-20 7 -23 -18 -14 -19 8 -29 5 -23 -5 11 -18 -64 -53 -95 -44 -10 2 -11 -5 -5
-16 11 -18 -12 -26 -133 -50 -19 -4 -50 5 -70 20 -20 15 -54 28 -77 28 -22 1
-62 16 -89 35 -49 34 -75 41 -199 54 -83 8 -213 -25 -188 -48 9 -9 161 -67
338 -128 l321 -113 389 218 c214 120 506 285 649 368 l260 150 16 107 c55 379
52 397 -46 278z"/>
<path d="M4100 3706 c-115 -27 -221 -53 -235 -57 -15 -5 -25 -41 -25 -87 0
-89 -14 -105 -77 -89 -55 15 -55 42 0 101 58 61 46 60 -310 -15 -279 -59 -298
-66 -602 -233 l-315 -173 255 -90 c197 -69 261 -85 287 -68 38 26 637 374 752
437 173 95 560 313 568 320 21 19 -105 -1 -298 -46z m-680 -308 c0 -16 11 -15
35 2 19 14 5 -2 -33 -37 -37 -35 -79 -63 -94 -63 -14 0 -35 -16 -46 -35 -12
-19 -21 -28 -21 -20 -1 9 -22 2 -48 -15 -25 -16 -54 -23 -63 -15 -9 8 -11 5
-4 -7 29 -51 -111 -95 -193 -61 -75 32 -70 106 5 77 17 -6 23 -2 15 11 -7 11
1 26 18 33 18 6 26 3 19 -8 -7 -11 1 -14 19 -8 17 7 27 19 22 26 -22 36 166
106 284 106 25 0 40 8 34 18 -6 10 3 18 20 18 17 0 31 -10 31 -22z"/>
<path d="M3770 2638 c-220 -147 -217 -137 -66 -203 145 -65 136 -71 206 141
68 208 74 205 -140 62z"/>
<path d="M1030 2327 c-44 -27 -133 -76 -197 -109 -147 -76 -138 -84 57 -54
l156 24 39 88 c48 109 44 113 -55 51z"/>
</g>
</svg>
