<?xml version="1.0" standalone="no"?>
<!DOCTYPE svg PUBLIC "-//W3C//DTD SVG 20010904//EN"
 "http://www.w3.org/TR/2001/REC-SVG-20010904/DTD/svg10.dtd">
<svg version="1.0" xmlns="http://www.w3.org/2000/svg"
 width="300.000000pt" height="300.000000pt" viewBox="0 0 300.000000 300.000000"
 preserveAspectRatio="xMidYMid meet">
<metadata>
Created by potrace 1.10, written by Peter Selinger 2001-2011
</metadata>
<g transform="translate(0.000000,300.000000) scale(0.050000,-0.050000)"
fill="#f2d7d9" stroke="none">
<path d="M1938 5756 c-9 -28 -6 -221 4 -227 6 -4 10 26 9 67 -2 41 4 89 13
108 9 19 7 39 -4 46 -11 7 -21 10 -22 6z"/>
<path d="M1610 4912 c-201 -64 -342 -167 -440 -321 -136 -214 -132 -161 -126
-1633 l6 -1328 64 -134 c79 -169 214 -303 386 -384 l130 -62 1360 0 1361 0
130 64 c229 113 388 311 438 546 17 79 22 468 17 1400 l-6 1291 -66 134 c-84
170 -219 305 -384 383 l-130 62 -1330 4 c-1036 3 -1348 -2 -1410 -22z m2846
-170 c147 -80 230 -168 302 -321 l52 -111 0 -1320 0 -1321 -66 -134 c-73 -148
-175 -246 -336 -320 l-98 -45 -1330 0 -1330 0 -127 69 c-138 75 -239 179 -308
319 l-45 92 0 1340 0 1340 56 114 c83 169 261 312 444 358 33 8 645 13 1360
11 l1300 -3 126 -68z"/>
<path d="M1768 4603 c-188 -64 -352 -239 -407 -433 -17 -57 -21 -409 -17
-1220 l6 -1140 49 -99 c62 -127 183 -248 311 -311 l100 -50 1180 0 1180 0 95
47 c125 62 241 177 309 307 l56 106 6 665 c5 578 2 665 -24 665 -25 0 -30 -90
-36 -645 -8 -795 -38 -884 -348 -1037 l-98 -48 -1140 0 -1140 0 -114 56 c-128
63 -222 160 -284 293 -66 142 -66 2320 0 2462 62 133 156 230 284 293 l114 56
1095 6 c947 5 1095 9 1095 35 0 48 -2129 42 -2272 -8z"/>
<path d="M2175 3802 c-146 -131 -49 -362 151 -362 103 0 169 42 207 134 88
211 -183 384 -358 228z m252 -43 c69 -55 71 -143 4 -210 -60 -60 -128 -63
-198 -8 -105 83 -38 259 97 259 25 0 68 -19 97 -41z"/>
<path d="M4580 3650 c0 -67 8 -90 30 -90 22 0 30 23 30 90 0 67 -8 90 -30 90
-22 0 -30 -23 -30 -90z"/>
<path d="M4580 3350 c0 -120 6 -150 30 -150 24 0 30 30 30 150 0 120 -6 150
-30 150 -24 0 -30 -30 -30 -150z"/>
<path d="M2790 3322 l-80 -12 0 -590 0 -590 215 -6 215 -5 0 345 c0 383 21
469 122 504 166 57 218 -37 218 -394 0 -148 6 -310 13 -361 l12 -93 209 0 209
0 -7 435 c-6 418 -8 439 -56 534 -123 243 -449 326 -665 170 l-55 -40 0 48 c0
64 -143 87 -350 55z m290 -152 c0 -101 37 -121 79 -43 77 144 378 181 531 65
136 -105 158 -187 166 -627 l8 -385 -152 0 -152 0 0 326 c0 459 -78 595 -307
532 -155 -43 -173 -94 -173 -500 l0 -358 -150 0 -150 0 0 540 0 540 150 0 150
0 0 -90z"/>
<path d="M2113 3197 c-17 -157 -17 -835 0 -972 l13 -105 207 0 207 0 0 600 0
600 -207 0 -207 0 -13 -123z m367 -477 l0 -540 -150 0 -150 0 0 540 0 540 150
0 150 0 0 -540z"/>
</g>
</svg>
