<?xml version="1.0" standalone="no"?>
<!DOCTYPE svg PUBLIC "-//W3C//DTD SVG 20010904//EN"
 "http://www.w3.org/TR/2001/REC-SVG-20010904/DTD/svg10.dtd">
<svg version="1.0" xmlns="http://www.w3.org/2000/svg"
 width="256.000000pt" height="256.000000pt" viewBox="0 0 256.000000 256.000000"
 preserveAspectRatio="xMidYMid meet">
<metadata>
Created by potrace 1.10, written by Peter Selinger 2001-2011
</metadata>
<g transform="translate(0.000000,256.000000) scale(0.050000,-0.050000)"
fill="#f2d7d9" stroke="none">
<path d="M320 2553 c0 -1235 4 -2250 8 -2255 5 -4 1011 -6 2235 -3 l2227 5 -9
795 c-10 928 -8 1847 9 2930 l12 775 -2241 0 -2241 0 0 -2247z m1480 2181 c0
-15 -27 -53 -61 -85 l-60 -58 -570 7 -569 6 0 -562 c0 -353 7 -562 20 -562 46
0 80 99 87 252 4 87 17 177 29 200 17 33 15 52 -9 86 -19 28 -24 53 -12 68 25
34 28 130 5 144 -35 22 -21 76 33 133 47 49 50 60 25 89 -25 30 -23 32 20 19
82 -26 111 -26 133 4 27 36 359 43 423 9 69 -38 176 -28 278 26 52 28 97 50
101 50 4 0 7 -253 7 -562 l0 -561 -570 5 -570 6 -68 -66 c-38 -37 -76 -62 -85
-56 -9 6 -15 331 -12 722 l6 712 709 0 c573 0 710 -5 710 -26z m1470 -694 l0
-720 -715 0 -715 0 0 720 0 720 715 0 715 0 0 -720z m1475 5 c3 -393 4 -717 4
-720 -2 -4 -1196 -10 -1364 -6 l-65 1 0 720 0 720 710 0 709 0 6 -715z m-2945
-781 c0 -20 -26 -62 -59 -93 l-58 -56 -572 4 -571 3 0 -551 c0 -515 12 -628
53 -521 6 16 18 25 27 20 35 -22 60 187 60 504 1 434 -42 394 434 406 366 9
401 13 468 55 40 25 78 45 85 45 7 0 13 -248 13 -551 l0 -550 -560 2 -561 1
-82 -70 c-46 -39 -88 -67 -95 -63 -7 4 -10 327 -7 718 l6 711 104 7 c406 29
1315 14 1315 -21z m1480 -691 c0 -388 -4 -710 -8 -715 -5 -4 -329 -6 -720 -3
l-712 6 0 709 0 710 720 0 720 0 0 -707z m35 -308 c-3 -173 -6 -31 -6 315 0
347 3 488 6 315 3 -173 3 -457 0 -630z m885 893 c113 -27 260 -35 260 -14 0 9
18 -2 41 -25 22 -22 49 -35 58 -29 31 19 44 -27 53 -196 6 -90 25 -207 43
-259 31 -89 31 -101 -3 -194 -19 -55 -35 -140 -35 -190 0 -107 -20 -191 -45
-189 -10 1 -24 -9 -32 -22 -8 -13 -63 -28 -122 -33 -93 -8 -231 -41 -338 -80
-17 -7 -13 1 8 18 31 24 36 44 25 112 l-13 83 90 0 c83 0 90 4 90 50 0 40 10
50 51 50 37 0 49 9 45 35 -4 23 9 37 39 41 39 6 45 19 45 98 l0 91 101 -13
102 -14 -7 56 c-6 54 -10 56 -101 49 l-95 -6 0 91 c0 79 -6 92 -40 92 -29 0
-40 13 -40 47 0 35 -11 46 -45 45 -32 -2 -47 11 -51 43 -6 39 -19 45 -97 45
l-89 0 13 90 c13 87 12 90 -39 90 -48 0 -52 -6 -52 -90 l0 -90 -90 0 c-77 0
-90 -6 -90 -40 0 -27 -13 -40 -40 -40 -26 0 -40 13 -40 38 0 24 -18 41 -50 47
-44 8 -50 3 -50 -49 0 -48 7 -57 38 -47 24 8 42 1 50 -20 16 -43 -2 -69 -49
-69 -33 0 -39 -14 -39 -93 l0 -92 -90 10 c-87 10 -90 8 -90 -45 0 -53 3 -55
90 -45 l90 10 0 -92 c0 -86 4 -93 50 -93 37 0 50 -11 50 -40 0 -27 13 -40 40
-40 29 0 40 -13 40 -50 0 -46 7 -50 91 -50 l91 0 -4 -97 -5 -97 -71 18 c-152
38 -335 50 -390 26 -31 -14 -36 -10 -27 15 7 18 -1 44 -18 58 -23 19 -29 51
-22 121 5 53 4 96 -3 96 -31 0 -75 340 -48 367 8 8 16 25 18 39 6 39 25 177
39 288 10 85 67 194 70 133 0 -9 13 0 30 22 16 21 29 29 29 17 0 -12 18 -26
40 -32 22 -6 40 -2 40 9 0 10 34 16 76 11 41 -4 107 4 145 18 87 31 164 33
279 6z m-180 -488 l0 -90 -90 0 -90 0 0 90 0 90 90 0 90 0 0 -90z m270 -106
c7 -21 18 -23 36 -7 19 15 25 11 25 -17 0 -20 -4 -37 -10 -36 -53 4 -88 -7
-65 -21 27 -17 12 -83 -19 -83 -11 0 -14 -9 -7 -20 7 -11 -1 -20 -17 -20 -19
0 -26 -13 -19 -40 8 -28 1 -40 -23 -40 -25 0 -30 11 -20 42 11 37 8 39 -28 20
-119 -64 -154 -12 -54 83 38 36 72 83 75 105 10 69 103 93 126 34z m-2490
-768 c0 -13 -28 -53 -61 -87 l-61 -63 1 -573 2 -573 -560 0 c-309 0 -561 7
-561 16 0 9 18 36 41 60 22 24 33 44 25 44 -9 0 -2 9 14 20 25 15 32 93 40
428 6 225 17 416 27 425 9 10 198 22 420 27 405 10 513 32 513 102 0 10 -244
18 -550 18 l-550 0 0 -566 0 -566 -93 -89 -92 -89 12 67 c7 38 13 373 13 745
l0 678 710 0 c540 0 710 -6 710 -24z m1480 -5 c0 -11 -28 -48 -62 -83 l-63
-65 4 -572 3 -573 -573 3 -574 3 -87 -86 -88 -86 0 739 0 739 720 0 c443 0
720 -7 720 -19z m1480 3 c0 -14 -32 -57 -71 -95 l-71 -69 6 -566 6 -565 -568
2 -568 1 -83 -81 c-46 -45 -87 -78 -92 -73 -5 5 -7 338 -4 740 l6 732 719 0
c579 0 720 -5 720 -26z"/>
<path d="M1040 4380 c0 -32 -13 -40 -70 -40 -57 0 -70 -8 -70 -40 0 -27 -13
-40 -40 -40 -27 0 -40 -13 -40 -40 0 -27 13 -40 42 -40 29 0 39 -9 31 -30 -9
-24 5 -30 68 -30 66 0 79 -7 79 -40 0 -27 13 -40 40 -40 33 0 40 -13 40 -81
l0 -81 -75 6 c-61 5 -74 0 -72 -29 2 -28 -13 -35 -75 -35 -78 0 -78 0 -78 -80
l0 -80 300 0 300 0 0 80 c0 80 0 80 -80 80 -66 0 -80 7 -80 39 0 27 -10 36
-30 28 -26 -10 -30 27 -30 261 l0 272 -80 0 c-67 0 -80 -7 -80 -40z"/>
<path d="M2180 4470 c0 -40 -10 -50 -50 -50 -46 0 -50 -7 -50 -90 l0 -90 140
0 c136 0 140 1 140 50 0 50 1 50 180 50 l180 0 0 -90 0 -90 -90 0 c-83 0 -90
-4 -90 -50 0 -46 -7 -50 -90 -50 -77 0 -90 -6 -90 -40 0 -34 -13 -40 -90 -40
-83 0 -90 -4 -90 -50 0 -40 -10 -50 -50 -50 -48 0 -50 -5 -50 -130 l0 -130
456 0 457 0 -4 85 -5 85 -272 6 -272 5 0 51 c0 48 3 50 90 37 87 -13 90 -12
90 39 0 48 6 52 90 52 77 0 90 6 90 40 0 29 13 40 50 40 40 0 50 10 50 50 0
37 11 50 40 50 36 0 40 13 40 130 0 117 -4 130 -40 130 -29 0 -40 13 -40 50
l0 50 -360 0 -360 0 0 -50z"/>
<path d="M3740 4430 c0 -77 -6 -90 -40 -90 -34 0 -40 -13 -40 -90 0 -83 -4
-90 -50 -90 -46 0 -50 -7 -50 -90 l0 -90 270 0 270 0 0 -180 0 -180 139 0 138
0 -11 180 -12 180 53 0 c49 0 53 6 53 90 0 84 -4 90 -53 90 l-53 0 12 180 11
180 -138 0 -139 0 0 -185 0 -185 -90 0 -90 0 0 95 c0 88 4 95 50 95 46 0 50 7
50 90 l0 90 -140 0 -140 0 0 -90z"/>
<path d="M2540 2989 c0 -42 -8 -50 -45 -45 -36 5 -45 -3 -43 -39 1 -34 -10
-45 -45 -45 -34 0 -47 -11 -47 -40 0 -29 -13 -40 -50 -40 -40 0 -50 -10 -50
-50 0 -46 7 -50 96 -50 l96 0 -1 -180 -1 -180 -95 0 -95 0 0 -90 0 -90 320 0
320 0 0 90 0 90 -90 0 -90 0 0 360 0 360 -90 0 c-83 0 -90 -4 -90 -51z"/>
<path d="M4414 2945 c-51 -12 -37 -95 16 -95 23 0 42 16 47 37 8 46 -16 69
-63 58z"/>
<path d="M3660 2192 c0 -42 9 -52 50 -52 37 0 50 11 50 40 0 22 -8 40 -18 40
-10 0 -33 5 -50 12 -24 9 -32 -1 -32 -40z"/>
<path d="M4415 2225 c-57 -13 -44 -85 15 -85 36 0 50 11 50 39 0 45 -17 57
-65 46z"/>
<path d="M2008 1608 c7 -17 12 -264 12 -549 0 -564 10 -604 98 -399 37 86 42
137 42 444 1 446 -44 404 444 416 408 10 512 31 515 105 1 8 -252 15 -561 15
-505 0 -561 -3 -550 -32z"/>
<path d="M3480 1115 c1 -539 8 -604 64 -540 69 79 76 123 76 495 0 480 -43
437 459 450 390 10 442 19 500 89 23 28 -30 31 -537 31 l-562 0 0 -525z"/>
</g>
</svg>
