<?xml version="1.0" standalone="no"?>
<!DOCTYPE svg PUBLIC "-//W3C//DTD SVG 20010904//EN"
 "http://www.w3.org/TR/2001/REC-SVG-20010904/DTD/svg10.dtd">
<svg version="1.0" xmlns="http://www.w3.org/2000/svg"
 width="300.000000pt" height="327.000000pt" viewBox="0 0 300.000000 327.000000"
 preserveAspectRatio="xMidYMid meet">
<metadata>
Created by potrace 1.10, written by Peter Selinger 2001-2011
</metadata>
<g transform="translate(0.000000,327.000000) scale(0.100000,-0.100000)"
fill="#f2d7d9" stroke="none">
<path d="M210 3138 c-45 -31 -76 -87 -89 -163 -15 -82 -15 -2725 -1 -2776 6
-19 22 -46 36 -60 23 -22 34 -24 112 -24 l87 1 115 66 c63 36 450 260 860 498
410 237 902 523 1094 633 349 202 432 260 456 317 28 68 -8 150 -93 209 -24
16 -553 307 -1177 646 -624 339 -1155 628 -1180 642 -32 18 -65 27 -115 30
-62 4 -74 2 -105 -19z m151 -88 c23 -13 25 -59 5 -98 -22 -43 -122 -133 -140
-126 -19 7 -21 51 -5 126 19 86 80 129 140 98z m107 -125 c2 -12 -11 -39 -27
-62 l-30 -41 27 14 c40 21 95 17 127 -7 21 -18 449 -469 1046 -1105 76 -82 90
-119 64 -181 -11 -27 -173 -195 -538 -561 -653 -655 -771 -762 -839 -762 -25
0 -28 4 -28 32 0 29 16 48 124 153 68 66 134 136 145 155 27 45 28 80 2 80
-24 0 -55 -24 -170 -132 -72 -68 -100 -88 -122 -88 -39 0 -49 24 -49 123 0
147 12 172 165 327 73 74 147 155 164 179 34 49 41 91 14 91 -9 0 -82 -65
-163 -145 -80 -80 -151 -145 -158 -145 -16 0 -26 44 -19 86 9 57 45 121 105
187 55 61 55 61 -19 -11 -41 -39 -78 -72 -82 -72 -13 0 -7 50 9 82 9 18 83
100 164 183 145 149 180 194 180 235 0 42 -37 17 -174 -119 -145 -142 -172
-162 -183 -135 -15 39 30 106 177 263 149 161 186 217 178 272 -7 50 -36 33
-168 -95 -79 -77 -137 -126 -149 -126 -49 0 -52 92 -5 187 19 39 64 89 175
195 108 104 149 149 149 166 0 23 0 23 -30 5 -17 -9 -85 -73 -152 -140 -84
-85 -128 -123 -144 -123 -28 0 -38 28 -29 78 14 75 49 127 171 252 130 134
184 202 184 232 0 43 -64 2 -175 -112 -124 -128 -185 -161 -185 -100 0 57 41
113 180 250 132 129 180 194 180 240 0 48 -53 13 -185 -120 -144 -146 -185
-167 -185 -95 0 40 14 74 54 134 28 42 28 43 5 28 -33 -23 -59 -22 -59 3 0 56
102 185 190 242 50 32 84 33 88 3z m237 -35 c28 -16 354 -193 725 -395 371
-202 683 -374 694 -383 54 -49 41 -91 -62 -195 -86 -88 -116 -107 -164 -107
-23 0 -45 -10 -68 -30 -50 -42 -108 -42 -144 1 -40 47 -35 90 15 151 23 27 40
51 37 53 -2 3 -28 -13 -57 -35 -66 -50 -109 -53 -141 -13 -26 34 -21 63 23
118 l31 40 -37 -32 c-102 -89 -199 13 -112 117 67 81 31 121 -54 60 -114 -83
-153 -41 -61 64 28 31 50 59 50 62 0 13 -24 0 -65 -36 -54 -46 -100 -53 -130
-20 -30 33 -24 79 18 134 36 48 46 76 27 76 -5 0 -38 -24 -74 -54 l-63 -54
-41 41 c-52 54 -62 89 -33 127 11 16 21 38 21 50 0 28 -51 27 -90 -1 -33 -25
-60 -19 -60 11 0 14 -4 19 -12 14 -7 -4 -5 2 5 13 36 42 6 79 -56 68 -30 -6
-38 0 -124 88 -51 52 -93 98 -93 102 0 10 40 -5 95 -35z m1718 -931 c151 -76
219 -119 275 -173 88 -83 96 -143 30 -211 -48 -49 -436 -278 -502 -296 -90
-24 -114 34 -48 118 51 65 56 73 40 73 -7 0 -35 -18 -62 -40 -55 -45 -94 -52
-126 -20 -22 22 -25 55 -9 97 5 15 65 84 133 153 177 181 206 216 206 245 0
58 -58 20 -235 -154 -88 -87 -171 -165 -185 -175 -54 -36 -67 -6 -23 53 14 20
94 106 177 191 148 152 147 151 -34 -27 -102 -101 -190 -183 -195 -183 -5 0
69 79 165 176 164 165 241 234 262 234 4 0 63 -28 131 -61z m-606 -480 c15 -5
61 -42 102 -82 136 -133 156 -180 104 -236 -31 -33 -889 -534 -905 -529 -11 4
188 195 477 457 190 173 254 238 255 259 1 46 -104 -47 -585 -518 -279 -274
-323 -310 -513 -419 -120 -69 -147 -81 -140 -62 2 5 250 259 552 565 585 592
583 591 653 565z"/>
<path d="M1585 1278 c-165 -167 -152 -161 43 20 104 97 144 142 125 142 -5 0
-80 -73 -168 -162z"/>
</g>
</svg>
