<?xml version="1.0" standalone="no"?>
<!DOCTYPE svg PUBLIC "-//W3C//DTD SVG 20010904//EN"
 "http://www.w3.org/TR/2001/REC-SVG-20010904/DTD/svg10.dtd">
<svg version="1.0" xmlns="http://www.w3.org/2000/svg"
 width="300.000000pt" height="200.000000pt" viewBox="0 0 300.000000 200.000000"
 preserveAspectRatio="xMidYMid meet">
<metadata>
Created by potrace 1.10, written by Peter Selinger 2001-2011
</metadata>
<g transform="translate(0.000000,200.000000) scale(0.050000,-0.050000)"
fill="#f2d7d9" stroke="none">
<path d="M2348 3251 c-204 -32 -605 -157 -673 -211 -40 -31 -81 -40 -190 -40
l-138 0 -2 -255 c-1 -140 -5 -322 -8 -405 l-7 -150 55 6 c30 4 55 -3 55 -15 0
-11 -18 -21 -40 -21 -22 0 -40 -9 -40 -20 0 -11 23 -20 51 -20 29 0 46 -9 39
-20 -7 -11 -30 -20 -51 -20 -61 0 -46 -40 16 -41 50 -1 51 -3 13 -19 -131 -53
-152 -157 -71 -363 32 -81 63 -163 70 -182 6 -20 19 -34 27 -33 60 10 99 -9
120 -57 49 -116 86 -249 86 -308 l0 -61 -52 47 c-28 26 -73 67 -99 92 -26 25
-59 45 -75 45 -40 0 -414 368 -417 412 -2 21 -5 52 -6 68 -2 17 5 41 15 55 10
14 12 25 3 25 -8 0 6 18 31 40 44 38 35 50 -33 42 -28 -4 -46 22 -57 80 -9 44
65 168 100 169 93 3 208 69 120 69 -16 0 -30 9 -30 20 0 11 14 20 30 20 17 0
30 9 30 20 0 26 -46 26 -73 -1 -11 -11 -87 -26 -169 -33 -151 -12 -218 -32
-218 -67 0 -10 13 -19 28 -19 16 0 41 -27 55 -60 15 -33 32 -60 39 -60 41 0
10 -124 -38 -155 -93 -59 -113 -112 -39 -101 34 5 47 -5 52 -41 4 -33 16 -44
41 -38 38 10 43 -40 12 -111 -19 -45 23 -129 73 -145 20 -6 48 -22 62 -36 14
-13 156 -132 316 -265 l290 -242 160 -312 c207 -407 129 -383 833 -253 311 57
803 147 1092 199 714 129 701 112 432 587 -194 342 -190 337 -223 316 -18 -11
19 -89 128 -274 83 -142 156 -269 161 -282 10 -26 -58 -43 -494 -116 -159 -27
-411 -71 -560 -99 -148 -27 -315 -56 -370 -64 -55 -9 -85 -19 -67 -23 28 -6
731 110 1237 205 286 53 300 54 300 23 0 -28 -59 -52 -157 -65 -64 -8 -81 -28
-24 -28 63 0 20 -53 -55 -68 -180 -37 -239 -26 -149 26 43 25 -19 29 -140 9
-81 -13 -105 -43 -30 -37 145 12 118 -43 -30 -62 -149 -18 -162 -20 -175 -28
-5 -3 -29 -7 -52 -10 -23 -2 -66 -10 -95 -17 -40 -11 -49 -7 -41 15 6 16 23
25 38 19 14 -5 32 0 39 12 8 12 21 17 30 11 9 -5 47 3 84 19 42 19 53 30 30
30 -46 1 -391 -58 -433 -74 -16 -6 -38 -10 -48 -7 -9 2 -113 -14 -230 -36
-116 -22 -277 -51 -357 -64 -80 -13 -145 -30 -145 -36 0 -27 294 4 360 38 17
8 80 20 142 27 62 6 135 20 163 31 28 11 56 14 62 8 7 -6 25 -1 40 11 15 13
43 18 61 11 18 -7 46 -1 63 13 23 19 37 19 53 3 29 -29 -67 -69 -119 -50 -19
7 -28 5 -19 -5 14 -15 -410 -108 -626 -137 -38 -5 -142 -23 -230 -41 -88 -17
-163 -31 -167 -31 -4 0 -2 20 4 44 6 25 0 58 -14 75 -15 17 -72 157 -129 311
-140 384 -151 410 -168 410 -23 0 -22 -5 41 -144 89 -194 149 -376 126 -376
-31 0 -214 489 -229 610 -12 98 -177 491 -200 476 -9 -5 -11 25 -5 67 8 57 6
66 -7 37 -16 -34 -20 -30 -23 30 -2 39 -7 97 -11 130 -5 33 -11 129 -14 214
-3 84 -10 159 -17 165 -6 7 -2 56 8 111 16 78 13 115 -12 179 -40 99 -32 122
67 182 86 54 88 56 61 98 -15 24 -31 19 -98 -25 -100 -66 -126 -160 -76 -267
45 -94 42 -127 -14 -127 -55 0 -56 313 -1 346 17 10 23 35 16 70 -10 51 -5 57
91 86 97 30 101 30 90 -5 -7 -21 -2 -37 10 -37 13 0 20 -30 18 -70 -4 -59 -13
-70 -52 -70 -27 0 -42 -9 -35 -20 7 -11 -2 -20 -19 -20 -37 0 -40 -21 -6 -64
38 -49 105 -62 135 -26 14 16 53 30 87 30 108 1 157 22 147 62 -8 30 6 38 83
48 162 22 200 32 224 61 33 40 92 36 120 -6 21 -33 21 -33 11 1 -8 25 -4 31
13 20 31 -19 315 -23 326 -4 5 7 36 11 69 8 33 -3 66 3 72 13 6 10 21 12 32 4
14 -8 16 -4 8 10 -8 13 -23 18 -33 12 -11 -6 -19 -1 -19 12 0 16 44 18 155 8
85 -8 219 -13 297 -11 107 4 147 -3 167 -27 14 -17 40 -31 57 -31 22 0 26 6
11 21 -12 12 -17 64 -11 121 9 98 8 100 -40 88 -27 -7 -146 6 -264 29 -118 22
-270 39 -338 37 l-124 -3 110 -7 c374 -21 390 -102 20 -97 -206 4 -314 -2
-297 -14 18 -12 6 -15 -38 -7 -40 7 -65 3 -65 -11 0 -12 -18 -17 -40 -11 -22
6 -35 2 -28 -9 7 -11 -11 -13 -43 -5 -42 11 -51 8 -39 -12 11 -17 8 -21 -7
-12 -30 19 -107 -5 -92 -29 6 -10 -1 -14 -16 -8 -15 5 -91 -16 -170 -49 -195
-80 -249 -85 -258 -25 -4 26 -27 63 -52 83 l-44 36 80 22 c43 12 103 22 133
22 29 0 58 7 64 16 5 9 56 29 112 44 56 15 107 35 112 43 5 8 23 10 39 4 22
-9 26 -2 15 26 -12 33 -10 34 22 8 23 -18 40 -21 49 -8 24 37 191 84 422 119
38 5 74 14 79 19 18 18 -272 4 -430 -20z m392 -360 c0 -12 8 -9 18 6 13 22 18
21 27 -2 8 -21 -3 -28 -42 -25 -29 2 -62 -1 -73 -8 -31 -17 -308 -15 -297 3 5
8 18 10 28 4 11 -6 19 0 19 15 1 19 6 18 20 -4 17 -27 19 -27 20 0 1 27 3 27
20 0 17 -27 19 -27 20 0 1 27 3 27 20 0 11 -18 20 -20 20 -6 0 39 200 56 200
17z m-1312 -603 c41 -16 21 -48 -29 -48 -22 0 -39 14 -39 30 0 32 18 37 68 18z
m-462 -501 c8 -7 4 -26 -9 -40 -25 -31 -86 2 -66 35 13 21 57 24 75 5z"/>
<path d="M3817 2782 c-8 -21 -336 -68 -710 -102 -134 -12 -264 -26 -290 -30
-26 -4 -263 -27 -527 -51 -264 -24 -483 -46 -487 -50 -4 -4 11 -266 35 -583
23 -317 42 -624 42 -684 l0 -107 85 14 c405 65 1825 271 1873 271 85 0 84 -28
31 650 -27 340 -44 635 -38 654 12 36 -2 52 -14 18z m-479 -231 c90 -32 201
-33 203 -1 7 106 40 -136 57 -413 28 -474 26 -581 -10 -516 -14 27 -27 38 -27
24 -1 -39 -160 -104 -281 -115 -61 -6 -159 -16 -220 -22 -60 -7 -135 -13 -165
-15 -30 -2 -55 -9 -55 -17 0 -8 -25 -14 -55 -14 -89 2 -536 -66 -600 -91 -15
-6 -22 -2 -15 9 7 11 -7 18 -32 15 -70 -8 -115 89 -119 255 -3 77 -12 190 -21
250 -16 108 -25 294 -20 446 3 95 60 124 292 142 330 27 381 32 440 41 33 5
128 15 210 23 83 7 154 16 158 20 21 19 184 5 260 -21z m309 -56 c-5 -8 -1
-15 8 -15 10 0 19 -11 19 -25 1 -23 24 -442 35 -655 3 -49 -3 -111 -12 -138
-34 -90 -33 -95 -77 538 -26 382 -26 367 8 336 15 -14 24 -33 19 -41z m-427
-1019 c-49 -9 -99 -12 -110 -7 -11 4 0 9 24 9 24 1 48 10 54 19 6 10 36 13 67
6 49 -10 46 -12 -35 -27z"/>
<path d="M3170 2548 c-22 -4 -265 -30 -540 -58 -644 -67 -593 -54 -579 -145 7
-41 27 -259 46 -485 32 -386 36 -410 74 -406 21 2 262 35 536 75 273 39 517
71 543 71 72 0 73 9 41 459 -17 231 -31 438 -31 461 0 39 -8 41 -90 28z m18
-127 c5 -17 14 -112 21 -211 6 -99 17 -244 24 -323 16 -204 5 -227 -109 -227
-52 -1 -130 -10 -174 -20 -44 -11 -125 -25 -180 -31 -55 -6 -145 -19 -200 -28
-314 -56 -366 -16 -378 292 -1 35 -9 59 -17 54 -16 -10 -19 10 -23 166 -2 65
5 99 18 91 11 -6 8 3 -7 22 -75 92 23 167 240 185 59 5 139 14 177 20 97 16
456 44 535 42 41 -1 68 -13 73 -32z"/>
<path d="M1060 1592 c0 -35 54 -57 72 -29 7 12 1 29 -14 39 -40 25 -58 22 -58
-10z"/>
<path d="M3791 1289 c38 -30 38 -31 -6 -19 -26 8 -45 4 -45 -9 0 -25 113 -29
128 -4 6 9 -12 27 -40 40 -69 32 -83 29 -37 -8z"/>
<path d="M3164 1265 c-40 -4 -63 -17 -58 -31 11 -31 116 -19 153 17 33 32 39
31 -95 14z"/>
<path d="M2918 1227 c-22 -6 -29 -24 -22 -60 11 -61 41 -75 105 -49 l49 19
-54 2 c-60 1 -100 41 -41 41 21 0 55 13 76 29 41 31 -25 41 -113 18z"/>
<path d="M3400 1215 c0 -28 50 -37 101 -18 46 16 44 18 -26 26 -41 5 -75 1
-75 -8z"/>
<path d="M3840 1221 c-27 -17 -26 -23 1 -51 38 -38 104 -19 95 27 -8 39 -54
50 -96 24z"/>
<path d="M2818 1211 c-5 -5 -42 -11 -82 -14 l-72 -5 43 -55 c43 -55 138 -77
162 -38 7 10 -12 17 -41 15 -30 -2 -58 7 -62 21 -6 16 10 25 42 25 33 0 52 11
52 30 0 29 -23 40 -42 21z"/>
<path d="M3714 1206 c-23 -6 -33 -21 -25 -39 6 -17 11 -34 11 -39 0 -12 72
-10 84 3 15 14 -4 90 -21 87 -7 -2 -29 -7 -49 -12z"/>
<path d="M2395 1151 c-157 -24 -225 -51 -128 -51 29 0 71 -18 93 -40 44 -44
94 -51 140 -18 23 16 18 19 -25 12 -32 -5 -64 3 -77 19 -18 21 -14 27 21 27
24 0 38 9 31 20 -25 40 80 -3 120 -50 13 -14 42 -18 80 -9 l60 14 -65 3 c-73
2 -87 32 -23 48 53 14 31 55 -28 52 -24 -2 -114 -14 -199 -27z"/>
<path d="M3080 1157 c0 -10 33 -17 72 -17 62 0 69 -4 48 -30 -32 -38 17 -60
91 -41 65 16 54 59 -18 67 -29 4 -53 13 -53 20 0 8 -32 15 -70 16 -39 0 -70
-6 -70 -15z"/>
<path d="M3547 1150 c7 -18 13 -37 13 -42 0 -4 23 -8 51 -8 75 0 58 68 -19 77
-47 5 -55 0 -45 -27z"/>
<path d="M3915 1126 c-39 -10 -43 -23 -17 -63 24 -39 92 -20 92 26 0 41 -20
51 -75 37z"/>
<path d="M3009 1079 c-8 -13 -3 -30 11 -39 30 -19 117 2 125 30 7 29 -118 37
-136 9z"/>
<path d="M3748 1068 c7 -17 12 -35 12 -40 0 -13 72 -10 85 4 26 25 -12 68 -59
68 -38 0 -47 -8 -38 -32z"/>
<path d="M1992 825 c51 -140 103 -286 117 -325 28 -79 80 -96 194 -63 62 18
58 19 -43 16 l-109 -3 -111 315 c-60 173 -117 315 -125 315 -8 0 27 -115 77
-255z"/>
<path d="M2840 1050 c-20 -24 -18 -32 8 -42 48 -18 132 9 132 42 0 40 -107 40
-140 0z"/>
<path d="M3604 1045 c4 -22 28 -38 64 -42 47 -5 55 0 45 27 -7 18 -13 37 -13
42 0 4 -23 8 -51 8 -39 0 -50 -9 -45 -35z"/>
<path d="M2260 1032 c0 -17 10 -32 21 -32 13 0 16 -17 9 -41 -12 -38 -6 -41
63 -35 91 7 112 66 24 65 -39 0 -50 8 -42 30 6 17 4 24 -5 16 -9 -8 -28 -5
-43 8 -21 17 -27 14 -27 -11z"/>
<path d="M2684 1039 c-64 -25 -37 -59 47 -59 46 0 69 9 69 28 0 21 -48 58 -67
51 -1 -1 -24 -10 -49 -20z"/>
<path d="M3974 1026 c-55 -14 -32 -75 31 -82 30 -4 55 2 55 13 0 32 -23 83
-37 81 -7 -2 -29 -7 -49 -12z"/>
<path d="M2060 995 c0 -17 29 -22 90 -16 76 8 68 32 -11 32 -43 0 -79 -7 -79
-16z"/>
<path d="M2473 991 c-6 -17 -2 -35 8 -42 33 -20 139 12 139 43 0 39 -132 38
-147 -1z"/>
<path d="M3804 965 c4 -22 28 -38 64 -42 47 -5 55 0 45 27 -7 18 -13 37 -13
42 0 4 -23 8 -51 8 -39 0 -50 -9 -45 -35z"/>
<path d="M3660 954 c0 -42 40 -70 83 -59 24 6 35 21 28 39 -6 16 -11 33 -11
38 0 4 -22 8 -50 8 -28 0 -50 -12 -50 -26z"/>
<path d="M2109 938 c-23 -37 24 -63 89 -48 87 19 82 70 -7 70 -38 0 -75 -10
-82 -22z"/>
<path d="M4000 892 c0 -42 47 -72 96 -59 50 13 55 28 20 63 -33 33 -116 30
-116 -4z"/>
<path d="M3884 883 c-41 -26 -6 -88 44 -75 23 6 49 12 57 12 9 0 4 18 -10 40
-26 43 -50 49 -91 23z"/>
<path d="M3735 866 c-28 -7 -31 -17 -14 -47 37 -69 134 -42 107 29 -12 32 -28
35 -93 18z"/>
<path d="M3441 829 c14 -17 11 -28 -12 -36 -18 -7 -26 -4 -19 7 7 11 -2 20
-19 20 -17 0 -31 -13 -31 -30 0 -16 17 -30 38 -30 20 0 65 -6 100 -13 55 -11
61 -7 49 24 -8 21 -6 31 6 24 10 -7 32 -4 48 6 24 15 23 18 -6 19 -19 0 -35 7
-35 15 0 8 -31 16 -70 16 -52 2 -64 -4 -49 -22z"/>
<path d="M3185 815 c10 -30 95 -46 95 -19 0 20 -46 44 -83 44 -11 0 -17 -11
-12 -25z"/>
<path d="M3064 797 c5 -15 30 -30 55 -34 31 -4 43 2 37 20 -5 15 -30 30 -55
34 -31 4 -43 -2 -37 -20z"/>
<path d="M2820 750 c0 -19 19 -30 52 -30 45 0 49 5 28 30 -14 17 -37 30 -52
30 -16 0 -28 -13 -28 -30z"/>
<path d="M3229 738 c-21 -33 23 -65 65 -48 34 15 34 17 1 25 -20 4 -30 16 -24
27 6 10 2 18 -9 18 -11 0 -26 -10 -33 -22z"/>
<path d="M3120 721 c-43 -27 5 -72 54 -51 34 15 34 17 1 25 -20 4 -30 16 -24
27 14 23 7 22 -31 -1z"/>
<path d="M2213 675 c-45 -34 -4 -78 53 -57 30 11 31 18 9 48 -22 30 -31 32
-62 9z"/>
<path d="M2800 635 c0 -21 135 -19 148 2 6 10 -25 17 -68 16 -44 -1 -80 -9
-80 -18z"/>
<path d="M2550 620 c-21 -34 21 -68 64 -50 30 12 31 17 6 25 -16 6 -36 20 -42
30 -8 12 -19 10 -28 -5z"/>
<path d="M2250 572 c-36 -26 -37 -30 -7 -42 56 -22 147 -3 147 30 0 41 -90 49
-140 12z"/>
<path d="M2520 497 c-60 -10 -119 -22 -130 -27 -32 -16 200 11 263 29 75 23
11 22 -133 -2z"/>
</g>
</svg>
